<svg xmlns="http://www.w3.org/2000/svg" xmlns:xlink="http://www.w3.org/1999/xlink" width="300" zoomAndPan="magnify" viewBox="0 0 224.87999 225" height="300" preserveAspectRatio="xMidYMid meet" version="1.0"><defs><clipPath id="ff7bce97f5"><path d="M 4.117188 40 L 220.753906 40 L 220.753906 59 L 4.117188 59 Z M 4.117188 40 " clip-rule="nonzero"/></clipPath><clipPath id="a844593eda"><path d="M 12 4.179688 L 214 4.179688 L 214 32 L 12 32 Z M 12 4.179688 " clip-rule="nonzero"/></clipPath><clipPath id="bbd1e4c2df"><path d="M 9 211 L 216 211 L 216 220.8125 L 9 220.8125 Z M 9 211 " clip-rule="nonzero"/></clipPath><clipPath id="c6d995f00d"><path d="M 181 141.453125 L 220.476562 141.453125 L 220.476562 179 L 181 179 Z M 181 141.453125 " clip-rule="nonzero"/></clipPath><clipPath id="4fc6d242f6"><path d="M 143.269531 174 L 183 174 L 183 220.910156 L 143.269531 220.910156 Z M 143.269531 174 " clip-rule="nonzero"/></clipPath><clipPath id="023bc04d31"><path d="M 160 207 L 175 207 L 175 220.910156 L 160 220.910156 Z M 160 207 " clip-rule="nonzero"/></clipPath><clipPath id="3e6a07a91d"><path d="M 143.269531 204 L 154 204 L 154 215 L 143.269531 215 Z M 143.269531 204 " clip-rule="nonzero"/></clipPath><clipPath id="d1c69e8f9a"><path d="M 10.539062 143 L 45 143 L 45 181.070312 L 10.539062 181.070312 Z M 10.539062 143 " clip-rule="nonzero"/></clipPath><clipPath id="54ebedc95e"><path d="M 28 142 L 62.261719 142 L 62.261719 181 L 28 181 Z M 28 142 " clip-rule="nonzero"/></clipPath><clipPath id="ec7b24ebc4"><path d="M 16 119.605469 L 57 119.605469 L 57 159 L 16 159 Z M 16 119.605469 " clip-rule="nonzero"/></clipPath></defs><path fill="#000000" d="M 23.976562 56.984375 C 22.621094 56.984375 21.71875 56.984375 20.816406 57.433594 C 18.558594 58.335938 16.304688 58.789062 14.046875 58.789062 C 13.59375 58.789062 13.59375 58.789062 13.144531 58.789062 L 13.144531 130.097656 L 9.535156 130.097656 L 9.535156 139.125 L 215.789062 139.125 L 215.789062 130.097656 L 211.726562 130.097656 L 211.726562 58.789062 C 209.921875 58.789062 208.117188 58.335938 206.308594 57.433594 C 205.40625 56.984375 204.503906 56.984375 203.152344 56.984375 C 200.894531 56.984375 199.539062 57.433594 198.1875 58.335938 L 198.1875 129.644531 L 26.683594 129.644531 L 26.683594 57.433594 C 25.78125 56.984375 24.878906 56.984375 23.976562 56.984375 Z M 23.976562 56.984375 " fill-opacity="1" fill-rule="nonzero"/><g clip-path="url(#ff7bce97f5)"><path fill="#000000" d="M 4.117188 40.285156 C 4.117188 48.859375 12.691406 54.273438 20.367188 51.117188 C 33.453125 46.152344 36.160156 58.789062 47.445312 58.789062 C 58.277344 58.789062 58.277344 50.210938 69.109375 50.210938 C 79.941406 50.210938 79.941406 58.789062 90.773438 58.789062 C 101.601562 58.789062 101.601562 50.210938 112.433594 50.210938 C 123.265625 50.210938 123.265625 58.789062 134.097656 58.789062 C 144.929688 58.789062 144.929688 50.210938 155.761719 50.210938 C 166.59375 50.210938 166.59375 58.789062 177.425781 58.789062 C 189.160156 58.789062 190.964844 46.152344 204.503906 51.117188 C 212.175781 54.273438 220.753906 48.859375 220.753906 40.285156 Z M 4.117188 40.285156 " fill-opacity="1" fill-rule="nonzero"/></g><g clip-path="url(#a844593eda)"><path fill="#000000" d="M 36.160156 4.179688 C 36.160156 4.179688 23.523438 20.425781 12.242188 31.257812 L 213.078125 31.257812 C 201.796875 20.425781 188.707031 4.179688 188.707031 4.179688 Z M 36.160156 4.179688 " fill-opacity="1" fill-rule="nonzero"/></g><g clip-path="url(#bbd1e4c2df)"><path fill="#000000" d="M 9.535156 211.785156 L 215.789062 211.785156 L 215.789062 220.8125 L 9.535156 220.8125 Z M 9.535156 211.785156 " fill-opacity="1" fill-rule="nonzero"/></g><path fill="#000000" d="M 13.144531 145.894531 L 211.273438 145.894531 L 211.273438 205.015625 L 13.144531 205.015625 Z M 13.144531 145.894531 " fill-opacity="1" fill-rule="nonzero"/><g clip-path="url(#c6d995f00d)"><path fill="#4b70f6" d="M 217.015625 141.828125 L 185.195312 141.828125 C 184.699219 141.828125 184.222656 141.921875 183.761719 142.113281 C 183.304688 142.300781 182.898438 142.574219 182.546875 142.925781 C 182.195312 143.273438 181.925781 143.679688 181.738281 144.136719 C 181.546875 144.597656 181.453125 145.074219 181.453125 145.570312 L 181.453125 166.160156 C 181.453125 166.65625 181.546875 167.132812 181.738281 167.59375 C 181.925781 168.050781 182.195312 168.457031 182.546875 168.808594 C 182.898438 169.160156 183.304688 169.429688 183.761719 169.617188 C 184.222656 169.808594 184.699219 169.902344 185.195312 169.902344 L 189.5 169.902344 L 184.257812 178.402344 L 207.09375 169.902344 L 217.015625 169.902344 C 217.511719 169.902344 217.988281 169.808594 218.445312 169.617188 C 218.90625 169.429688 219.3125 169.160156 219.660156 168.808594 C 220.011719 168.457031 220.28125 168.050781 220.472656 167.59375 C 220.664062 167.132812 220.757812 166.65625 220.757812 166.160156 L 220.757812 145.570312 C 220.757812 145.074219 220.664062 144.597656 220.472656 144.136719 C 220.28125 143.679688 220.011719 143.273438 219.660156 142.925781 C 219.3125 142.574219 218.90625 142.300781 218.445312 142.113281 C 217.988281 141.921875 217.511719 141.828125 217.015625 141.828125 Z M 217.015625 141.828125 " fill-opacity="1" fill-rule="nonzero"/></g><g clip-path="url(#4fc6d242f6)"><path fill="#f47f8f" d="M 181.902344 195.042969 L 177.820312 190.960938 L 179.691406 189.089844 C 179.960938 188.800781 180.164062 188.472656 180.300781 188.101562 C 180.441406 187.734375 180.503906 187.355469 180.496094 186.960938 C 180.484375 186.566406 180.398438 186.191406 180.242188 185.828125 C 180.082031 185.46875 179.863281 185.152344 179.578125 184.878906 L 174.601562 179.898438 C 174.316406 179.613281 173.988281 179.394531 173.617188 179.242188 C 173.246094 179.089844 172.859375 179.011719 172.457031 179.011719 C 172.054688 179.011719 171.667969 179.089844 171.296875 179.242188 C 170.925781 179.394531 170.597656 179.613281 170.316406 179.898438 L 168.441406 181.769531 L 162.734375 175.910156 C 162.496094 175.667969 162.222656 175.46875 161.921875 175.3125 C 161.617188 175.15625 161.296875 175.050781 160.960938 175 C 160.625 174.945312 160.289062 174.945312 159.949219 175 C 159.613281 175.050781 159.292969 175.15625 158.992188 175.3125 C 158.460938 175.605469 158.082031 176.027344 157.847656 176.585938 L 155.246094 181.734375 L 151.335938 189.726562 L 148.714844 194.890625 L 145.683594 200.898438 C 145.550781 201.195312 145.464844 201.503906 145.425781 201.828125 C 145.386719 202.148438 145.394531 202.46875 145.453125 202.789062 C 145.511719 203.109375 145.617188 203.410156 145.765625 203.699219 C 145.917969 203.988281 146.109375 204.246094 146.335938 204.476562 L 146.058594 204.195312 L 144.183594 206.066406 C 143.902344 206.34375 143.683594 206.667969 143.53125 207.035156 C 143.378906 207.402344 143.304688 207.785156 143.304688 208.179688 C 143.304688 208.578125 143.378906 208.960938 143.53125 209.328125 C 143.683594 209.691406 143.902344 210.015625 144.183594 210.296875 L 147.929688 214.039062 C 148.210938 214.320312 148.535156 214.539062 148.902344 214.691406 C 149.269531 214.847656 149.65625 214.921875 150.054688 214.921875 C 150.453125 214.921875 150.835938 214.847656 151.203125 214.691406 C 151.570312 214.539062 151.898438 214.320312 152.175781 214.039062 L 154.050781 212.167969 L 153.375 211.511719 C 153.847656 211.96875 154.40625 212.25 155.050781 212.363281 C 155.695312 212.476562 156.316406 212.398438 156.914062 212.128906 L 160.246094 210.445312 L 169.117188 219.316406 C 169.246094 219.480469 169.386719 219.628906 169.546875 219.761719 C 169.707031 219.894531 169.878906 220.007812 170.0625 220.105469 C 170.25 220.199219 170.441406 220.273438 170.640625 220.328125 C 170.84375 220.378906 171.046875 220.410156 171.253906 220.417969 C 171.460938 220.429688 171.667969 220.414062 171.871094 220.378906 C 172.078125 220.34375 172.273438 220.285156 172.464844 220.207031 C 172.660156 220.128906 172.839844 220.027344 173.011719 219.910156 C 173.179688 219.792969 173.335938 219.65625 173.476562 219.503906 C 173.632812 219.371094 173.773438 219.222656 173.890625 219.058594 C 174.011719 218.890625 174.109375 218.714844 174.1875 218.523438 C 174.265625 218.332031 174.320312 218.136719 174.347656 217.933594 C 174.378906 217.730469 174.382812 217.527344 174.363281 217.324219 C 174.34375 217.121094 174.300781 216.921875 174.234375 216.726562 C 174.167969 216.535156 174.078125 216.351562 173.964844 216.179688 C 173.855469 216.007812 173.726562 215.851562 173.574219 215.710938 C 173.425781 215.570312 173.261719 215.449219 173.085938 215.347656 L 165.597656 207.863281 L 176.15625 202.527344 L 181.226562 199.851562 C 181.785156 199.617188 182.207031 199.238281 182.5 198.710938 C 182.648438 198.410156 182.746094 198.097656 182.792969 197.765625 C 182.84375 197.4375 182.839844 197.109375 182.789062 196.78125 C 182.734375 196.449219 182.632812 196.136719 182.480469 195.839844 C 182.328125 195.542969 182.136719 195.277344 181.902344 195.042969 Z M 181.902344 195.042969 " fill-opacity="1" fill-rule="nonzero"/></g><path fill="#f8f6f7" d="M 181.902344 195.042969 C 182.144531 195.28125 182.34375 195.550781 182.5 195.855469 C 182.65625 196.15625 182.761719 196.476562 182.8125 196.816406 C 182.867188 197.152344 182.867188 197.488281 182.8125 197.824219 C 182.761719 198.160156 182.65625 198.480469 182.5 198.785156 C 182.207031 199.3125 181.785156 199.691406 181.226562 199.925781 L 176.078125 202.527344 L 155.359375 181.734375 L 157.960938 176.585938 C 158.195312 176.027344 158.574219 175.605469 159.101562 175.3125 C 159.40625 175.15625 159.726562 175.050781 160.0625 175 C 160.398438 174.945312 160.734375 174.945312 161.074219 175 C 161.410156 175.050781 161.730469 175.15625 162.03125 175.3125 C 162.335938 175.46875 162.605469 175.667969 162.847656 175.910156 L 168.628906 181.695312 L 177.894531 190.960938 Z M 181.902344 195.042969 " fill-opacity="1" fill-rule="nonzero"/><g clip-path="url(#023bc04d31)"><path fill="#f8f6f7" d="M 173.085938 215.347656 C 173.261719 215.449219 173.425781 215.570312 173.574219 215.710938 C 173.726562 215.851562 173.855469 216.007812 173.964844 216.179688 C 174.078125 216.351562 174.167969 216.535156 174.234375 216.726562 C 174.300781 216.921875 174.34375 217.121094 174.363281 217.324219 C 174.382812 217.527344 174.378906 217.730469 174.347656 217.933594 C 174.320312 218.136719 174.265625 218.332031 174.1875 218.523438 C 174.109375 218.714844 174.011719 218.890625 173.890625 219.058594 C 173.773438 219.222656 173.632812 219.371094 173.476562 219.503906 C 173.335938 219.65625 173.179688 219.792969 173.011719 219.910156 C 172.839844 220.027344 172.660156 220.128906 172.464844 220.207031 C 172.273438 220.285156 172.078125 220.34375 171.871094 220.378906 C 171.667969 220.414062 171.460938 220.429688 171.253906 220.417969 C 171.046875 220.410156 170.84375 220.378906 170.640625 220.328125 C 170.441406 220.273438 170.25 220.199219 170.0625 220.105469 C 169.878906 220.007812 169.707031 219.894531 169.546875 219.761719 C 169.386719 219.628906 169.246094 219.480469 169.117188 219.316406 L 160.246094 210.445312 L 165.523438 207.789062 Z M 173.085938 215.347656 " fill-opacity="1" fill-rule="nonzero"/></g><g clip-path="url(#3e6a07a91d)"><path fill="#98d6fc" d="M 153.992188 212.128906 L 152.121094 214 C 151.839844 214.285156 151.515625 214.503906 151.148438 214.65625 C 150.78125 214.808594 150.394531 214.886719 149.996094 214.886719 C 149.597656 214.886719 149.214844 214.808594 148.847656 214.65625 C 148.476562 214.503906 148.152344 214.285156 147.871094 214 L 144.128906 210.257812 C 143.847656 209.980469 143.628906 209.65625 143.476562 209.289062 C 143.324219 208.921875 143.246094 208.539062 143.246094 208.144531 C 143.246094 207.746094 143.324219 207.363281 143.476562 206.996094 C 143.628906 206.628906 143.847656 206.308594 144.128906 206.027344 L 146 204.15625 L 146.28125 204.4375 L 153.375 211.511719 Z M 153.992188 212.128906 " fill-opacity="1" fill-rule="nonzero"/></g><path fill="#f8f6f7" d="M 211.023438 164.289062 L 205.785156 164.289062 C 205.535156 164.289062 205.296875 164.242188 205.066406 164.144531 C 204.839844 164.050781 204.636719 163.914062 204.460938 163.738281 C 204.285156 163.566406 204.148438 163.363281 204.054688 163.132812 C 203.960938 162.902344 203.914062 162.664062 203.914062 162.417969 L 203.914062 149.316406 C 203.914062 149.066406 203.960938 148.828125 204.054688 148.597656 C 204.148438 148.367188 204.285156 148.167969 204.460938 147.992188 C 204.636719 147.816406 204.839844 147.679688 205.066406 147.585938 C 205.296875 147.492188 205.535156 147.441406 205.785156 147.441406 L 211.023438 147.441406 C 211.296875 147.445312 211.5625 147.472656 211.828125 147.523438 C 212.089844 147.578125 212.347656 147.65625 212.597656 147.761719 C 212.847656 147.863281 213.082031 147.992188 213.308594 148.140625 C 213.53125 148.292969 213.742188 148.464844 213.929688 148.65625 C 214.121094 148.84375 214.292969 149.054688 214.441406 149.277344 C 214.59375 149.5 214.71875 149.738281 214.824219 149.988281 C 214.929688 150.238281 215.007812 150.492188 215.0625 150.757812 C 215.113281 151.023438 215.140625 151.289062 215.144531 151.5625 L 215.144531 160.171875 C 215.140625 160.441406 215.113281 160.707031 215.0625 160.972656 C 215.007812 161.238281 214.929688 161.496094 214.824219 161.742188 C 214.71875 161.992188 214.59375 162.230469 214.441406 162.453125 C 214.292969 162.679688 214.121094 162.886719 213.929688 163.078125 C 213.742188 163.269531 213.53125 163.4375 213.308594 163.589844 C 213.082031 163.738281 212.847656 163.867188 212.597656 163.96875 C 212.347656 164.074219 212.089844 164.152344 211.828125 164.207031 C 211.5625 164.261719 211.296875 164.289062 211.023438 164.289062 Z M 207.65625 160.546875 L 211.023438 160.546875 C 211.128906 160.546875 211.214844 160.507812 211.289062 160.433594 C 211.363281 160.363281 211.398438 160.273438 211.398438 160.171875 L 211.398438 151.5625 C 211.398438 151.457031 211.363281 151.367188 211.289062 151.296875 C 211.214844 151.222656 211.128906 151.1875 211.023438 151.1875 L 207.65625 151.1875 Z M 207.65625 160.546875 " fill-opacity="1" fill-rule="nonzero"/><path fill="#f8f6f7" d="M 200.167969 162.003906 L 197.472656 150.027344 C 197.425781 149.84375 197.355469 149.667969 197.269531 149.5 C 197.175781 149.347656 197.078125 149.195312 196.964844 149.054688 C 196.855469 148.910156 196.738281 148.777344 196.609375 148.648438 C 196.480469 148.523438 196.347656 148.40625 196.203125 148.296875 C 196.058594 148.1875 195.910156 148.085938 195.753906 147.996094 C 195.597656 147.90625 195.4375 147.828125 195.269531 147.757812 C 195.105469 147.691406 194.933594 147.632812 194.761719 147.585938 C 194.585938 147.539062 194.410156 147.503906 194.230469 147.480469 C 194.050781 147.457031 193.871094 147.445312 193.691406 147.445312 C 193.511719 147.445312 193.332031 147.457031 193.15625 147.480469 C 192.976562 147.503906 192.800781 147.539062 192.625 147.585938 C 192.453125 147.632812 192.28125 147.691406 192.113281 147.757812 C 191.949219 147.828125 191.785156 147.90625 191.628906 147.996094 C 191.476562 148.085938 191.324219 148.1875 191.183594 148.296875 C 191.039062 148.40625 190.902344 148.523438 190.777344 148.648438 C 190.648438 148.777344 190.527344 148.910156 190.417969 149.054688 C 190.308594 149.195312 190.207031 149.347656 190.117188 149.5 C 190.03125 149.660156 189.96875 149.828125 189.929688 150.007812 L 187.066406 162.003906 C 187.003906 162.253906 186.996094 162.503906 187.039062 162.757812 C 187.078125 163.007812 187.167969 163.242188 187.308594 163.460938 C 187.445312 163.675781 187.621094 163.855469 187.832031 164 C 188.042969 164.144531 188.273438 164.238281 188.527344 164.289062 C 188.664062 164.308594 188.800781 164.308594 188.9375 164.289062 C 189.15625 164.292969 189.367188 164.261719 189.570312 164.195312 C 189.777344 164.125 189.964844 164.027344 190.136719 163.894531 C 190.304688 163.761719 190.449219 163.601562 190.566406 163.417969 C 190.679688 163.238281 190.761719 163.039062 190.808594 162.828125 L 191.726562 158.671875 L 195.472656 158.671875 L 196.425781 162.828125 C 196.480469 163.078125 196.578125 163.304688 196.726562 163.511719 C 196.871094 163.722656 197.050781 163.894531 197.265625 164.03125 C 197.480469 164.167969 197.710938 164.257812 197.960938 164.304688 C 198.210938 164.347656 198.460938 164.34375 198.710938 164.289062 C 198.957031 164.234375 199.1875 164.132812 199.394531 163.988281 C 199.601562 163.84375 199.773438 163.664062 199.914062 163.449219 C 200.050781 163.234375 200.140625 163.003906 200.183594 162.753906 C 200.230469 162.503906 200.222656 162.253906 200.167969 162.003906 Z M 192.683594 154.929688 L 193.542969 151.1875 C 193.679688 151.105469 193.816406 151.105469 193.953125 151.1875 L 194.796875 154.929688 Z M 192.683594 154.929688 " fill-opacity="1" fill-rule="nonzero"/><path fill="#fbe639" d="M 175.835938 175.519531 C 175.589844 175.519531 175.347656 175.472656 175.121094 175.375 C 174.890625 175.28125 174.6875 175.144531 174.511719 174.96875 C 174.335938 174.796875 174.203125 174.59375 174.105469 174.363281 C 174.011719 174.132812 173.964844 173.894531 173.964844 173.648438 L 173.964844 166.160156 C 173.964844 165.910156 174.011719 165.671875 174.105469 165.445312 C 174.203125 165.214844 174.335938 165.011719 174.511719 164.835938 C 174.6875 164.660156 174.890625 164.527344 175.121094 164.429688 C 175.347656 164.335938 175.589844 164.289062 175.835938 164.289062 C 176.085938 164.289062 176.324219 164.335938 176.550781 164.429688 C 176.78125 164.527344 176.984375 164.660156 177.160156 164.835938 C 177.335938 165.011719 177.46875 165.214844 177.566406 165.445312 C 177.660156 165.671875 177.707031 165.910156 177.707031 166.160156 L 177.707031 173.648438 C 177.707031 173.894531 177.660156 174.132812 177.566406 174.363281 C 177.46875 174.59375 177.335938 174.796875 177.160156 174.96875 C 176.984375 175.144531 176.78125 175.28125 176.550781 175.375 C 176.324219 175.472656 176.085938 175.519531 175.835938 175.519531 Z M 175.835938 175.519531 " fill-opacity="1" fill-rule="nonzero"/><path fill="#fbe639" d="M 194.554688 186.75 L 187.066406 186.75 C 186.820312 186.75 186.578125 186.703125 186.351562 186.605469 C 186.121094 186.511719 185.917969 186.375 185.742188 186.199219 C 185.566406 186.027344 185.433594 185.824219 185.335938 185.59375 C 185.242188 185.363281 185.195312 185.125 185.195312 184.878906 C 185.195312 184.628906 185.242188 184.390625 185.335938 184.160156 C 185.433594 183.933594 185.566406 183.730469 185.742188 183.554688 C 185.917969 183.378906 186.121094 183.242188 186.351562 183.148438 C 186.578125 183.054688 186.820312 183.003906 187.066406 183.003906 L 194.554688 183.003906 C 194.800781 183.003906 195.039062 183.054688 195.269531 183.148438 C 195.5 183.242188 195.703125 183.378906 195.878906 183.554688 C 196.054688 183.730469 196.1875 183.933594 196.28125 184.160156 C 196.378906 184.390625 196.425781 184.628906 196.425781 184.878906 C 196.425781 185.125 196.378906 185.363281 196.28125 185.59375 C 196.1875 185.824219 196.054688 186.027344 195.878906 186.199219 C 195.703125 186.375 195.5 186.511719 195.269531 186.605469 C 195.039062 186.703125 194.800781 186.75 194.554688 186.75 Z M 194.554688 186.75 " fill-opacity="1" fill-rule="nonzero"/><g clip-path="url(#d1c69e8f9a)"><path fill="#db2f14" d="M 24.226562 143.363281 L 44.46875 153.125 L 30.777344 181.070312 L 24.613281 167.847656 L 10.539062 171.308594 L 24.226562 143.363281 " fill-opacity="1" fill-rule="evenodd"/></g><path fill="#ff430e" d="M 27.191406 145.066406 L 41.300781 151.601562 L 30.960938 173.070312 L 26.960938 163.601562 L 16.597656 166.386719 L 27.191406 145.066406 " fill-opacity="1" fill-rule="evenodd"/><g clip-path="url(#54ebedc95e)"><path fill="#db2f14" d="M 48.46875 142.925781 L 28.265625 152.761719 L 42.054688 180.65625 L 48.171875 167.414062 L 62.261719 170.824219 L 48.46875 142.925781 " fill-opacity="1" fill-rule="evenodd"/></g><path fill="#ff430e" d="M 45.511719 144.640625 L 31.425781 151.226562 L 41.84375 172.660156 L 45.8125 163.175781 L 56.183594 165.925781 L 45.511719 144.640625 " fill-opacity="1" fill-rule="evenodd"/><g clip-path="url(#ec7b24ebc4)"><path fill="#ffc50d" d="M 36.398438 119.605469 C 47.335938 119.605469 56.214844 128.414062 56.214844 139.265625 C 56.214844 150.121094 47.335938 158.929688 36.398438 158.929688 C 25.464844 158.929688 16.582031 150.121094 16.582031 139.265625 C 16.582031 128.414062 25.464844 119.605469 36.398438 119.605469 " fill-opacity="1" fill-rule="evenodd"/></g><path fill="#f59f0a" d="M 36.398438 123.839844 C 44.835938 123.839844 51.683594 130.753906 51.683594 139.265625 C 51.683594 147.78125 44.835938 154.695312 36.398438 154.695312 C 27.964844 154.695312 21.117188 147.78125 21.117188 139.265625 C 21.117188 130.753906 27.964844 123.839844 36.398438 123.839844 " fill-opacity="1" fill-rule="evenodd"/><path fill="#faf29f" d="M 23.652344 130.347656 C 23.671875 130.28125 23.738281 130.234375 23.816406 130.234375 C 23.890625 130.234375 23.957031 130.28125 23.980469 130.347656 L 24.609375 132.214844 L 26.652344 132.792969 C 26.722656 132.8125 26.773438 132.875 26.773438 132.945312 C 26.773438 133.011719 26.722656 133.074219 26.652344 133.09375 L 24.609375 133.671875 L 23.980469 135.542969 C 23.957031 135.609375 23.890625 135.652344 23.816406 135.652344 C 23.738281 135.652344 23.671875 135.609375 23.652344 135.542969 L 23.019531 133.671875 L 20.980469 133.09375 C 20.90625 133.074219 20.859375 133.011719 20.859375 132.945312 C 20.859375 132.875 20.90625 132.8125 20.980469 132.792969 L 23.019531 132.214844 L 23.652344 130.347656 " fill-opacity="1" fill-rule="evenodd"/><path fill="#faf29f" d="M 48.691406 145.390625 C 48.714844 145.324219 48.78125 145.277344 48.859375 145.277344 C 48.933594 145.277344 49 145.324219 49.023438 145.390625 L 49.664062 147.289062 L 51.734375 147.875 C 51.808594 147.898438 51.859375 147.957031 51.859375 148.027344 C 51.859375 148.097656 51.808594 148.160156 51.734375 148.179688 L 49.664062 148.765625 L 49.023438 150.664062 C 49 150.730469 48.933594 150.777344 48.859375 150.777344 C 48.78125 150.777344 48.714844 150.730469 48.691406 150.664062 L 48.050781 148.765625 L 45.980469 148.179688 C 45.90625 148.160156 45.855469 148.097656 45.855469 148.027344 C 45.855469 147.957031 45.90625 147.898438 45.980469 147.875 L 48.050781 147.289062 L 48.691406 145.390625 " fill-opacity="1" fill-rule="evenodd"/><path fill="#faf29f" d="M 20.691406 134.191406 C 20.707031 134.144531 20.75 134.117188 20.800781 134.117188 C 20.851562 134.117188 20.898438 134.144531 20.910156 134.191406 L 21.335938 135.445312 L 22.707031 135.832031 C 22.753906 135.847656 22.785156 135.886719 22.785156 135.933594 C 22.785156 135.980469 22.753906 136.019531 22.707031 136.035156 L 21.335938 136.421875 L 20.910156 137.675781 C 20.898438 137.722656 20.851562 137.753906 20.800781 137.753906 C 20.75 137.753906 20.707031 137.722656 20.691406 137.675781 L 20.269531 136.421875 L 18.898438 136.035156 C 18.851562 136.019531 18.816406 135.980469 18.816406 135.933594 C 18.816406 135.886719 18.851562 135.847656 18.898438 135.832031 L 20.269531 135.445312 L 20.691406 134.191406 " fill-opacity="1" fill-rule="evenodd"/><path fill="#faf29f" d="M 51.648438 142.265625 C 51.664062 142.21875 51.714844 142.183594 51.769531 142.183594 C 51.824219 142.183594 51.875 142.21875 51.890625 142.265625 L 52.355469 143.644531 L 53.855469 144.066406 C 53.910156 144.082031 53.945312 144.128906 53.945312 144.179688 C 53.945312 144.230469 53.910156 144.273438 53.855469 144.289062 L 52.355469 144.714844 L 51.890625 146.089844 C 51.875 146.140625 51.824219 146.171875 51.769531 146.171875 C 51.714844 146.171875 51.664062 146.140625 51.648438 146.089844 L 51.183594 144.714844 L 49.683594 144.289062 C 49.628906 144.273438 49.59375 144.230469 49.59375 144.179688 C 49.59375 144.128906 49.628906 144.082031 49.683594 144.066406 L 51.183594 143.644531 L 51.648438 142.265625 " fill-opacity="1" fill-rule="evenodd"/><path fill="#faf29f" d="M 34.996094 145.921875 C 34.996094 147.238281 36.09375 147.9375 37.246094 147.929688 C 38.394531 147.917969 39.484375 147.199219 39.484375 145.921875 L 39.484375 133.246094 C 39.484375 132.113281 39.074219 131.429688 38.550781 131.074219 C 37.996094 130.695312 37.25 130.644531 36.460938 130.980469 C 36.464844 130.976562 33.277344 132.144531 33.277344 132.144531 C 32.371094 132.445312 31.90625 133.03125 31.730469 133.648438 C 31.320312 135.117188 32.679688 136.914062 34.59375 136.296875 C 34.609375 136.292969 34.625 136.285156 34.640625 136.28125 L 34.996094 136.140625 L 34.996094 145.921875 " fill-opacity="1" fill-rule="nonzero"/></svg>