<svg xmlns="http://www.w3.org/2000/svg" xmlns:xlink="http://www.w3.org/1999/xlink" width="50" zoomAndPan="magnify" viewBox="0 0 37.5 37.499999" height="50" preserveAspectRatio="xMidYMid meet" version="1.0"><defs><clipPath id="82306b44ec"><path d="M 13 5 L 35.777344 5 L 35.777344 19 L 13 19 Z M 13 5 " clip-rule="nonzero"/></clipPath><clipPath id="82902ea05e"><path d="M 0.992188 17 L 21 17 L 21 33.273438 L 0.992188 33.273438 Z M 0.992188 17 " clip-rule="nonzero"/></clipPath><clipPath id="c2d97d2954"><path d="M 5 26 L 6 26 L 6 33.273438 L 5 33.273438 Z M 5 26 " clip-rule="nonzero"/></clipPath><clipPath id="6cbb254f4f"><path d="M 16 26 L 17 26 L 17 33.273438 L 16 33.273438 Z M 16 26 " clip-rule="nonzero"/></clipPath><clipPath id="933f792f5e"><path d="M 4 3.667969 L 17 3.667969 L 17 19 L 4 19 Z M 4 3.667969 " clip-rule="nonzero"/></clipPath></defs><g clip-path="url(#82306b44ec)"><path fill="#000000" d="M 33.65625 18.515625 L 20.238281 18.515625 C 19.070312 18.515625 18.121094 17.558594 18.121094 16.382812 L 18.121094 16.148438 L 13.648438 16.148438 C 13.488281 16.148438 13.339844 16.046875 13.28125 15.894531 C 13.222656 15.738281 13.265625 15.566406 13.390625 15.457031 L 18.121094 11.234375 L 18.121094 7.46875 C 18.121094 6.292969 19.070312 5.335938 20.242188 5.335938 L 33.65625 5.335938 C 34.824219 5.335938 35.773438 6.292969 35.773438 7.46875 L 35.773438 16.386719 C 35.773438 17.558594 34.824219 18.515625 33.65625 18.515625 Z M 14.6875 15.355469 L 18.515625 15.355469 C 18.730469 15.355469 18.90625 15.535156 18.90625 15.753906 L 18.90625 16.382812 C 18.90625 17.125 19.503906 17.722656 20.238281 17.722656 L 33.65625 17.722656 C 34.390625 17.722656 34.988281 17.125 34.988281 16.382812 L 34.988281 7.46875 C 34.988281 6.726562 34.390625 6.125 33.65625 6.125 L 20.238281 6.125 C 19.503906 6.125 18.90625 6.726562 18.90625 7.46875 L 18.90625 11.414062 C 18.90625 11.527344 18.859375 11.632812 18.777344 11.707031 Z M 14.6875 15.355469 " fill-opacity="1" fill-rule="nonzero"/></g><path fill="#000000" d="M 32.59375 15.128906 L 21.300781 15.128906 C 21.082031 15.128906 20.90625 14.949219 20.90625 14.730469 C 20.90625 14.511719 21.082031 14.335938 21.300781 14.335938 L 32.597656 14.335938 C 32.8125 14.335938 32.988281 14.511719 32.988281 14.730469 C 32.988281 14.949219 32.8125 15.128906 32.59375 15.128906 Z M 32.59375 15.128906 " fill-opacity="1" fill-rule="nonzero"/><path fill="#000000" d="M 32.59375 12.320312 L 21.300781 12.320312 C 21.082031 12.320312 20.90625 12.144531 20.90625 11.925781 C 20.90625 11.707031 21.082031 11.53125 21.300781 11.53125 L 32.597656 11.53125 C 32.8125 11.53125 32.988281 11.707031 32.988281 11.925781 C 32.988281 12.144531 32.8125 12.320312 32.59375 12.320312 Z M 32.59375 12.320312 " fill-opacity="1" fill-rule="nonzero"/><path fill="#000000" d="M 32.59375 9.515625 L 21.300781 9.515625 C 21.082031 9.515625 20.90625 9.335938 20.90625 9.121094 C 20.90625 8.902344 21.082031 8.722656 21.300781 8.722656 L 32.597656 8.722656 C 32.8125 8.722656 32.988281 8.902344 32.988281 9.121094 C 32.988281 9.335938 32.8125 9.515625 32.59375 9.515625 Z M 32.59375 9.515625 " fill-opacity="1" fill-rule="nonzero"/><g clip-path="url(#82902ea05e)"><path fill="#000000" d="M 20.4375 33.261719 L 1.382812 33.261719 C 1.164062 33.261719 0.988281 33.082031 0.988281 32.863281 L 0.988281 27.390625 C 0.988281 23.261719 4.257812 19.882812 8.332031 19.742188 L 8.332031 18.078125 C 8.332031 17.859375 8.507812 17.679688 8.726562 17.679688 C 8.941406 17.679688 9.121094 17.859375 9.121094 18.078125 L 9.121094 20.132812 C 9.121094 20.351562 8.941406 20.527344 8.726562 20.527344 L 8.597656 20.527344 C 4.835938 20.527344 1.773438 23.609375 1.773438 27.390625 L 1.773438 32.46875 L 20.042969 32.46875 L 20.042969 27.390625 C 20.042969 23.609375 16.980469 20.527344 13.21875 20.527344 L 13.09375 20.527344 C 12.875 20.527344 12.699219 20.351562 12.699219 20.132812 L 12.699219 18.078125 C 12.699219 17.859375 12.875 17.679688 13.09375 17.679688 C 13.308594 17.679688 13.484375 17.859375 13.484375 18.078125 L 13.484375 19.742188 C 17.558594 19.882812 20.832031 23.261719 20.832031 27.390625 L 20.832031 32.863281 C 20.832031 33.085938 20.652344 33.261719 20.4375 33.261719 Z M 20.4375 33.261719 " fill-opacity="1" fill-rule="nonzero"/></g><path fill="#000000" d="M 10.910156 23.273438 C 9.0625 23.273438 7.375 22.179688 6.609375 20.484375 C 6.519531 20.285156 6.605469 20.050781 6.804688 19.960938 C 7.003906 19.871094 7.238281 19.957031 7.328125 20.15625 C 7.960938 21.570312 9.367188 22.480469 10.910156 22.480469 C 12.449219 22.480469 13.855469 21.570312 14.492188 20.15625 C 14.582031 19.957031 14.8125 19.871094 15.011719 19.960938 C 15.210938 20.050781 15.296875 20.285156 15.207031 20.484375 C 14.445312 22.179688 12.757812 23.273438 10.910156 23.273438 Z M 10.910156 23.273438 " fill-opacity="1" fill-rule="nonzero"/><path fill="#000000" d="M 14.636719 10.480469 C 13.683594 10.480469 12.476562 10.230469 11.1875 9.34375 C 8.714844 7.640625 5.585938 9.996094 5.554688 10.019531 C 5.382812 10.152344 5.132812 10.117188 5 9.945312 C 4.871094 9.773438 4.902344 9.523438 5.074219 9.390625 C 5.222656 9.277344 8.6875 6.664062 11.628906 8.6875 C 14.152344 10.425781 16.304688 9.363281 16.324219 9.351562 C 16.519531 9.253906 16.757812 9.332031 16.855469 9.527344 C 16.953125 9.722656 16.875 9.960938 16.679688 10.058594 C 16.621094 10.089844 15.828125 10.480469 14.636719 10.480469 Z M 14.636719 10.480469 " fill-opacity="1" fill-rule="nonzero"/><g clip-path="url(#c2d97d2954)"><path fill="#000000" d="M 5.421875 33.261719 C 5.207031 33.261719 5.03125 33.082031 5.03125 32.863281 L 5.03125 27.019531 C 5.03125 26.800781 5.207031 26.625 5.421875 26.625 C 5.640625 26.625 5.816406 26.800781 5.816406 27.019531 L 5.816406 32.863281 C 5.816406 33.085938 5.640625 33.261719 5.421875 33.261719 Z M 5.421875 33.261719 " fill-opacity="1" fill-rule="nonzero"/></g><g clip-path="url(#6cbb254f4f)"><path fill="#000000" d="M 16.394531 33.261719 C 16.175781 33.261719 16 33.082031 16 32.863281 L 16 27.019531 C 16 26.800781 16.175781 26.625 16.394531 26.625 C 16.613281 26.625 16.789062 26.800781 16.789062 27.019531 L 16.789062 32.863281 C 16.789062 33.085938 16.613281 33.261719 16.394531 33.261719 Z M 16.394531 33.261719 " fill-opacity="1" fill-rule="nonzero"/></g><g clip-path="url(#933f792f5e)"><path fill="#000000" d="M 10.910156 18.921875 C 7.609375 18.921875 4.921875 16.222656 4.921875 12.898438 L 4.921875 9.707031 C 4.921875 6.386719 7.609375 3.683594 10.910156 3.683594 C 14.210938 3.683594 16.898438 6.386719 16.898438 9.707031 L 16.898438 12.898438 C 16.898438 13.007812 16.894531 13.121094 16.886719 13.238281 C 16.875 13.457031 16.6875 13.621094 16.472656 13.609375 C 16.253906 13.597656 16.089844 13.410156 16.101562 13.191406 C 16.105469 13.09375 16.109375 12.996094 16.109375 12.898438 L 16.109375 9.707031 C 16.109375 6.820312 13.777344 4.476562 10.910156 4.476562 C 8.042969 4.476562 5.710938 6.820312 5.710938 9.707031 L 5.710938 12.898438 C 5.710938 15.785156 8.042969 18.132812 10.910156 18.132812 C 12.734375 18.132812 14.449219 17.140625 15.386719 15.550781 C 15.5 15.363281 15.738281 15.300781 15.925781 15.414062 C 16.113281 15.523438 16.175781 15.765625 16.0625 15.953125 C 14.984375 17.785156 13.007812 18.921875 10.910156 18.921875 Z M 10.910156 18.921875 " fill-opacity="1" fill-rule="nonzero"/></g></svg>