<svg xmlns="http://www.w3.org/2000/svg" xmlns:xlink="http://www.w3.org/1999/xlink" width="300" zoomAndPan="magnify" viewBox="0 0 224.87999 225" height="300" preserveAspectRatio="xMidYMid meet" version="1.0"><defs><clipPath id="f628d2e470"><path d="M 4.117188 40 L 220.753906 40 L 220.753906 59 L 4.117188 59 Z M 4.117188 40 " clip-rule="nonzero"/></clipPath><clipPath id="1a89686f6e"><path d="M 12 4.179688 L 214 4.179688 L 214 32 L 12 32 Z M 12 4.179688 " clip-rule="nonzero"/></clipPath><clipPath id="28cf4f305c"><path d="M 9 211 L 216 211 L 216 220.8125 L 9 220.8125 Z M 9 211 " clip-rule="nonzero"/></clipPath><clipPath id="3dc3837887"><path d="M 178 145.570312 L 217.164062 145.570312 L 217.164062 183 L 178 183 Z M 178 145.570312 " clip-rule="nonzero"/></clipPath><clipPath id="2f3cdd403a"><path d="M 139.953125 179 L 180 179 L 180 224.9375 L 139.953125 224.9375 Z M 139.953125 179 " clip-rule="nonzero"/></clipPath><clipPath id="0ce89d2594"><path d="M 156 211 L 172 211 L 172 224.9375 L 156 224.9375 Z M 156 211 " clip-rule="nonzero"/></clipPath><clipPath id="2374a887ff"><path d="M 139.953125 208 L 151 208 L 151 220 L 139.953125 220 Z M 139.953125 208 " clip-rule="nonzero"/></clipPath><clipPath id="a911c673e7"><path d="M 10.539062 143 L 45 143 L 45 181.070312 L 10.539062 181.070312 Z M 10.539062 143 " clip-rule="nonzero"/></clipPath><clipPath id="9b0e31ef71"><path d="M 28 142 L 62.261719 142 L 62.261719 181 L 28 181 Z M 28 142 " clip-rule="nonzero"/></clipPath><clipPath id="3cf2652138"><path d="M 16 119.605469 L 57 119.605469 L 57 159 L 16 159 Z M 16 119.605469 " clip-rule="nonzero"/></clipPath></defs><path fill="#167a65" d="M 23.976562 56.984375 C 22.621094 56.984375 21.71875 56.984375 20.816406 57.433594 C 18.558594 58.335938 16.304688 58.789062 14.046875 58.789062 C 13.59375 58.789062 13.59375 58.789062 13.144531 58.789062 L 13.144531 130.097656 L 9.535156 130.097656 L 9.535156 139.125 L 215.789062 139.125 L 215.789062 130.097656 L 211.726562 130.097656 L 211.726562 58.789062 C 209.921875 58.789062 208.117188 58.335938 206.308594 57.433594 C 205.40625 56.984375 204.503906 56.984375 203.152344 56.984375 C 200.894531 56.984375 199.539062 57.433594 198.1875 58.335938 L 198.1875 129.644531 L 26.683594 129.644531 L 26.683594 57.433594 C 25.78125 56.984375 24.878906 56.984375 23.976562 56.984375 Z M 23.976562 56.984375 " fill-opacity="1" fill-rule="nonzero"/><g clip-path="url(#f628d2e470)"><path fill="#167a65" d="M 4.117188 40.285156 C 4.117188 48.859375 12.691406 54.273438 20.367188 51.117188 C 33.453125 46.152344 36.160156 58.789062 47.445312 58.789062 C 58.277344 58.789062 58.277344 50.210938 69.109375 50.210938 C 79.941406 50.210938 79.941406 58.789062 90.773438 58.789062 C 101.601562 58.789062 101.601562 50.210938 112.433594 50.210938 C 123.265625 50.210938 123.265625 58.789062 134.097656 58.789062 C 144.929688 58.789062 144.929688 50.210938 155.761719 50.210938 C 166.59375 50.210938 166.59375 58.789062 177.425781 58.789062 C 189.160156 58.789062 190.964844 46.152344 204.503906 51.117188 C 212.175781 54.273438 220.753906 48.859375 220.753906 40.285156 Z M 4.117188 40.285156 " fill-opacity="1" fill-rule="nonzero"/></g><g clip-path="url(#1a89686f6e)"><path fill="#167a65" d="M 36.160156 4.179688 C 36.160156 4.179688 23.523438 20.425781 12.242188 31.257812 L 213.078125 31.257812 C 201.796875 20.425781 188.707031 4.179688 188.707031 4.179688 Z M 36.160156 4.179688 " fill-opacity="1" fill-rule="nonzero"/></g><g clip-path="url(#28cf4f305c)"><path fill="#167a65" d="M 9.535156 211.785156 L 215.789062 211.785156 L 215.789062 220.8125 L 9.535156 220.8125 Z M 9.535156 211.785156 " fill-opacity="1" fill-rule="nonzero"/></g><path fill="#167a65" d="M 13.144531 145.894531 L 211.273438 145.894531 L 211.273438 205.015625 L 13.144531 205.015625 Z M 13.144531 145.894531 " fill-opacity="1" fill-rule="nonzero"/><g clip-path="url(#3dc3837887)"><path fill="#4b70f6" d="M 213.703125 145.945312 L 181.882812 145.945312 C 181.386719 145.945312 180.90625 146.039062 180.449219 146.230469 C 179.992188 146.421875 179.585938 146.691406 179.234375 147.042969 C 178.882812 147.394531 178.613281 147.796875 178.421875 148.257812 C 178.234375 148.714844 178.136719 149.191406 178.136719 149.6875 L 178.136719 170.277344 C 178.136719 170.773438 178.234375 171.253906 178.421875 171.710938 C 178.613281 172.167969 178.882812 172.574219 179.234375 172.925781 C 179.585938 173.277344 179.992188 173.546875 180.449219 173.738281 C 180.90625 173.925781 181.386719 174.023438 181.882812 174.023438 L 186.1875 174.023438 L 180.945312 182.519531 L 203.78125 174.023438 L 213.703125 174.023438 C 214.199219 174.023438 214.675781 173.925781 215.132812 173.738281 C 215.59375 173.546875 215.996094 173.277344 216.347656 172.925781 C 216.699219 172.574219 216.96875 172.167969 217.160156 171.710938 C 217.351562 171.253906 217.445312 170.773438 217.445312 170.277344 L 217.445312 149.6875 C 217.445312 149.191406 217.351562 148.714844 217.160156 148.257812 C 216.96875 147.796875 216.699219 147.394531 216.347656 147.042969 C 215.996094 146.691406 215.59375 146.421875 215.132812 146.230469 C 214.675781 146.039062 214.199219 145.945312 213.703125 145.945312 Z M 213.703125 145.945312 " fill-opacity="1" fill-rule="nonzero"/></g><g clip-path="url(#2f3cdd403a)"><path fill="#f47f8f" d="M 178.585938 199.160156 L 174.507812 195.078125 L 176.378906 193.207031 C 176.648438 192.917969 176.851562 192.589844 176.988281 192.222656 C 177.128906 191.851562 177.191406 191.472656 177.179688 191.078125 C 177.171875 190.683594 177.085938 190.308594 176.929688 189.945312 C 176.769531 189.585938 176.550781 189.269531 176.265625 188.996094 L 171.289062 184.015625 C 171.003906 183.734375 170.675781 183.515625 170.304688 183.359375 C 169.933594 183.207031 169.546875 183.128906 169.144531 183.128906 C 168.742188 183.128906 168.355469 183.207031 167.984375 183.359375 C 167.613281 183.515625 167.285156 183.734375 167 184.015625 L 165.128906 185.886719 L 159.421875 180.03125 C 159.183594 179.785156 158.910156 179.585938 158.605469 179.429688 C 158.304688 179.273438 157.984375 179.171875 157.648438 179.117188 C 157.3125 179.0625 156.972656 179.0625 156.636719 179.117188 C 156.300781 179.171875 155.980469 179.273438 155.675781 179.429688 C 155.148438 179.722656 154.769531 180.148438 154.535156 180.703125 L 151.933594 185.851562 L 148.023438 193.84375 L 145.402344 199.007812 L 142.371094 205.015625 C 142.238281 205.3125 142.148438 205.621094 142.109375 205.945312 C 142.070312 206.265625 142.082031 206.585938 142.140625 206.90625 C 142.199219 207.226562 142.304688 207.53125 142.453125 207.816406 C 142.605469 208.105469 142.796875 208.363281 143.023438 208.59375 L 142.742188 208.3125 L 140.871094 210.183594 C 140.589844 210.464844 140.371094 210.785156 140.21875 211.152344 C 140.066406 211.519531 139.988281 211.902344 139.988281 212.296875 C 139.988281 212.695312 140.066406 213.078125 140.21875 213.445312 C 140.371094 213.8125 140.589844 214.132812 140.871094 214.414062 L 144.617188 218.15625 C 144.898438 218.441406 145.222656 218.65625 145.589844 218.8125 C 145.957031 218.964844 146.339844 219.042969 146.738281 219.042969 C 147.140625 219.042969 147.523438 218.964844 147.890625 218.8125 C 148.257812 218.65625 148.582031 218.441406 148.863281 218.15625 L 150.734375 216.285156 L 150.0625 215.628906 C 150.535156 216.085938 151.089844 216.371094 151.738281 216.480469 C 152.382812 216.59375 153.003906 216.515625 153.601562 216.246094 L 156.929688 214.5625 L 165.804688 223.433594 C 165.929688 223.597656 166.074219 223.746094 166.234375 223.878906 C 166.394531 224.011719 166.566406 224.125 166.75 224.222656 C 166.933594 224.316406 167.128906 224.390625 167.328125 224.445312 C 167.53125 224.496094 167.734375 224.527344 167.941406 224.539062 C 168.148438 224.546875 168.355469 224.53125 168.558594 224.496094 C 168.761719 224.460938 168.960938 224.402344 169.152344 224.324219 C 169.34375 224.246094 169.527344 224.148438 169.699219 224.027344 C 169.867188 223.910156 170.023438 223.773438 170.164062 223.621094 C 170.320312 223.488281 170.460938 223.339844 170.578125 223.175781 C 170.699219 223.007812 170.796875 222.832031 170.875 222.640625 C 170.953125 222.453125 171.003906 222.253906 171.035156 222.050781 C 171.066406 221.851562 171.070312 221.644531 171.050781 221.441406 C 171.03125 221.238281 170.988281 221.039062 170.921875 220.847656 C 170.855469 220.652344 170.765625 220.46875 170.652344 220.296875 C 170.542969 220.125 170.410156 219.96875 170.261719 219.828125 C 170.113281 219.6875 169.949219 219.566406 169.773438 219.46875 L 162.285156 211.980469 L 172.839844 206.644531 L 177.914062 203.96875 C 178.46875 203.738281 178.894531 203.355469 179.1875 202.828125 C 179.332031 202.527344 179.433594 202.214844 179.480469 201.886719 C 179.53125 201.554688 179.527344 201.226562 179.472656 200.898438 C 179.421875 200.570312 179.316406 200.253906 179.167969 199.957031 C 179.015625 199.664062 178.824219 199.394531 178.585938 199.160156 Z M 178.585938 199.160156 " fill-opacity="1" fill-rule="nonzero"/></g><path fill="#f8f6f7" d="M 178.585938 199.160156 C 178.832031 199.398438 179.03125 199.667969 179.1875 199.972656 C 179.34375 200.277344 179.445312 200.597656 179.5 200.933594 C 179.554688 201.269531 179.554688 201.605469 179.5 201.941406 C 179.449219 202.277344 179.34375 202.597656 179.1875 202.902344 C 178.894531 203.429688 178.46875 203.8125 177.914062 204.042969 L 172.765625 206.644531 L 152.046875 185.851562 L 154.648438 180.703125 C 154.882812 180.148438 155.261719 179.722656 155.789062 179.429688 C 156.09375 179.273438 156.414062 179.171875 156.75 179.117188 C 157.085938 179.0625 157.421875 179.0625 157.761719 179.117188 C 158.097656 179.171875 158.417969 179.273438 158.71875 179.429688 C 159.023438 179.585938 159.292969 179.785156 159.535156 180.03125 L 174.582031 195.078125 Z M 178.585938 199.160156 " fill-opacity="1" fill-rule="nonzero"/><g clip-path="url(#0ce89d2594)"><path fill="#f8f6f7" d="M 169.773438 219.46875 C 169.949219 219.566406 170.113281 219.6875 170.261719 219.828125 C 170.410156 219.96875 170.542969 220.125 170.652344 220.296875 C 170.765625 220.46875 170.855469 220.652344 170.921875 220.847656 C 170.988281 221.039062 171.03125 221.238281 171.050781 221.441406 C 171.070312 221.644531 171.066406 221.851562 171.035156 222.050781 C 171.003906 222.253906 170.953125 222.453125 170.875 222.640625 C 170.796875 222.832031 170.699219 223.007812 170.578125 223.175781 C 170.460938 223.339844 170.320312 223.488281 170.164062 223.621094 C 170.023438 223.773438 169.867188 223.910156 169.699219 224.027344 C 169.527344 224.148438 169.34375 224.246094 169.152344 224.324219 C 168.960938 224.402344 168.761719 224.460938 168.558594 224.496094 C 168.355469 224.53125 168.148438 224.546875 167.941406 224.539062 C 167.734375 224.527344 167.53125 224.496094 167.328125 224.445312 C 167.128906 224.390625 166.933594 224.316406 166.75 224.222656 C 166.566406 224.125 166.394531 224.011719 166.234375 223.878906 C 166.074219 223.746094 165.929688 223.597656 165.804688 223.433594 L 156.929688 214.5625 L 162.210938 211.90625 Z M 169.773438 219.46875 " fill-opacity="1" fill-rule="nonzero"/></g><g clip-path="url(#2374a887ff)"><path fill="#98d6fc" d="M 150.679688 216.246094 L 148.808594 218.121094 C 148.527344 218.402344 148.203125 218.621094 147.835938 218.773438 C 147.464844 218.925781 147.082031 219.003906 146.683594 219.003906 C 146.285156 219.003906 145.902344 218.925781 145.535156 218.773438 C 145.164062 218.621094 144.839844 218.402344 144.558594 218.121094 L 140.816406 214.375 C 140.535156 214.097656 140.316406 213.773438 140.164062 213.40625 C 140.011719 213.039062 139.933594 212.660156 139.933594 212.261719 C 139.933594 211.863281 140.011719 211.480469 140.164062 211.117188 C 140.316406 210.75 140.535156 210.425781 140.816406 210.144531 L 142.6875 208.273438 L 142.96875 208.554688 L 150.0625 215.628906 Z M 150.679688 216.246094 " fill-opacity="1" fill-rule="nonzero"/></g><path fill="#f8f6f7" d="M 207.710938 168.40625 L 202.472656 168.40625 C 202.222656 168.40625 201.984375 168.359375 201.753906 168.265625 C 201.523438 168.167969 201.324219 168.035156 201.148438 167.859375 C 200.972656 167.683594 200.835938 167.480469 200.742188 167.25 C 200.648438 167.023438 200.597656 166.78125 200.597656 166.535156 L 200.597656 153.433594 C 200.597656 153.183594 200.648438 152.945312 200.742188 152.714844 C 200.835938 152.488281 200.972656 152.285156 201.148438 152.109375 C 201.324219 151.933594 201.523438 151.796875 201.753906 151.703125 C 201.984375 151.609375 202.222656 151.5625 202.472656 151.5625 L 207.710938 151.5625 C 207.980469 151.5625 208.25 151.589844 208.515625 151.644531 C 208.777344 151.695312 209.035156 151.773438 209.285156 151.878906 C 209.535156 151.984375 209.769531 152.109375 209.996094 152.261719 C 210.21875 152.410156 210.425781 152.582031 210.617188 152.773438 C 210.808594 152.964844 210.980469 153.171875 211.128906 153.394531 C 211.28125 153.621094 211.40625 153.855469 211.511719 154.105469 C 211.613281 154.355469 211.695312 154.613281 211.746094 154.875 C 211.800781 155.140625 211.828125 155.410156 211.828125 155.679688 L 211.828125 164.289062 C 211.828125 164.558594 211.800781 164.824219 211.746094 165.089844 C 211.695312 165.355469 211.613281 165.613281 211.511719 165.863281 C 211.40625 166.109375 211.28125 166.347656 211.128906 166.570312 C 210.980469 166.796875 210.808594 167.003906 210.617188 167.195312 C 210.425781 167.386719 210.21875 167.554688 209.996094 167.707031 C 209.769531 167.855469 209.535156 167.984375 209.285156 168.089844 C 209.035156 168.191406 208.777344 168.269531 208.515625 168.324219 C 208.25 168.378906 207.980469 168.40625 207.710938 168.40625 Z M 204.34375 164.664062 L 207.710938 164.664062 C 207.816406 164.664062 207.902344 164.625 207.976562 164.554688 C 208.050781 164.480469 208.085938 164.390625 208.085938 164.289062 L 208.085938 155.679688 C 208.085938 155.574219 208.050781 155.488281 207.976562 155.414062 C 207.902344 155.339844 207.816406 155.304688 207.710938 155.304688 L 204.34375 155.304688 Z M 204.34375 164.664062 " fill-opacity="1" fill-rule="nonzero"/><path fill="#f8f6f7" d="M 196.855469 166.121094 L 194.160156 154.144531 C 194.109375 153.960938 194.042969 153.785156 193.953125 153.621094 C 193.863281 153.464844 193.761719 153.316406 193.652344 153.171875 C 193.542969 153.03125 193.425781 152.894531 193.296875 152.769531 C 193.167969 152.640625 193.035156 152.523438 192.890625 152.414062 C 192.746094 152.304688 192.597656 152.203125 192.441406 152.113281 C 192.285156 152.023438 192.125 151.945312 191.957031 151.875 C 191.789062 151.808594 191.621094 151.75 191.445312 151.703125 C 191.273438 151.65625 191.097656 151.621094 190.917969 151.597656 C 190.738281 151.574219 190.558594 151.5625 190.378906 151.5625 C 190.199219 151.5625 190.019531 151.574219 189.839844 151.597656 C 189.664062 151.621094 189.488281 151.65625 189.3125 151.703125 C 189.136719 151.75 188.96875 151.808594 188.800781 151.875 C 188.636719 151.945312 188.472656 152.023438 188.316406 152.113281 C 188.160156 152.203125 188.011719 152.304688 187.867188 152.414062 C 187.726562 152.523438 187.589844 152.640625 187.460938 152.769531 C 187.335938 152.894531 187.214844 153.03125 187.105469 153.171875 C 186.996094 153.316406 186.894531 153.464844 186.804688 153.621094 C 186.71875 153.777344 186.65625 153.949219 186.617188 154.125 L 183.753906 166.121094 C 183.691406 166.371094 183.683594 166.621094 183.726562 166.875 C 183.765625 167.128906 183.855469 167.363281 183.996094 167.578125 C 184.132812 167.792969 184.308594 167.972656 184.519531 168.117188 C 184.730469 168.261719 184.960938 168.355469 185.214844 168.40625 C 185.351562 168.425781 185.488281 168.425781 185.625 168.40625 C 185.839844 168.410156 186.050781 168.378906 186.257812 168.3125 C 186.464844 168.246094 186.652344 168.144531 186.824219 168.011719 C 186.992188 167.878906 187.136719 167.71875 187.253906 167.539062 C 187.367188 167.355469 187.449219 167.15625 187.496094 166.945312 L 188.414062 162.792969 L 192.15625 162.792969 L 193.113281 166.945312 C 193.167969 167.195312 193.265625 167.421875 193.414062 167.632812 C 193.558594 167.839844 193.738281 168.011719 193.953125 168.148438 C 194.164062 168.285156 194.398438 168.378906 194.648438 168.421875 C 194.898438 168.464844 195.148438 168.460938 195.394531 168.40625 C 195.644531 168.351562 195.871094 168.253906 196.082031 168.105469 C 196.289062 167.960938 196.460938 167.78125 196.597656 167.566406 C 196.734375 167.351562 196.828125 167.121094 196.871094 166.871094 C 196.914062 166.621094 196.910156 166.371094 196.855469 166.121094 Z M 189.367188 159.046875 L 190.230469 155.304688 C 190.367188 155.226562 190.503906 155.226562 190.640625 155.304688 L 191.484375 159.046875 Z M 189.367188 159.046875 " fill-opacity="1" fill-rule="nonzero"/><path fill="#fbe639" d="M 172.523438 179.636719 C 172.273438 179.636719 172.035156 179.589844 171.808594 179.496094 C 171.578125 179.398438 171.375 179.265625 171.199219 179.089844 C 171.023438 178.914062 170.890625 178.710938 170.792969 178.480469 C 170.699219 178.253906 170.652344 178.011719 170.652344 177.765625 L 170.652344 170.277344 C 170.652344 170.03125 170.699219 169.792969 170.792969 169.5625 C 170.890625 169.332031 171.023438 169.128906 171.199219 168.953125 C 171.375 168.777344 171.578125 168.644531 171.808594 168.546875 C 172.035156 168.453125 172.273438 168.40625 172.523438 168.40625 C 172.769531 168.40625 173.011719 168.453125 173.238281 168.546875 C 173.46875 168.644531 173.671875 168.777344 173.847656 168.953125 C 174.023438 169.128906 174.15625 169.332031 174.253906 169.5625 C 174.347656 169.792969 174.394531 170.03125 174.394531 170.277344 L 174.394531 177.765625 C 174.394531 178.011719 174.347656 178.253906 174.253906 178.480469 C 174.15625 178.710938 174.023438 178.914062 173.847656 179.089844 C 173.671875 179.265625 173.46875 179.398438 173.238281 179.496094 C 173.011719 179.589844 172.769531 179.636719 172.523438 179.636719 Z M 172.523438 179.636719 " fill-opacity="1" fill-rule="nonzero"/><path fill="#fbe639" d="M 191.242188 190.867188 L 183.753906 190.867188 C 183.503906 190.867188 183.265625 190.820312 183.039062 190.726562 C 182.808594 190.628906 182.605469 190.496094 182.429688 190.320312 C 182.253906 190.144531 182.121094 189.941406 182.023438 189.710938 C 181.929688 189.480469 181.882812 189.242188 181.882812 188.996094 C 181.882812 188.746094 181.929688 188.507812 182.023438 188.277344 C 182.121094 188.050781 182.253906 187.847656 182.429688 187.671875 C 182.605469 187.496094 182.808594 187.359375 183.039062 187.265625 C 183.265625 187.171875 183.503906 187.125 183.753906 187.125 L 191.242188 187.125 C 191.488281 187.125 191.726562 187.171875 191.957031 187.265625 C 192.1875 187.359375 192.386719 187.496094 192.5625 187.671875 C 192.738281 187.847656 192.875 188.050781 192.96875 188.277344 C 193.066406 188.507812 193.113281 188.746094 193.113281 188.996094 C 193.113281 189.242188 193.066406 189.480469 192.96875 189.710938 C 192.875 189.941406 192.738281 190.144531 192.5625 190.320312 C 192.386719 190.496094 192.1875 190.628906 191.957031 190.726562 C 191.726562 190.820312 191.488281 190.867188 191.242188 190.867188 Z M 191.242188 190.867188 " fill-opacity="1" fill-rule="nonzero"/><g clip-path="url(#a911c673e7)"><path fill="#db2f14" d="M 24.226562 143.363281 L 44.46875 153.125 L 30.777344 181.070312 L 24.613281 167.847656 L 10.539062 171.308594 L 24.226562 143.363281 " fill-opacity="1" fill-rule="evenodd"/></g><path fill="#ff430e" d="M 27.191406 145.066406 L 41.300781 151.601562 L 30.960938 173.070312 L 26.960938 163.601562 L 16.597656 166.386719 L 27.191406 145.066406 " fill-opacity="1" fill-rule="evenodd"/><g clip-path="url(#9b0e31ef71)"><path fill="#db2f14" d="M 48.46875 142.925781 L 28.265625 152.761719 L 42.054688 180.65625 L 48.171875 167.414062 L 62.261719 170.824219 L 48.46875 142.925781 " fill-opacity="1" fill-rule="evenodd"/></g><path fill="#ff430e" d="M 45.511719 144.640625 L 31.425781 151.226562 L 41.84375 172.660156 L 45.8125 163.175781 L 56.183594 165.925781 L 45.511719 144.640625 " fill-opacity="1" fill-rule="evenodd"/><g clip-path="url(#3cf2652138)"><path fill="#ffc50d" d="M 36.398438 119.605469 C 47.335938 119.605469 56.214844 128.414062 56.214844 139.265625 C 56.214844 150.121094 47.335938 158.929688 36.398438 158.929688 C 25.464844 158.929688 16.582031 150.121094 16.582031 139.265625 C 16.582031 128.414062 25.464844 119.605469 36.398438 119.605469 " fill-opacity="1" fill-rule="evenodd"/></g><path fill="#f59f0a" d="M 36.398438 123.839844 C 44.835938 123.839844 51.683594 130.753906 51.683594 139.265625 C 51.683594 147.78125 44.835938 154.695312 36.398438 154.695312 C 27.964844 154.695312 21.117188 147.78125 21.117188 139.265625 C 21.117188 130.753906 27.964844 123.839844 36.398438 123.839844 " fill-opacity="1" fill-rule="evenodd"/><path fill="#faf29f" d="M 23.652344 130.347656 C 23.671875 130.28125 23.738281 130.234375 23.816406 130.234375 C 23.890625 130.234375 23.957031 130.28125 23.980469 130.347656 L 24.609375 132.214844 L 26.652344 132.792969 C 26.722656 132.8125 26.773438 132.875 26.773438 132.945312 C 26.773438 133.011719 26.722656 133.074219 26.652344 133.09375 L 24.609375 133.671875 L 23.980469 135.542969 C 23.957031 135.609375 23.890625 135.652344 23.816406 135.652344 C 23.738281 135.652344 23.671875 135.609375 23.652344 135.542969 L 23.019531 133.671875 L 20.980469 133.09375 C 20.90625 133.074219 20.859375 133.011719 20.859375 132.945312 C 20.859375 132.875 20.90625 132.8125 20.980469 132.792969 L 23.019531 132.214844 L 23.652344 130.347656 " fill-opacity="1" fill-rule="evenodd"/><path fill="#faf29f" d="M 48.691406 145.390625 C 48.714844 145.324219 48.78125 145.277344 48.859375 145.277344 C 48.933594 145.277344 49 145.324219 49.023438 145.390625 L 49.664062 147.289062 L 51.734375 147.875 C 51.808594 147.898438 51.859375 147.957031 51.859375 148.027344 C 51.859375 148.097656 51.808594 148.160156 51.734375 148.179688 L 49.664062 148.765625 L 49.023438 150.664062 C 49 150.730469 48.933594 150.777344 48.859375 150.777344 C 48.78125 150.777344 48.714844 150.730469 48.691406 150.664062 L 48.050781 148.765625 L 45.980469 148.179688 C 45.90625 148.160156 45.855469 148.097656 45.855469 148.027344 C 45.855469 147.957031 45.90625 147.898438 45.980469 147.875 L 48.050781 147.289062 L 48.691406 145.390625 " fill-opacity="1" fill-rule="evenodd"/><path fill="#faf29f" d="M 20.691406 134.191406 C 20.707031 134.144531 20.75 134.117188 20.800781 134.117188 C 20.851562 134.117188 20.898438 134.144531 20.910156 134.191406 L 21.335938 135.445312 L 22.707031 135.832031 C 22.753906 135.847656 22.785156 135.886719 22.785156 135.933594 C 22.785156 135.980469 22.753906 136.019531 22.707031 136.035156 L 21.335938 136.421875 L 20.910156 137.675781 C 20.898438 137.722656 20.851562 137.753906 20.800781 137.753906 C 20.75 137.753906 20.707031 137.722656 20.691406 137.675781 L 20.269531 136.421875 L 18.898438 136.035156 C 18.851562 136.019531 18.816406 135.980469 18.816406 135.933594 C 18.816406 135.886719 18.851562 135.847656 18.898438 135.832031 L 20.269531 135.445312 L 20.691406 134.191406 " fill-opacity="1" fill-rule="evenodd"/><path fill="#faf29f" d="M 51.648438 142.265625 C 51.664062 142.21875 51.714844 142.183594 51.769531 142.183594 C 51.824219 142.183594 51.875 142.21875 51.890625 142.265625 L 52.355469 143.644531 L 53.855469 144.066406 C 53.910156 144.082031 53.945312 144.128906 53.945312 144.179688 C 53.945312 144.230469 53.910156 144.273438 53.855469 144.289062 L 52.355469 144.714844 L 51.890625 146.089844 C 51.875 146.140625 51.824219 146.171875 51.769531 146.171875 C 51.714844 146.171875 51.664062 146.140625 51.648438 146.089844 L 51.183594 144.714844 L 49.683594 144.289062 C 49.628906 144.273438 49.59375 144.230469 49.59375 144.179688 C 49.59375 144.128906 49.628906 144.082031 49.683594 144.066406 L 51.183594 143.644531 L 51.648438 142.265625 " fill-opacity="1" fill-rule="evenodd"/><path fill="#faf29f" d="M 34.996094 145.921875 C 34.996094 147.238281 36.09375 147.9375 37.246094 147.929688 C 38.394531 147.917969 39.484375 147.199219 39.484375 145.921875 L 39.484375 133.246094 C 39.484375 132.113281 39.074219 131.429688 38.550781 131.074219 C 37.996094 130.695312 37.25 130.644531 36.460938 130.980469 C 36.464844 130.976562 33.277344 132.144531 33.277344 132.144531 C 32.371094 132.445312 31.90625 133.03125 31.730469 133.648438 C 31.320312 135.117188 32.679688 136.914062 34.59375 136.296875 C 34.609375 136.292969 34.625 136.285156 34.640625 136.28125 L 34.996094 136.140625 L 34.996094 145.921875 " fill-opacity="1" fill-rule="nonzero"/></svg>