<svg xmlns="http://www.w3.org/2000/svg" xmlns:xlink="http://www.w3.org/1999/xlink" width="1122" zoomAndPan="magnify" viewBox="0 0 841.92 595.499987" height="793" preserveAspectRatio="xMidYMid meet" version="1.0"><defs><g/><clipPath id="4a14ed683f"><path d="M 0.3125 0 L 841.527344 0 L 841.527344 595 L 0.3125 595 Z M 0.3125 0 " clip-rule="nonzero"/></clipPath><clipPath id="2aef15f66a"><path d="M 9 244 L 120 244 L 120 326.84375 L 9 326.84375 Z M 9 244 " clip-rule="nonzero"/></clipPath><clipPath id="0559f6f36d"><path d="M 488 478 L 599 478 L 599 560.921875 L 488 560.921875 Z M 488 478 " clip-rule="nonzero"/></clipPath></defs><g clip-path="url(#4a14ed683f)"><path fill="#ffffff" d="M 0.3125 0 L 841.855469 0 L 841.855469 595 L 0.3125 595 Z M 0.3125 0 " fill-opacity="1" fill-rule="nonzero"/><path fill="#000000" d="M 0.3125 0 L 841.855469 0 L 841.855469 595 L 0.3125 595 Z M 0.3125 0 " fill-opacity="1" fill-rule="nonzero"/></g><path fill="#951abe" d="M 211.488281 48.644531 C 207.683594 46.101562 187.65625 45.785156 171.132812 57.222656 C 155.628906 67.953125 144.0625 89.304688 142.671875 91.910156 C 142.429688 90.597656 142.035156 89.328125 141.488281 88.105469 C 142.226562 87.726562 142.816406 87.183594 143.25 86.476562 C 143.683594 85.765625 143.902344 84.996094 143.902344 84.164062 C 143.902344 83.332031 143.683594 82.5625 143.25 81.851562 C 142.816406 81.144531 142.226562 80.601562 141.488281 80.222656 C 142.007812 79.238281 142.777344 77.621094 143.597656 75.742188 C 144.417969 73.867188 145.113281 72.175781 145.492188 71.117188 C 145.742188 71.117188 145.96875 71.050781 146.179688 70.914062 C 146.386719 70.777344 146.539062 70.597656 146.636719 70.367188 C 146.976562 69.707031 146.875 68.921875 146.40625 68.632812 C 145.9375 68.34375 145.28125 68.632812 144.941406 69.28125 C 144.597656 69.925781 144.699219 70.683594 145.152344 70.996094 C 144.632812 71.988281 143.871094 73.601562 143.054688 75.445312 C 142.238281 77.289062 141.53125 79.035156 141.148438 80.09375 C 140.304688 79.816406 139.476562 79.859375 138.667969 80.230469 C 138.300781 79.183594 137.585938 77.421875 136.714844 75.445312 C 135.898438 73.589844 135.136719 71.976562 134.617188 70.996094 C 135.066406 70.683594 135.164062 69.925781 134.828125 69.28125 C 134.496094 68.632812 133.828125 68.332031 133.363281 68.632812 C 132.898438 68.933594 132.785156 69.710938 133.136719 70.367188 C 133.230469 70.597656 133.382812 70.777344 133.59375 70.914062 C 133.800781 71.050781 134.027344 71.117188 134.277344 71.117188 C 134.660156 72.175781 135.34375 73.859375 136.171875 75.742188 C 137.039062 77.710938 137.851562 79.414062 138.371094 80.371094 C 137.707031 80.765625 137.1875 81.304688 136.816406 81.980469 C 136.441406 82.652344 136.261719 83.378906 136.277344 84.148438 C 136.265625 84.5625 136.3125 84.964844 136.421875 85.359375 C 136.527344 85.757812 136.6875 86.128906 136.902344 86.480469 C 137.117188 86.832031 137.378906 87.144531 137.683594 87.417969 C 137.988281 87.691406 138.324219 87.917969 138.695312 88.09375 C 138.195312 89.105469 137.746094 90.636719 137.375 92.570312 C 137.351562 92.308594 137.335938 92.167969 137.335938 92.167969 C 137.335938 92.167969 125.261719 68.664062 108.742188 57.222656 C 92.21875 45.78125 72.199219 46.101562 68.386719 48.644531 C 64.574219 51.183594 67.273438 60.242188 71.40625 62.941406 C 75.539062 65.644531 74.585938 68.664062 73.949219 71.839844 C 73.308594 75.015625 72.996094 79.625 75.378906 80.742188 C 77.761719 81.863281 77.761719 83.441406 77.28125 87.574219 C 76.804688 91.707031 77.125 94.25 79.824219 94.882812 C 82.527344 95.515625 78.871094 97.902344 82.527344 99.328125 C 86.179688 100.757812 98.414062 100.601562 100.636719 99.328125 C 100.636719 99.328125 84.589844 110.132812 84.589844 115.378906 C 84.589844 120.621094 83.636719 121.257812 87.292969 126.023438 C 90.949219 130.789062 86.511719 131.738281 90.152344 135.707031 C 93.792969 139.679688 90.152344 142.070312 93.964844 144.921875 C 97.777344 147.773438 95.234375 150.640625 100.160156 152.070312 C 105.085938 153.5 104.769531 158.742188 109.375 156.988281 C 113.980469 155.230469 117.957031 155.875 120.019531 151.265625 C 121.824219 147.242188 132.957031 121.292969 136.382812 110.863281 C 136.785156 119.457031 138.292969 125.847656 140.089844 125.847656 C 141.824219 125.847656 143.300781 119.851562 143.757812 111.675781 C 147.460938 122.574219 158.09375 147.351562 159.851562 151.273438 C 161.917969 155.882812 165.890625 155.246094 170.496094 156.996094 C 175.101562 158.746094 174.785156 153.5 179.710938 152.078125 C 184.636719 150.660156 182.09375 147.789062 185.90625 144.929688 C 189.722656 142.070312 186.066406 139.6875 189.722656 135.714844 C 193.378906 131.746094 188.925781 130.800781 192.582031 126.027344 C 196.238281 121.25 195.285156 120.625 195.285156 115.378906 C 195.285156 110.136719 179.234375 99.332031 179.234375 99.332031 C 181.460938 100.605469 193.695312 100.761719 197.347656 99.332031 C 201 97.902344 197.347656 95.519531 200.050781 94.886719 C 202.75 94.25 203.070312 91.703125 202.589844 87.578125 C 202.113281 83.449219 202.113281 81.847656 204.503906 80.742188 C 206.890625 79.636719 206.566406 75.023438 205.933594 71.84375 C 205.296875 68.667969 204.34375 65.648438 208.472656 62.949219 C 212.605469 60.25 215.300781 51.1875 211.488281 48.644531 Z M 211.488281 48.644531 " fill-opacity="1" fill-rule="nonzero"/><path fill="#951abe" d="M 778.214844 20.9375 C 774.410156 18.398438 754.378906 18.078125 737.859375 29.515625 C 722.355469 40.246094 710.789062 61.601562 709.398438 64.207031 C 709.15625 62.890625 708.761719 61.621094 708.214844 60.398438 C 708.953125 60.023438 709.542969 59.480469 709.976562 58.769531 C 710.410156 58.058594 710.628906 57.289062 710.628906 56.457031 C 710.628906 55.625 710.410156 54.855469 709.976562 54.148438 C 709.542969 53.4375 708.953125 52.894531 708.214844 52.515625 C 708.734375 51.53125 709.503906 49.914062 710.324219 48.035156 C 711.144531 46.160156 711.839844 44.472656 712.21875 43.410156 C 712.46875 43.414062 712.695312 43.34375 712.902344 43.210938 C 713.113281 43.074219 713.265625 42.890625 713.359375 42.660156 C 713.703125 42 713.601562 41.214844 713.132812 40.925781 C 712.664062 40.636719 712.007812 40.925781 711.667969 41.574219 C 711.324219 42.222656 711.425781 42.980469 711.878906 43.292969 C 711.359375 44.28125 710.597656 45.894531 709.78125 47.738281 C 708.964844 49.585938 708.257812 51.328125 707.875 52.386719 C 707.03125 52.109375 706.203125 52.15625 705.394531 52.523438 C 705.027344 51.480469 704.3125 49.714844 703.441406 47.738281 C 702.625 45.886719 701.863281 44.269531 701.34375 43.292969 C 701.792969 42.980469 701.890625 42.222656 701.554688 41.574219 C 701.21875 40.925781 700.554688 40.625 700.089844 40.925781 C 699.625 41.226562 699.511719 42.003906 699.859375 42.660156 C 699.957031 42.890625 700.109375 43.074219 700.320312 43.210938 C 700.527344 43.34375 700.753906 43.414062 701.003906 43.410156 C 701.386719 44.46875 702.070312 46.152344 702.898438 48.035156 C 703.765625 50.007812 704.578125 51.710938 705.097656 52.664062 C 704.433594 53.0625 703.914062 53.597656 703.539062 54.273438 C 703.167969 54.949219 702.988281 55.671875 703.003906 56.445312 C 702.992188 56.855469 703.039062 57.257812 703.148438 57.65625 C 703.253906 58.050781 703.414062 58.425781 703.628906 58.773438 C 703.84375 59.125 704.105469 59.4375 704.410156 59.710938 C 704.714844 59.984375 705.050781 60.210938 705.421875 60.386719 C 704.921875 61.398438 704.472656 62.929688 704.101562 64.867188 C 704.078125 64.601562 704.0625 64.460938 704.0625 64.460938 C 704.0625 64.460938 691.988281 40.957031 675.46875 29.515625 C 658.945312 18.078125 638.925781 18.398438 635.113281 20.9375 C 631.300781 23.476562 634 32.535156 638.132812 35.238281 C 642.265625 37.9375 641.3125 40.957031 640.675781 44.132812 C 640.035156 47.308594 639.71875 51.917969 642.101562 53.039062 C 644.484375 54.15625 644.484375 55.734375 644.007812 59.867188 C 643.53125 64 643.851562 66.542969 646.550781 67.175781 C 649.253906 67.808594 645.597656 70.195312 649.253906 71.625 C 652.90625 73.050781 665.140625 72.894531 667.363281 71.625 C 667.363281 71.625 651.316406 82.429688 651.316406 87.671875 C 651.316406 92.914062 650.363281 93.550781 654.019531 98.316406 C 657.671875 103.082031 653.238281 104.03125 656.878906 108 C 660.519531 111.972656 656.878906 114.363281 660.691406 117.214844 C 664.5 120.066406 661.960938 122.9375 666.886719 124.363281 C 671.8125 125.792969 671.492188 131.035156 676.101562 129.28125 C 680.707031 127.527344 684.679688 128.167969 686.746094 123.5625 C 688.550781 119.539062 699.683594 93.585938 703.109375 83.15625 C 703.511719 91.75 705.019531 98.140625 706.816406 98.140625 C 708.550781 98.140625 710.027344 92.144531 710.484375 83.96875 C 714.1875 94.867188 724.820312 119.644531 726.578125 123.570312 C 728.640625 128.175781 732.617188 127.539062 737.222656 129.289062 C 741.828125 131.039062 741.511719 125.792969 746.4375 124.375 C 751.359375 122.953125 748.820312 120.085938 752.632812 117.222656 C 756.449219 114.363281 752.792969 111.980469 756.449219 108.011719 C 760.105469 104.039062 755.652344 103.09375 759.308594 98.320312 C 762.964844 93.546875 762.007812 92.917969 762.007812 87.675781 C 762.007812 82.429688 745.960938 71.625 745.960938 71.625 C 748.1875 72.898438 760.421875 73.054688 764.074219 71.625 C 767.726562 70.199219 764.074219 67.816406 766.777344 67.179688 C 769.476562 66.542969 769.792969 63.996094 769.316406 59.871094 C 768.839844 55.746094 768.839844 54.140625 771.230469 53.039062 C 773.617188 51.933594 773.292969 47.316406 772.65625 44.140625 C 772.019531 40.960938 771.070312 37.941406 775.199219 35.242188 C 779.328125 32.542969 782.027344 23.480469 778.214844 20.9375 Z M 778.214844 20.9375 " fill-opacity="1" fill-rule="nonzero"/><path fill="#951abe" d="M 171.339844 439.066406 C 167.722656 436.648438 148.65625 436.34375 132.933594 447.230469 C 118.175781 457.441406 107.167969 477.765625 105.847656 480.246094 C 105.613281 478.996094 105.238281 477.789062 104.71875 476.625 C 105.421875 476.265625 105.984375 475.746094 106.394531 475.074219 C 106.808594 474.398438 107.015625 473.664062 107.015625 472.875 C 107.015625 472.082031 106.808594 471.347656 106.394531 470.671875 C 105.984375 470 105.421875 469.480469 104.71875 469.121094 C 105.214844 468.183594 105.945312 466.644531 106.726562 464.859375 C 107.507812 463.070312 108.167969 461.464844 108.53125 460.453125 C 108.765625 460.457031 108.984375 460.394531 109.183594 460.261719 C 109.378906 460.132812 109.523438 459.960938 109.617188 459.742188 C 109.941406 459.113281 109.847656 458.363281 109.398438 458.089844 C 108.953125 457.8125 108.328125 458.089844 108.003906 458.707031 C 107.679688 459.324219 107.777344 460.042969 108.207031 460.339844 C 107.710938 461.28125 106.984375 462.820312 106.210938 464.574219 C 105.433594 466.332031 104.757812 467.988281 104.394531 468.996094 C 103.59375 468.734375 102.804688 468.777344 102.035156 469.128906 C 101.683594 468.132812 101.003906 466.453125 100.175781 464.574219 C 99.398438 462.808594 98.671875 461.273438 98.179688 460.339844 C 98.609375 460.042969 98.699219 459.324219 98.382812 458.707031 C 98.0625 458.089844 97.429688 457.804688 96.988281 458.089844 C 96.542969 458.375 96.4375 459.117188 96.769531 459.742188 C 96.859375 459.960938 97.007812 460.132812 97.203125 460.261719 C 97.402344 460.394531 97.621094 460.457031 97.855469 460.453125 C 98.21875 461.460938 98.871094 463.0625 99.660156 464.859375 C 100.484375 466.730469 101.257812 468.355469 101.75 469.261719 C 101.121094 469.640625 100.625 470.148438 100.269531 470.792969 C 99.914062 471.433594 99.742188 472.125 99.757812 472.859375 C 99.75 473.25 99.792969 473.632812 99.894531 474.011719 C 99.996094 474.390625 100.148438 474.742188 100.355469 475.078125 C 100.558594 475.410156 100.804688 475.707031 101.097656 475.96875 C 101.386719 476.230469 101.710938 476.445312 102.0625 476.613281 C 101.585938 477.574219 101.15625 479.03125 100.804688 480.875 C 100.78125 480.625 100.769531 480.488281 100.769531 480.488281 C 100.769531 480.488281 89.277344 458.121094 73.550781 447.230469 C 57.828125 436.34375 38.773438 436.648438 35.144531 439.066406 C 31.515625 441.480469 34.085938 450.105469 38.019531 452.675781 C 41.949219 455.246094 41.046875 458.121094 40.4375 461.140625 C 39.828125 464.164062 39.527344 468.550781 41.796875 469.617188 C 44.066406 470.683594 44.066406 472.183594 43.609375 476.117188 C 43.15625 480.050781 43.460938 482.472656 46.03125 483.074219 C 48.601562 483.675781 45.121094 485.945312 48.601562 487.308594 C 52.082031 488.667969 63.722656 488.519531 65.839844 487.308594 C 65.839844 487.308594 50.566406 497.589844 50.566406 502.582031 C 50.566406 507.570312 49.65625 508.175781 53.136719 512.710938 C 56.617188 517.25 52.394531 518.152344 55.859375 521.929688 C 59.324219 525.710938 55.859375 527.984375 59.488281 530.699219 C 63.113281 533.414062 60.699219 536.144531 65.386719 537.503906 C 70.074219 538.863281 69.769531 543.851562 74.15625 542.183594 C 78.539062 540.511719 82.320312 541.121094 84.285156 536.738281 C 86.003906 532.910156 96.597656 508.210938 99.859375 498.285156 C 100.242188 506.464844 101.675781 512.542969 103.386719 512.542969 C 105.039062 512.542969 106.445312 506.839844 106.878906 499.058594 C 110.40625 509.429688 120.523438 533.011719 122.195312 536.746094 C 124.160156 541.132812 127.941406 540.527344 132.328125 542.191406 C 136.710938 543.855469 136.410156 538.863281 141.097656 537.511719 C 145.785156 536.160156 143.363281 533.429688 146.996094 530.707031 C 150.625 527.984375 147.148438 525.71875 150.625 521.9375 C 154.105469 518.160156 149.871094 517.257812 153.347656 512.714844 C 156.828125 508.171875 155.917969 507.574219 155.917969 502.582031 C 155.917969 497.59375 140.644531 487.308594 140.644531 487.308594 C 142.761719 488.519531 154.40625 488.667969 157.882812 487.308594 C 161.359375 485.949219 157.882812 483.683594 160.457031 483.078125 C 163.027344 482.472656 163.328125 480.046875 162.875 476.121094 C 162.421875 472.191406 162.421875 470.667969 164.695312 469.617188 C 166.96875 468.566406 166.660156 464.171875 166.054688 461.148438 C 165.449219 458.121094 164.542969 455.25 168.472656 452.679688 C 172.402344 450.113281 174.972656 441.488281 171.339844 439.066406 Z M 171.339844 439.066406 " fill-opacity="1" fill-rule="nonzero"/><path fill="#800080" d="M 807.296875 462.335938 C 803.878906 460.054688 785.898438 459.769531 771.0625 470.039062 C 757.144531 479.671875 746.757812 498.84375 745.511719 501.183594 C 745.292969 500.003906 744.9375 498.863281 744.445312 497.765625 C 745.109375 497.429688 745.636719 496.941406 746.027344 496.304688 C 746.417969 495.667969 746.613281 494.972656 746.613281 494.226562 C 746.613281 493.480469 746.417969 492.789062 746.027344 492.152344 C 745.636719 491.515625 745.109375 491.027344 744.445312 490.6875 C 744.914062 489.804688 745.605469 488.351562 746.339844 486.667969 C 747.078125 484.980469 747.703125 483.464844 748.042969 482.511719 C 748.265625 482.515625 748.46875 482.453125 748.65625 482.332031 C 748.84375 482.210938 748.980469 482.046875 749.066406 481.839844 C 749.375 481.246094 749.28125 480.542969 748.863281 480.28125 C 748.441406 480.023438 747.851562 480.28125 747.546875 480.863281 C 747.238281 481.445312 747.332031 482.125 747.734375 482.40625 C 747.269531 483.292969 746.585938 484.742188 745.851562 486.398438 C 745.121094 488.054688 744.484375 489.621094 744.140625 490.570312 C 743.382812 490.324219 742.640625 490.363281 741.914062 490.695312 C 741.585938 489.757812 740.941406 488.171875 740.160156 486.398438 C 739.429688 484.734375 738.742188 483.285156 738.277344 482.40625 C 738.679688 482.125 738.769531 481.445312 738.46875 480.863281 C 738.167969 480.28125 737.570312 480.011719 737.152344 480.28125 C 736.734375 480.550781 736.632812 481.25 736.945312 481.839844 C 737.035156 482.046875 737.171875 482.210938 737.359375 482.332031 C 737.542969 482.453125 737.75 482.515625 737.972656 482.511719 C 738.316406 483.460938 738.929688 484.972656 739.671875 486.667969 C 740.453125 488.433594 741.183594 489.964844 741.648438 490.820312 C 741.050781 491.175781 740.585938 491.660156 740.25 492.265625 C 739.914062 492.871094 739.753906 493.523438 739.765625 494.214844 C 739.75 494.96875 739.9375 495.664062 740.328125 496.308594 C 740.722656 496.949219 741.261719 497.433594 741.941406 497.757812 C 741.492188 498.664062 741.085938 500.039062 740.753906 501.777344 C 740.734375 501.539062 740.71875 501.414062 740.71875 501.414062 C 740.71875 501.414062 729.878906 480.308594 715.046875 470.039062 C 700.210938 459.765625 682.234375 460.054688 678.8125 462.335938 C 675.390625 464.613281 677.8125 472.75 681.523438 475.175781 C 685.234375 477.601562 684.378906 480.308594 683.804688 483.160156 C 683.230469 486.011719 682.949219 490.152344 685.089844 491.15625 C 687.226562 492.160156 687.226562 493.578125 686.800781 497.289062 C 686.371094 501 686.65625 503.28125 689.082031 503.851562 C 691.507812 504.417969 688.226562 506.5625 691.507812 507.84375 C 694.789062 509.125 705.773438 508.988281 707.769531 507.84375 C 707.769531 507.84375 693.363281 517.542969 693.363281 522.253906 C 693.363281 526.960938 692.503906 527.53125 695.785156 531.808594 C 699.070312 536.089844 695.085938 536.941406 698.355469 540.507812 C 701.625 544.070312 698.355469 546.21875 701.777344 548.777344 C 705.199219 551.339844 702.917969 553.914062 707.339844 555.195312 C 711.761719 556.480469 711.476562 561.1875 715.613281 559.613281 C 719.75 558.035156 723.316406 558.613281 725.171875 554.476562 C 726.792969 550.863281 736.785156 527.5625 739.863281 518.199219 C 740.222656 525.917969 741.578125 531.652344 743.191406 531.652344 C 744.75 531.652344 746.074219 526.269531 746.484375 518.929688 C 749.808594 528.710938 759.355469 550.960938 760.933594 554.484375 C 762.789062 558.621094 766.355469 558.046875 770.492188 559.621094 C 774.628906 561.191406 774.34375 556.480469 778.765625 555.203125 C 783.1875 553.929688 780.902344 551.355469 784.328125 548.785156 C 787.753906 546.21875 784.472656 544.078125 787.753906 540.515625 C 791.035156 536.949219 787.039062 536.101562 790.320312 531.8125 C 793.601562 527.527344 792.746094 526.960938 792.746094 522.253906 C 792.746094 517.546875 778.339844 507.847656 778.339844 507.847656 C 780.335938 508.988281 791.320312 509.128906 794.601562 507.847656 C 797.878906 506.5625 794.601562 504.425781 797.027344 503.851562 C 799.449219 503.28125 799.738281 500.996094 799.308594 497.292969 C 798.878906 493.585938 798.878906 492.148438 801.023438 491.15625 C 803.167969 490.164062 802.878906 486.019531 802.308594 483.167969 C 801.734375 480.3125 800.882812 477.601562 804.589844 475.179688 C 808.296875 472.757812 810.71875 464.621094 807.296875 462.335938 Z M 807.296875 462.335938 " fill-opacity="1" fill-rule="nonzero"/><g fill="#951abe" fill-opacity="1"><g transform="translate(182.208349, 398.267609)"><g><path d="M 56.109375 -56.375 C 60.703125 -55.675781 64.816406 -54.09375 68.453125 -51.625 C 72.085938 -49.15625 74.878906 -45.972656 76.828125 -42.078125 C 78.773438 -38.179688 79.40625 -33.8125 78.71875 -28.96875 L 56.890625 -8.3125 C 54.722656 -6.238281 51.992188 -4.332031 48.703125 -2.59375 C 45.410156 -0.863281 42.164062 0 38.96875 0 C 36.882812 0 34.757812 -0.34375 32.59375 -1.03125 C 30.4375 -1.726562 28.164062 -2.378906 25.78125 -2.984375 C 23.40625 -3.585938 20.914062 -3.800781 18.3125 -3.625 C 15.71875 -3.457031 13.035156 -2.507812 10.265625 -0.78125 L 9.484375 0 L 5.84375 -3.125 C 6.96875 -4.9375 7.960938 -6.859375 8.828125 -8.890625 C 9.691406 -10.929688 10.171875 -13.421875 10.265625 -16.359375 L 10.265625 -65.859375 C 10.171875 -69.835938 9.238281 -72.390625 7.46875 -73.515625 C 5.695312 -74.640625 2.90625 -73.988281 -0.90625 -71.5625 L -3.125 -75.59375 L 20.265625 -95.203125 C 24.335938 -93.816406 27 -91.609375 28.25 -88.578125 C 29.507812 -85.554688 30.222656 -82.09375 30.390625 -78.1875 L 53.125 -95.203125 C 56.414062 -95.203125 59.46875 -94.378906 62.28125 -92.734375 C 65.09375 -91.097656 67.453125 -88.9375 69.359375 -86.25 C 71.265625 -83.5625 72.5 -80.613281 73.0625 -77.40625 C 73.625 -74.207031 73.300781 -71.050781 72.09375 -67.9375 Z M 41.171875 -55.203125 C 46.628906 -59.703125 50.09375 -63.726562 51.5625 -67.28125 C 53.039062 -70.832031 52.847656 -73.664062 50.984375 -75.78125 C 49.117188 -77.90625 45.847656 -78.96875 41.171875 -78.96875 L 30.53125 -71.4375 L 30.53125 -46.765625 Z M 59.625 -18.703125 C 61.007812 -20.691406 61.441406 -22.851562 60.921875 -25.1875 C 60.398438 -27.53125 59.207031 -29.765625 57.34375 -31.890625 C 55.476562 -34.015625 53.117188 -35.832031 50.265625 -37.34375 C 47.410156 -38.851562 44.289062 -39.828125 40.90625 -40.265625 C 37.53125 -40.703125 34.070312 -40.359375 30.53125 -39.234375 L 30.53125 -23.125 C 33.8125 -23.03125 36.878906 -22.398438 39.734375 -21.234375 C 42.597656 -20.066406 45.265625 -18.921875 47.734375 -17.796875 C 50.203125 -16.671875 52.429688 -16.039062 54.421875 -15.90625 C 56.410156 -15.78125 58.144531 -16.710938 59.625 -18.703125 Z M 59.625 -18.703125 "/></g></g></g><g fill="#951abe" fill-opacity="1"><g transform="translate(262.73832, 398.267609)"><g><path d="M 30.390625 -21.953125 C 34.203125 -21.953125 37.773438 -21.773438 41.109375 -21.421875 C 44.441406 -21.078125 47.625 -20.816406 50.65625 -20.640625 C 53.6875 -20.472656 56.71875 -20.691406 59.75 -21.296875 C 62.78125 -21.910156 65.851562 -23.164062 68.96875 -25.0625 L 71.828125 -22.21875 L 47.015625 0 C 42.515625 0 38.46875 -0.28125 34.875 -0.84375 C 31.28125 -1.40625 28.03125 -1.925781 25.125 -2.40625 C 22.226562 -2.882812 19.476562 -3.015625 16.875 -2.796875 C 14.28125 -2.578125 11.6875 -1.644531 9.09375 0 L 5.96875 -2.859375 C 6.75 -4.066406 7.421875 -5.082031 7.984375 -5.90625 C 8.546875 -6.726562 9.019531 -7.703125 9.40625 -8.828125 C 9.800781 -9.953125 10 -11.46875 10 -13.375 L 10 -65.59375 L 9.875 -65.59375 C 9.78125 -69.664062 8.890625 -72.265625 7.203125 -73.390625 C 5.515625 -74.515625 2.765625 -73.863281 -1.046875 -71.4375 L -3.125 -75.59375 L 20.140625 -95.203125 C 22.816406 -94.335938 24.847656 -93.101562 26.234375 -91.5 C 27.617188 -89.90625 28.613281 -87.984375 29.21875 -85.734375 L 40.53125 -94.8125 C 43.382812 -95.425781 46.21875 -95.492188 49.03125 -95.015625 C 51.84375 -94.535156 54.632812 -93.972656 57.40625 -93.328125 C 60.175781 -92.679688 62.925781 -92.359375 65.65625 -92.359375 C 68.382812 -92.359375 71.09375 -93.132812 73.78125 -94.6875 L 75.59375 -91.96875 L 52.859375 -73.390625 C 49.222656 -73.390625 46.101562 -73.671875 43.5 -74.234375 C 40.90625 -74.796875 38.59375 -75.421875 36.5625 -76.109375 C 34.53125 -76.804688 32.472656 -77.285156 30.390625 -77.546875 L 30.390625 -55.203125 L 64.421875 -55.203125 L 64.421875 -49.625 L 53.78125 -40 L 30.390625 -40 Z M 30.390625 -21.953125 "/></g></g></g><g fill="#951abe" fill-opacity="1"><g transform="translate(335.994617, 398.267609)"><g><path d="M 84.953125 -21.5625 L 88.0625 -17.53125 L 66.5 0 C 63.5625 -1.820312 61.09375 -4.613281 59.09375 -8.375 C 57.101562 -12.144531 56.15625 -16.929688 56.25 -22.734375 L 56.25 -39.609375 L 51.171875 -34.03125 L 30.265625 -34.03125 C 30.347656 -32.90625 30.429688 -31.863281 30.515625 -30.90625 C 30.609375 -29.957031 30.695312 -29.007812 30.78125 -28.0625 C 31.125 -24.332031 31.796875 -21.773438 32.796875 -20.390625 C 33.796875 -19.003906 35.8125 -19.394531 38.84375 -21.5625 L 41.953125 -17.53125 L 20.390625 0 C 17.441406 -1.820312 14.972656 -4.613281 12.984375 -8.375 C 10.992188 -12.144531 10.039062 -16.929688 10.125 -22.734375 L 10.125 -65.59375 C 10.039062 -69.664062 9.132812 -72.242188 7.40625 -73.328125 C 5.675781 -74.410156 2.90625 -73.738281 -0.90625 -71.3125 L -3.125 -75.59375 L 20.390625 -95.203125 C 22.992188 -93.304688 25.050781 -91.359375 26.5625 -89.359375 C 28.070312 -87.367188 29.148438 -84.988281 29.796875 -82.21875 C 30.453125 -79.445312 30.738281 -75.984375 30.65625 -71.828125 C 30.65625 -71.828125 30.65625 -71.066406 30.65625 -69.546875 C 30.65625 -68.035156 30.65625 -66.15625 30.65625 -63.90625 C 30.65625 -61.65625 30.65625 -59.40625 30.65625 -57.15625 C 30.65625 -54.90625 30.65625 -53.019531 30.65625 -51.5 C 30.65625 -49.988281 30.65625 -49.234375 30.65625 -49.234375 L 56.25 -49.234375 L 56.25 -65.328125 C 56.15625 -69.398438 55.265625 -71.976562 53.578125 -73.0625 C 51.890625 -74.144531 49.097656 -73.472656 45.203125 -71.046875 L 43 -75.59375 L 66.5 -95.203125 C 69.101562 -93.304688 71.160156 -91.359375 72.671875 -89.359375 C 74.191406 -87.367188 75.273438 -84.988281 75.921875 -82.21875 C 76.566406 -79.445312 76.847656 -75.984375 76.765625 -71.828125 L 76.890625 -28.0625 C 76.890625 -24.332031 77.472656 -21.773438 78.640625 -20.390625 C 79.816406 -19.003906 81.921875 -19.394531 84.953125 -21.5625 Z M 84.953125 -21.5625 "/></g></g></g><g fill="#951abe" fill-opacity="1"><g transform="translate(420.940748, 398.267609)"><g><path d="M 48.1875 -57.40625 C 50.269531 -54.46875 52.5 -51.113281 54.875 -47.34375 C 57.257812 -43.570312 59.769531 -39.867188 62.40625 -36.234375 C 65.050781 -32.597656 67.710938 -29.457031 70.390625 -26.8125 C 73.078125 -24.175781 75.765625 -22.425781 78.453125 -21.5625 C 81.140625 -20.695312 83.738281 -21.171875 86.25 -22.984375 L 89.359375 -18.4375 L 63.640625 0 C 61.992188 0 59.976562 -1.234375 57.59375 -3.703125 C 55.21875 -6.171875 52.726562 -9.265625 50.125 -12.984375 C 47.53125 -16.710938 45.066406 -20.566406 42.734375 -24.546875 C 40.398438 -28.535156 38.410156 -32.128906 36.765625 -35.328125 C 35.890625 -33.335938 35 -31.300781 34.09375 -29.21875 C 33.1875 -27.144531 32.300781 -25.023438 31.4375 -22.859375 C 31.957031 -21.046875 32.753906 -19.960938 33.828125 -19.609375 C 34.910156 -19.265625 36.582031 -19.914062 38.84375 -21.5625 L 41.828125 -17.53125 L 20.265625 0 C 17.316406 -1.820312 14.867188 -4.613281 12.921875 -8.375 C 10.972656 -12.144531 10 -16.929688 10 -22.734375 L 10 -65.71875 C 9.914062 -69.789062 9.03125 -72.367188 7.34375 -73.453125 C 5.65625 -74.535156 2.90625 -73.863281 -0.90625 -71.4375 L -3.125 -75.59375 L 20.265625 -95.203125 C 22.859375 -93.304688 24.910156 -91.359375 26.421875 -89.359375 C 27.941406 -87.367188 29.023438 -84.988281 29.671875 -82.21875 C 30.328125 -79.445312 30.613281 -75.984375 30.53125 -71.828125 C 30.351562 -66.546875 30.21875 -60.785156 30.125 -54.546875 C 30.039062 -48.316406 30.046875 -42.519531 30.140625 -37.15625 C 33.859375 -45.207031 37.554688 -52.757812 41.234375 -59.8125 C 44.921875 -66.875 48.492188 -73.046875 51.953125 -78.328125 C 55.421875 -83.609375 58.710938 -87.738281 61.828125 -90.71875 C 64.941406 -93.707031 67.800781 -95.203125 70.40625 -95.203125 C 72.65625 -95.203125 74.578125 -94.726562 76.171875 -93.78125 C 77.773438 -92.832031 79.203125 -91.726562 80.453125 -90.46875 C 81.710938 -89.207031 82.90625 -88.054688 84.03125 -87.015625 C 85.164062 -85.984375 86.378906 -85.378906 87.671875 -85.203125 C 88.972656 -85.035156 90.445312 -85.554688 92.09375 -86.765625 L 94.5625 -83 L 77.546875 -69.109375 C 75.554688 -69.109375 73.390625 -69.492188 71.046875 -70.265625 C 68.710938 -71.046875 66.613281 -72.109375 64.75 -73.453125 C 62.882812 -74.796875 61.648438 -76.203125 61.046875 -77.671875 C 58.878906 -74.734375 56.710938 -71.550781 54.546875 -68.125 C 52.390625 -64.707031 50.269531 -61.132812 48.1875 -57.40625 Z M 48.1875 -57.40625 "/></g></g></g><g fill="#951abe" fill-opacity="1"><g transform="translate(512.381223, 398.267609)"><g><path d="M 81.578125 -21.5625 L 84.6875 -17.40625 L 63.125 0 C 60.175781 -1.726562 57.617188 -4.5 55.453125 -8.3125 C 53.296875 -12.125 52.257812 -16.929688 52.34375 -22.734375 L 52.34375 -25.71875 C 50.957031 -24.59375 48.988281 -22.988281 46.4375 -20.90625 C 43.882812 -18.832031 41.113281 -16.601562 38.125 -14.21875 C 35.132812 -11.84375 32.296875 -9.570312 29.609375 -7.40625 C 26.929688 -5.238281 24.722656 -3.460938 22.984375 -2.078125 C 21.253906 -0.691406 20.390625 0 20.390625 0 C 17.441406 -1.820312 14.992188 -4.613281 13.046875 -8.375 C 11.097656 -12.144531 10.171875 -16.929688 10.265625 -22.734375 L 10.265625 -65.71875 C 10.171875 -69.707031 9.257812 -72.265625 7.53125 -73.390625 C 5.800781 -74.515625 2.988281 -73.863281 -0.90625 -71.4375 L -3.125 -75.59375 L 21.046875 -95.203125 C 23.722656 -93.304688 25.796875 -91.359375 27.265625 -89.359375 C 28.742188 -87.367188 29.804688 -84.988281 30.453125 -82.21875 C 31.109375 -79.445312 31.390625 -75.941406 31.296875 -71.703125 L 31.171875 -22.34375 C 33.597656 -22.34375 36.21875 -23.078125 39.03125 -24.546875 C 41.84375 -26.015625 44.460938 -27.632812 46.890625 -29.40625 C 49.316406 -31.1875 51.132812 -32.597656 52.34375 -33.640625 L 52.34375 -65.71875 C 52.257812 -69.707031 51.375 -72.265625 49.6875 -73.390625 C 48 -74.515625 45.25 -73.863281 41.4375 -71.4375 L 39.234375 -75.46875 L 63.125 -95.203125 C 65.726562 -93.304688 67.785156 -91.335938 69.296875 -89.296875 C 70.804688 -87.265625 71.882812 -84.882812 72.53125 -82.15625 C 73.1875 -79.425781 73.472656 -75.941406 73.390625 -71.703125 L 73.515625 -27.921875 C 73.597656 -23.503906 74.222656 -20.796875 75.390625 -19.796875 C 76.566406 -18.804688 78.628906 -19.394531 81.578125 -21.5625 Z M 81.578125 -21.5625 "/></g></g></g><g fill="#951abe" fill-opacity="1"><g transform="translate(593.950304, 398.267609)"><g><path d="M 112.75 -21.5625 L 115.734375 -17.53125 L 94.171875 0 C 91.222656 -1.820312 88.773438 -4.613281 86.828125 -8.375 C 84.878906 -12.144531 83.90625 -16.929688 83.90625 -22.734375 L 83.65625 -76.375 C 82.351562 -76.375 81.09375 -75.378906 79.875 -73.390625 C 78.664062 -71.398438 77.453125 -68.78125 76.234375 -65.53125 C 75.023438 -62.28125 73.835938 -58.640625 72.671875 -54.609375 C 71.503906 -50.585938 70.378906 -46.5 69.296875 -42.34375 C 68.210938 -38.1875 67.195312 -34.289062 66.25 -30.65625 C 67.800781 -28.664062 69.289062 -27.320312 70.71875 -26.625 C 72.15625 -25.9375 73.4375 -26.109375 74.5625 -27.140625 L 76.765625 -23.765625 L 57.9375 -6.75 C 55.851562 -6.75 53.75 -8.113281 51.625 -10.84375 C 49.507812 -13.570312 47.320312 -17.1875 45.0625 -21.6875 C 42.8125 -26.195312 40.453125 -31.175781 37.984375 -36.625 C 35.523438 -42.082031 32.910156 -47.492188 30.140625 -52.859375 C 30.046875 -48.273438 30.039062 -43.796875 30.125 -39.421875 C 30.21875 -35.046875 30.4375 -31.257812 30.78125 -28.0625 C 31.125 -24.332031 31.796875 -21.773438 32.796875 -20.390625 C 33.796875 -19.003906 35.8125 -19.394531 38.84375 -21.5625 L 41.828125 -17.53125 L 20.390625 0 C 17.441406 -1.820312 14.84375 -4.613281 12.59375 -8.375 C 10.34375 -12.144531 9.21875 -16.929688 9.21875 -22.734375 L 9.21875 -65.71875 C 9.132812 -69.789062 8.378906 -72.367188 6.953125 -73.453125 C 5.523438 -74.535156 2.90625 -73.863281 -0.90625 -71.4375 L -3.125 -75.59375 L 20.390625 -95.203125 C 23.335938 -95.203125 26.300781 -93.796875 29.28125 -90.984375 C 32.269531 -88.171875 35.238281 -84.488281 38.1875 -79.9375 C 41.132812 -75.394531 44.015625 -70.460938 46.828125 -65.140625 C 49.640625 -59.816406 52.34375 -54.644531 54.9375 -49.625 C 57.019531 -55.507812 59.46875 -61.175781 62.28125 -66.625 C 65.09375 -72.082031 68.164062 -76.953125 71.5 -81.234375 C 74.832031 -85.523438 78.40625 -88.925781 82.21875 -91.4375 C 86.03125 -93.945312 90.015625 -95.203125 94.171875 -95.203125 C 96.765625 -93.304688 98.816406 -91.359375 100.328125 -89.359375 C 101.847656 -87.367188 102.929688 -84.988281 103.578125 -82.21875 C 104.234375 -79.445312 104.519531 -75.984375 104.4375 -71.828125 L 104.5625 -28.0625 C 105 -24.332031 105.691406 -21.773438 106.640625 -20.390625 C 107.585938 -19.003906 109.625 -19.394531 112.75 -21.5625 Z M 112.75 -21.5625 "/></g></g></g><g clip-path="url(#2aef15f66a)"><path fill="#951abe" d="M 117.851562 245.128906 C 115.019531 243.238281 100.101562 243.003906 87.796875 251.519531 C 76.25 259.511719 67.636719 275.414062 66.601562 277.355469 C 66.421875 276.375 66.125 275.429688 65.71875 274.519531 C 66.269531 274.238281 66.710938 273.832031 67.03125 273.304688 C 67.355469 272.777344 67.519531 272.203125 67.519531 271.585938 C 67.519531 270.964844 67.355469 270.390625 67.03125 269.863281 C 66.710938 269.335938 66.269531 268.929688 65.71875 268.648438 C 66.105469 267.914062 66.679688 266.710938 67.292969 265.3125 C 67.902344 263.914062 68.421875 262.65625 68.703125 261.867188 C 68.886719 261.867188 69.058594 261.820312 69.210938 261.71875 C 69.367188 261.617188 69.480469 261.480469 69.554688 261.308594 C 69.808594 260.816406 69.730469 260.230469 69.382812 260.015625 C 69.035156 259.800781 68.546875 260.015625 68.292969 260.5 C 68.035156 260.980469 68.113281 261.546875 68.449219 261.777344 C 68.0625 262.515625 67.496094 263.71875 66.886719 265.089844 C 66.28125 266.464844 65.753906 267.765625 65.46875 268.550781 C 64.839844 268.34375 64.222656 268.378906 63.621094 268.652344 C 63.347656 267.875 62.8125 266.5625 62.164062 265.089844 C 61.558594 263.710938 60.988281 262.507812 60.605469 261.777344 C 60.9375 261.546875 61.011719 260.980469 60.761719 260.5 C 60.511719 260.015625 60.015625 259.792969 59.667969 260.015625 C 59.324219 260.242188 59.238281 260.820312 59.5 261.308594 C 59.570312 261.480469 59.683594 261.617188 59.839844 261.71875 C 59.996094 261.820312 60.164062 261.867188 60.351562 261.867188 C 60.632812 262.65625 61.144531 263.910156 61.761719 265.3125 C 62.40625 266.78125 63.011719 268.046875 63.398438 268.757812 C 62.90625 269.054688 62.519531 269.453125 62.238281 269.957031 C 61.960938 270.460938 61.828125 271 61.839844 271.574219 C 61.824219 272.199219 61.980469 272.777344 62.304688 273.308594 C 62.632812 273.839844 63.078125 274.242188 63.640625 274.511719 C 63.269531 275.261719 62.933594 276.40625 62.65625 277.84375 C 62.640625 277.648438 62.628906 277.542969 62.628906 277.542969 C 62.628906 277.542969 53.636719 260.039062 41.332031 251.519531 C 29.027344 243 14.117188 243.238281 11.28125 245.128906 C 8.441406 247.019531 10.449219 253.769531 13.527344 255.78125 C 16.605469 257.792969 15.898438 260.039062 15.421875 262.40625 C 14.945312 264.769531 14.710938 268.203125 16.484375 269.035156 C 18.257812 269.871094 18.257812 271.046875 17.902344 274.125 C 17.550781 277.203125 17.785156 279.09375 19.796875 279.566406 C 21.808594 280.039062 19.085938 281.816406 21.808594 282.878906 C 24.53125 283.941406 33.640625 283.828125 35.296875 282.878906 C 35.296875 282.878906 23.347656 290.925781 23.347656 294.828125 C 23.347656 298.734375 22.636719 299.207031 25.359375 302.757812 C 28.082031 306.308594 24.777344 307.011719 27.488281 309.972656 C 30.199219 312.929688 27.488281 314.707031 30.328125 316.832031 C 33.164062 318.957031 31.273438 321.09375 34.941406 322.15625 C 38.609375 323.21875 38.375 327.125 41.804688 325.816406 C 45.234375 324.511719 48.195312 324.988281 49.730469 321.558594 C 51.078125 318.5625 59.367188 299.234375 61.917969 291.46875 C 62.21875 297.867188 63.339844 302.625 64.679688 302.625 C 65.972656 302.625 67.070312 298.160156 67.410156 292.074219 C 70.167969 300.1875 78.085938 318.640625 79.394531 321.5625 C 80.933594 324.996094 83.894531 324.519531 87.324219 325.824219 C 90.753906 327.128906 90.519531 323.21875 94.1875 322.164062 C 97.855469 321.105469 95.960938 318.96875 98.800781 316.839844 C 101.640625 314.707031 98.917969 312.933594 101.640625 309.976562 C 104.363281 307.019531 101.050781 306.316406 103.773438 302.761719 C 106.496094 299.203125 105.785156 298.738281 105.785156 294.832031 C 105.785156 290.925781 93.832031 282.882812 93.832031 282.882812 C 95.488281 283.828125 104.601562 283.945312 107.320312 282.882812 C 110.042969 281.816406 107.320312 280.042969 109.332031 279.570312 C 111.34375 279.09375 111.582031 277.199219 111.226562 274.125 C 110.871094 271.050781 110.871094 269.859375 112.648438 269.035156 C 114.429688 268.214844 114.1875 264.777344 113.714844 262.410156 C 113.238281 260.042969 112.53125 257.792969 115.605469 255.785156 C 118.683594 253.773438 120.691406 247.023438 117.851562 245.128906 Z M 117.851562 245.128906 " fill-opacity="1" fill-rule="nonzero"/></g><path fill="#951abe" d="M 835.308594 202.980469 C 832.476562 201.089844 817.558594 200.851562 805.253906 209.371094 C 793.710938 217.359375 785.09375 233.265625 784.058594 235.203125 C 783.878906 234.226562 783.585938 233.28125 783.175781 232.371094 C 783.730469 232.089844 784.167969 231.683594 784.492188 231.15625 C 784.8125 230.628906 784.976562 230.054688 784.976562 229.433594 C 784.976562 228.816406 784.8125 228.242188 784.492188 227.714844 C 784.167969 227.183594 783.730469 226.78125 783.175781 226.5 C 783.566406 225.765625 784.136719 224.5625 784.75 223.164062 C 785.359375 221.765625 785.878906 220.507812 786.160156 219.71875 C 786.34375 219.71875 786.515625 219.667969 786.671875 219.566406 C 786.824219 219.464844 786.9375 219.328125 787.011719 219.160156 C 787.265625 218.667969 787.191406 218.082031 786.839844 217.867188 C 786.492188 217.652344 786.003906 217.867188 785.75 218.347656 C 785.496094 218.832031 785.570312 219.394531 785.90625 219.628906 C 785.519531 220.367188 784.953125 221.566406 784.34375 222.941406 C 783.738281 224.316406 783.210938 225.613281 782.925781 226.402344 C 782.296875 226.195312 781.679688 226.230469 781.078125 226.503906 C 780.804688 225.726562 780.273438 224.414062 779.625 222.941406 C 779.015625 221.5625 778.449219 220.355469 778.0625 219.628906 C 778.394531 219.394531 778.46875 218.832031 778.21875 218.347656 C 777.96875 217.867188 777.472656 217.644531 777.128906 217.867188 C 776.78125 218.089844 776.695312 218.671875 776.957031 219.160156 C 777.03125 219.328125 777.144531 219.464844 777.296875 219.566406 C 777.453125 219.667969 777.621094 219.71875 777.808594 219.71875 C 778.09375 220.503906 778.601562 221.757812 779.21875 223.164062 C 779.863281 224.628906 780.46875 225.898438 780.855469 226.609375 C 780.363281 226.90625 779.976562 227.304688 779.699219 227.808594 C 779.417969 228.308594 779.285156 228.847656 779.296875 229.425781 C 779.28125 230.046875 779.4375 230.628906 779.761719 231.160156 C 780.089844 231.691406 780.535156 232.09375 781.097656 232.363281 C 780.726562 233.113281 780.390625 234.253906 780.113281 235.695312 C 780.097656 235.5 780.085938 235.394531 780.085938 235.394531 C 780.085938 235.394531 771.09375 217.890625 758.789062 209.371094 C 746.484375 200.851562 731.574219 201.089844 728.738281 202.980469 C 725.898438 204.871094 727.90625 211.617188 730.984375 213.628906 C 734.0625 215.640625 733.355469 217.890625 732.878906 220.253906 C 732.402344 222.621094 732.167969 226.054688 733.941406 226.886719 C 735.71875 227.71875 735.71875 228.898438 735.363281 231.972656 C 735.007812 235.050781 735.242188 236.945312 737.253906 237.417969 C 739.265625 237.886719 736.542969 239.664062 739.265625 240.730469 C 741.988281 241.792969 751.097656 241.675781 752.753906 240.730469 C 752.753906 240.730469 740.804688 248.777344 740.804688 252.679688 C 740.804688 256.585938 740.09375 257.058594 742.816406 260.609375 C 745.539062 264.15625 742.234375 264.863281 744.945312 267.820312 C 747.65625 270.777344 744.945312 272.558594 747.785156 274.683594 C 750.625 276.804688 748.734375 278.941406 752.398438 280.007812 C 756.066406 281.070312 755.832031 284.976562 759.261719 283.667969 C 762.691406 282.359375 765.652344 282.839844 767.191406 279.410156 C 768.535156 276.414062 776.824219 257.085938 779.375 249.316406 C 779.675781 255.71875 780.796875 260.476562 782.136719 260.476562 C 783.429688 260.476562 784.527344 256.011719 784.867188 249.921875 C 787.628906 258.039062 795.542969 276.492188 796.855469 279.414062 C 798.390625 282.847656 801.351562 282.371094 804.78125 283.675781 C 808.210938 284.976562 807.976562 281.070312 811.644531 280.011719 C 815.3125 278.957031 813.417969 276.820312 816.257812 274.691406 C 819.101562 272.558594 816.378906 270.785156 819.101562 267.828125 C 821.820312 264.871094 818.507812 264.167969 821.230469 260.609375 C 823.953125 257.054688 823.242188 256.585938 823.242188 252.683594 C 823.242188 248.777344 811.289062 240.730469 811.289062 240.730469 C 812.945312 241.679688 822.058594 241.796875 824.777344 240.730469 C 827.5 239.667969 824.777344 237.894531 826.789062 237.417969 C 828.800781 236.945312 829.039062 235.050781 828.683594 231.976562 C 828.328125 228.902344 828.328125 227.710938 830.109375 226.886719 C 831.886719 226.0625 831.644531 222.625 831.171875 220.261719 C 830.699219 217.894531 829.988281 215.644531 833.066406 213.636719 C 836.140625 211.625 838.148438 204.875 835.308594 202.980469 Z M 835.308594 202.980469 " fill-opacity="1" fill-rule="nonzero"/><path fill="#951abe" d="M 354.09375 504.027344 C 351.261719 502.136719 336.34375 501.902344 324.039062 510.417969 C 312.492188 518.410156 303.878906 534.3125 302.84375 536.253906 C 302.664062 535.273438 302.367188 534.328125 301.960938 533.417969 C 302.515625 533.136719 302.953125 532.734375 303.273438 532.203125 C 303.597656 531.675781 303.761719 531.101562 303.761719 530.484375 C 303.761719 529.863281 303.597656 529.289062 303.273438 528.761719 C 302.953125 528.234375 302.515625 527.828125 301.960938 527.546875 C 302.347656 526.8125 302.921875 525.609375 303.535156 524.210938 C 304.144531 522.8125 304.664062 521.554688 304.945312 520.765625 C 305.128906 520.765625 305.300781 520.71875 305.457031 520.617188 C 305.609375 520.515625 305.722656 520.378906 305.796875 520.207031 C 306.050781 519.714844 305.972656 519.132812 305.625 518.914062 C 305.277344 518.699219 304.789062 518.914062 304.535156 519.398438 C 304.28125 519.878906 304.355469 520.445312 304.691406 520.675781 C 304.304688 521.414062 303.738281 522.617188 303.128906 523.988281 C 302.523438 525.363281 301.996094 526.664062 301.710938 527.449219 C 301.082031 527.246094 300.464844 527.277344 299.863281 527.550781 C 299.589844 526.773438 299.054688 525.460938 298.410156 523.988281 C 297.800781 522.609375 297.230469 521.40625 296.847656 520.675781 C 297.179688 520.445312 297.253906 519.878906 297.003906 519.398438 C 296.753906 518.914062 296.257812 518.691406 295.910156 518.914062 C 295.566406 519.140625 295.480469 519.71875 295.742188 520.207031 C 295.8125 520.378906 295.925781 520.515625 296.082031 520.617188 C 296.238281 520.71875 296.40625 520.765625 296.59375 520.765625 C 296.875 521.554688 297.386719 522.808594 298.003906 524.210938 C 298.648438 525.679688 299.253906 526.945312 299.640625 527.65625 C 299.148438 527.953125 298.761719 528.351562 298.480469 528.855469 C 298.203125 529.359375 298.070312 529.898438 298.082031 530.472656 C 298.066406 531.097656 298.222656 531.675781 298.546875 532.207031 C 298.875 532.742188 299.320312 533.140625 299.882812 533.410156 C 299.511719 534.160156 299.175781 535.304688 298.898438 536.746094 C 298.882812 536.546875 298.871094 536.441406 298.871094 536.441406 C 298.871094 536.441406 289.878906 518.9375 277.574219 510.417969 C 265.269531 501.898438 250.359375 502.136719 247.523438 504.027344 C 244.683594 505.917969 246.691406 512.667969 249.769531 514.679688 C 252.847656 516.691406 252.140625 518.9375 251.664062 521.304688 C 251.1875 523.667969 250.953125 527.101562 252.726562 527.933594 C 254.5 528.769531 254.5 529.945312 254.148438 533.023438 C 253.792969 536.101562 254.027344 537.992188 256.039062 538.464844 C 258.050781 538.9375 255.328125 540.714844 258.050781 541.777344 C 260.773438 542.839844 269.882812 542.726562 271.539062 541.777344 C 271.539062 541.777344 259.589844 549.824219 259.589844 553.730469 C 259.589844 557.632812 258.878906 558.105469 261.601562 561.65625 C 264.324219 565.207031 261.019531 565.914062 263.730469 568.871094 C 266.441406 571.828125 263.730469 573.609375 266.570312 575.730469 C 269.40625 577.855469 267.515625 579.992188 271.183594 581.054688 C 274.851562 582.121094 274.617188 586.023438 278.046875 584.71875 C 281.476562 583.410156 284.4375 583.886719 285.976562 580.457031 C 287.320312 577.460938 295.609375 558.132812 298.160156 550.367188 C 298.460938 556.769531 299.582031 561.523438 300.921875 561.523438 C 302.214844 561.523438 303.3125 557.0625 303.652344 550.972656 C 306.410156 559.085938 314.328125 577.539062 315.636719 580.464844 C 317.175781 583.894531 320.136719 583.421875 323.566406 584.722656 C 326.996094 586.027344 326.761719 582.121094 330.429688 581.0625 C 334.097656 580.003906 332.203125 577.867188 335.042969 575.738281 C 337.882812 573.609375 335.160156 571.832031 337.882812 568.875 C 340.605469 565.917969 337.292969 565.214844 340.015625 561.660156 C 342.738281 558.101562 342.027344 557.636719 342.027344 553.730469 C 342.027344 549.824219 330.074219 541.78125 330.074219 541.78125 C 331.730469 542.726562 340.84375 542.84375 343.5625 541.78125 C 346.285156 540.714844 343.5625 538.941406 345.574219 538.46875 C 347.585938 537.992188 347.824219 536.097656 347.46875 533.023438 C 347.113281 529.953125 347.113281 528.757812 348.890625 527.933594 C 350.671875 527.113281 350.429688 523.675781 349.957031 521.308594 C 349.480469 518.941406 348.773438 516.691406 351.847656 514.683594 C 354.925781 512.675781 356.933594 505.925781 354.09375 504.027344 Z M 354.09375 504.027344 " fill-opacity="1" fill-rule="nonzero"/><path fill="#951abe" d="M 497.6875 158.316406 C 494.855469 156.425781 479.9375 156.1875 467.632812 164.707031 C 456.089844 172.699219 447.472656 188.601562 446.441406 190.542969 C 446.257812 189.5625 445.964844 188.617188 445.554688 187.707031 C 446.109375 187.425781 446.546875 187.019531 446.871094 186.492188 C 447.191406 185.964844 447.355469 185.390625 447.355469 184.769531 C 447.355469 184.152344 447.191406 183.578125 446.871094 183.050781 C 446.546875 182.523438 446.109375 182.117188 445.554688 181.835938 C 445.945312 181.101562 446.515625 179.898438 447.128906 178.5 C 447.742188 177.101562 448.257812 175.84375 448.539062 175.054688 C 448.726562 175.054688 448.894531 175.003906 449.050781 174.902344 C 449.203125 174.800781 449.316406 174.667969 449.390625 174.496094 C 449.644531 174.003906 449.570312 173.417969 449.21875 173.203125 C 448.871094 172.988281 448.382812 173.203125 448.128906 173.6875 C 447.875 174.167969 447.949219 174.734375 448.285156 174.964844 C 447.898438 175.703125 447.332031 176.902344 446.722656 178.277344 C 446.117188 179.652344 445.589844 180.949219 445.304688 181.738281 C 444.675781 181.53125 444.058594 181.566406 443.457031 181.839844 C 443.183594 181.0625 442.652344 179.75 442.003906 178.277344 C 441.394531 176.898438 440.828125 175.691406 440.441406 174.964844 C 440.773438 174.734375 440.847656 174.167969 440.597656 173.6875 C 440.347656 173.203125 439.851562 172.980469 439.507812 173.203125 C 439.160156 173.425781 439.074219 174.007812 439.335938 174.496094 C 439.410156 174.667969 439.523438 174.800781 439.675781 174.902344 C 439.832031 175.003906 440 175.054688 440.1875 175.054688 C 440.472656 175.84375 440.980469 177.09375 441.597656 178.5 C 442.242188 179.964844 442.847656 181.234375 443.234375 181.945312 C 442.742188 182.242188 442.355469 182.640625 442.078125 183.144531 C 441.796875 183.648438 441.664062 184.1875 441.675781 184.761719 C 441.660156 185.386719 441.816406 185.964844 442.140625 186.496094 C 442.46875 187.027344 442.914062 187.429688 443.476562 187.699219 C 443.105469 188.449219 442.769531 189.589844 442.492188 191.03125 C 442.476562 190.835938 442.464844 190.730469 442.464844 190.730469 C 442.464844 190.730469 433.472656 173.226562 421.167969 164.707031 C 408.863281 156.1875 393.953125 156.425781 391.117188 158.316406 C 388.277344 160.207031 390.285156 166.957031 393.363281 168.96875 C 396.441406 170.980469 395.734375 173.226562 395.257812 175.59375 C 394.78125 177.957031 394.546875 181.390625 396.320312 182.222656 C 398.097656 183.058594 398.097656 184.234375 397.742188 187.3125 C 397.386719 190.386719 397.621094 192.28125 399.632812 192.753906 C 401.644531 193.226562 398.921875 195 401.644531 196.066406 C 404.367188 197.128906 413.480469 197.011719 415.136719 196.066406 C 415.136719 196.066406 403.183594 204.113281 403.183594 208.015625 C 403.183594 211.921875 402.472656 212.394531 405.195312 215.945312 C 407.917969 219.492188 404.613281 220.199219 407.324219 223.15625 C 410.035156 226.113281 407.324219 227.894531 410.164062 230.019531 C 413.003906 232.144531 411.113281 234.28125 414.78125 235.34375 C 418.445312 236.40625 418.210938 240.3125 421.640625 239.003906 C 425.070312 237.699219 428.03125 238.175781 429.570312 234.746094 C 430.914062 231.75 439.203125 212.421875 441.753906 204.65625 C 442.054688 211.054688 443.175781 215.8125 444.515625 215.8125 C 445.808594 215.8125 446.90625 211.347656 447.246094 205.261719 C 450.007812 213.375 457.921875 231.828125 459.234375 234.75 C 460.769531 238.183594 463.730469 237.707031 467.160156 239.011719 C 470.589844 240.3125 470.355469 236.40625 474.023438 235.351562 C 477.691406 234.292969 475.796875 232.15625 478.636719 230.027344 C 481.480469 227.894531 478.757812 226.121094 481.480469 223.164062 C 484.203125 220.207031 480.886719 219.503906 483.609375 215.945312 C 486.332031 212.390625 485.621094 211.921875 485.621094 208.019531 C 485.621094 204.113281 473.667969 196.066406 473.667969 196.066406 C 475.324219 197.015625 484.4375 197.132812 487.160156 196.066406 C 489.878906 195.003906 487.160156 193.230469 489.167969 192.753906 C 491.179688 192.28125 491.417969 190.386719 491.0625 187.3125 C 490.707031 184.238281 490.707031 183.046875 492.488281 182.222656 C 494.265625 181.402344 494.023438 177.964844 493.550781 175.597656 C 493.078125 173.230469 492.367188 170.980469 495.445312 168.972656 C 498.519531 166.960938 500.527344 160.210938 497.6875 158.316406 Z M 497.6875 158.316406 " fill-opacity="1" fill-rule="nonzero"/><g clip-path="url(#0559f6f36d)"><path fill="#951abe" d="M 596.917969 479.207031 C 594.085938 477.316406 579.171875 477.078125 566.867188 485.597656 C 555.320312 493.589844 546.703125 509.492188 545.671875 511.433594 C 545.488281 510.453125 545.195312 509.507812 544.789062 508.597656 C 545.339844 508.316406 545.777344 507.910156 546.101562 507.382812 C 546.425781 506.855469 546.585938 506.28125 546.585938 505.660156 C 546.585938 505.042969 546.425781 504.46875 546.101562 503.941406 C 545.777344 503.414062 545.339844 503.007812 544.789062 502.726562 C 545.175781 501.992188 545.75 500.789062 546.359375 499.390625 C 546.972656 497.992188 547.488281 496.734375 547.769531 495.945312 C 547.957031 495.945312 548.125 495.894531 548.28125 495.792969 C 548.4375 495.691406 548.550781 495.558594 548.621094 495.386719 C 548.875 494.894531 548.800781 494.308594 548.453125 494.09375 C 548.101562 493.878906 547.613281 494.09375 547.359375 494.578125 C 547.105469 495.058594 547.179688 495.625 547.515625 495.855469 C 547.132812 496.59375 546.5625 497.792969 545.957031 499.167969 C 545.347656 500.542969 544.820312 501.839844 544.535156 502.628906 C 543.90625 502.421875 543.289062 502.457031 542.6875 502.730469 C 542.414062 501.953125 541.882812 500.640625 541.234375 499.167969 C 540.625 497.789062 540.058594 496.582031 539.671875 495.855469 C 540.007812 495.625 540.078125 495.058594 539.828125 494.578125 C 539.578125 494.09375 539.085938 493.871094 538.738281 494.09375 C 538.390625 494.316406 538.308594 494.898438 538.566406 495.386719 C 538.640625 495.558594 538.753906 495.691406 538.910156 495.792969 C 539.0625 495.894531 539.234375 495.945312 539.417969 495.945312 C 539.703125 496.734375 540.214844 497.984375 540.828125 499.390625 C 541.476562 500.855469 542.082031 502.125 542.464844 502.835938 C 541.972656 503.132812 541.585938 503.53125 541.308594 504.035156 C 541.027344 504.535156 540.894531 505.074219 540.90625 505.652344 C 540.890625 506.277344 541.046875 506.855469 541.375 507.386719 C 541.699219 507.917969 542.144531 508.320312 542.710938 508.589844 C 542.335938 509.339844 542 510.480469 541.726562 511.921875 C 541.707031 511.726562 541.695312 511.621094 541.695312 511.621094 C 541.695312 511.621094 532.707031 494.117188 520.402344 485.597656 C 508.097656 477.078125 493.1875 477.316406 490.347656 479.207031 C 487.507812 481.097656 489.519531 487.847656 492.597656 489.859375 C 495.671875 491.871094 494.964844 494.117188 494.488281 496.484375 C 494.011719 498.847656 493.777344 502.28125 495.554688 503.113281 C 497.328125 503.949219 497.328125 505.125 496.972656 508.203125 C 496.617188 511.277344 496.855469 513.171875 498.867188 513.644531 C 500.878906 514.117188 498.15625 515.890625 500.878906 516.957031 C 503.597656 518.019531 512.710938 517.902344 514.367188 516.957031 C 514.367188 516.957031 502.414062 525.003906 502.414062 528.90625 C 502.414062 532.8125 501.703125 533.285156 504.425781 536.835938 C 507.148438 540.382812 503.84375 541.089844 506.554688 544.046875 C 509.269531 547.003906 506.554688 548.785156 509.394531 550.910156 C 512.234375 553.035156 510.34375 555.171875 514.011719 556.234375 C 517.679688 557.296875 517.441406 561.203125 520.871094 559.894531 C 524.304688 558.589844 527.261719 559.066406 528.800781 555.636719 C 530.144531 552.640625 538.433594 533.3125 540.988281 525.546875 C 541.285156 531.945312 542.40625 536.703125 543.746094 536.703125 C 545.039062 536.703125 546.136719 532.238281 546.480469 526.152344 C 549.238281 534.265625 557.15625 552.71875 558.464844 555.640625 C 560 559.074219 562.960938 558.597656 566.390625 559.902344 C 569.824219 561.203125 569.585938 557.296875 573.253906 556.242188 C 576.921875 555.183594 575.027344 553.046875 577.871094 550.917969 C 580.710938 548.785156 577.988281 547.011719 580.710938 544.054688 C 583.433594 541.097656 580.117188 540.394531 582.839844 536.835938 C 585.5625 533.28125 584.851562 532.8125 584.851562 528.910156 C 584.851562 525.003906 572.902344 516.957031 572.902344 516.957031 C 574.558594 517.90625 583.667969 518.023438 586.390625 516.957031 C 589.109375 515.894531 586.390625 514.121094 588.402344 513.644531 C 590.414062 513.171875 590.648438 511.277344 590.292969 508.203125 C 589.9375 505.128906 589.9375 503.9375 591.71875 503.113281 C 593.496094 502.292969 593.253906 498.855469 592.78125 496.488281 C 592.308594 494.121094 591.597656 491.871094 594.675781 489.863281 C 597.75 487.851562 599.761719 481.101562 596.917969 479.207031 Z M 596.917969 479.207031 " fill-opacity="1" fill-rule="nonzero"/></g></svg>