<svg xmlns="http://www.w3.org/2000/svg" xmlns:xlink="http://www.w3.org/1999/xlink" width="100" zoomAndPan="magnify" viewBox="0 0 75 67.499998" height="90" preserveAspectRatio="xMidYMid meet" version="1.0"><defs><clipPath id="75961458de"><path d="M 0.277344 0 L 74.722656 0 L 74.722656 67.003906 L 0.277344 67.003906 Z M 0.277344 0 " clip-rule="nonzero"/></clipPath><clipPath id="9c5016661d"><path d="M 12.1875 6.699219 L 61 6.699219 L 61 57 L 12.1875 57 Z M 12.1875 6.699219 " clip-rule="nonzero"/></clipPath><clipPath id="a653b7837c"><path d="M 36 27 L 62.8125 27 L 62.8125 57.324219 L 36 57.324219 Z M 36 27 " clip-rule="nonzero"/></clipPath></defs><g clip-path="url(#75961458de)"><path fill="#ffffff" d="M 0.277344 0 L 74.722656 0 L 74.722656 67.003906 L 0.277344 67.003906 Z M 0.277344 0 " fill-opacity="1" fill-rule="nonzero"/><path fill="#ffffff" d="M 0.277344 0 L 74.722656 0 L 74.722656 67.003906 L 0.277344 67.003906 Z M 0.277344 0 " fill-opacity="1" fill-rule="nonzero"/></g><g clip-path="url(#9c5016661d)"><path fill="#ea1f3a" d="M 32.464844 47.332031 L 32.464844 55.40625 C 32.464844 56.148438 31.765625 56.679688 31.050781 56.492188 C 20.207031 53.632812 12.1875 43.742188 12.1875 32.011719 C 12.1875 18.054688 23.542969 6.699219 37.5 6.699219 C 47.722656 6.699219 56.886719 12.792969 60.84375 22.214844 L 60.84375 22.21875 C 61.152344 22.957031 60.609375 23.773438 59.808594 23.773438 L 50.046875 23.773438 C 49.707031 23.773438 49.386719 23.621094 49.171875 23.355469 C 46.359375 19.796875 42.066406 17.699219 37.5 17.699219 C 28.980469 17.699219 22.109375 24.902344 22.660156 33.542969 C 23.023438 39.261719 26.679688 44.167969 31.773438 46.296875 C 32.191406 46.472656 32.464844 46.878906 32.464844 47.332031 " fill-opacity="1" fill-rule="evenodd"/></g><g clip-path="url(#a653b7837c)"><path fill="#f6b433" d="M 62.8125 32.011719 C 62.8125 33.378906 62.703125 34.75 62.484375 36.085938 C 61.535156 41.953125 58.515625 47.328125 53.984375 51.222656 C 49.402344 55.15625 43.546875 57.324219 37.5 57.324219 C 37.394531 57.324219 37.285156 57.324219 37.179688 57.324219 C 36.566406 57.316406 36.070312 56.816406 36.070312 56.203125 L 36.070312 48.558594 C 36.070312 47.929688 36.589844 47.425781 37.21875 47.4375 C 42.992188 47.546875 48.160156 44.324219 50.703125 39.425781 C 51.089844 38.679688 50.542969 37.792969 49.703125 37.792969 L 37.191406 37.792969 C 36.574219 37.792969 36.070312 37.289062 36.070312 36.671875 L 36.070312 28.472656 C 36.070312 27.851562 36.574219 27.351562 37.191406 27.351562 L 61.445312 27.351562 C 62.015625 27.351562 62.496094 27.777344 62.558594 28.347656 L 62.652344 29.15625 C 62.757812 30.097656 62.8125 31.0625 62.8125 32.011719 " fill-opacity="1" fill-rule="evenodd"/></g></svg>