<svg xmlns="http://www.w3.org/2000/svg" xmlns:xlink="http://www.w3.org/1999/xlink" width="50" zoomAndPan="magnify" viewBox="0 0 37.5 37.499999" height="50" preserveAspectRatio="xMidYMid meet" version="1.0"><defs><clipPath id="45f651ab7d"><path d="M 1.136719 26 L 8 26 L 8 33.679688 L 1.136719 33.679688 Z M 1.136719 26 " clip-rule="nonzero"/></clipPath><clipPath id="f2481f4b80"><path d="M 6 3.335938 L 35.921875 3.335938 L 35.921875 29 L 6 29 Z M 6 3.335938 " clip-rule="nonzero"/></clipPath></defs><path fill="#000000" d="M 24.964844 13.726562 C 24.734375 13.605469 24.660156 13.3125 24.816406 13.101562 L 26.734375 10.5 C 27.050781 10.070312 26.742188 9.460938 26.207031 9.460938 L 18.648438 9.460938 C 18.113281 9.460938 17.804688 10.066406 18.121094 10.5 L 20.039062 13.101562 C 20.195312 13.3125 20.121094 13.605469 19.890625 13.726562 C 17.996094 14.703125 16.738281 16.738281 16.902344 19.050781 C 17.097656 21.828125 19.378906 24.046875 22.164062 24.175781 C 25.34375 24.324219 27.96875 21.792969 27.96875 18.648438 C 27.96875 16.503906 26.75 14.644531 24.964844 13.726562 Z M 21.804688 17.800781 C 21.929688 17.894531 22.214844 18.015625 22.644531 18.160156 C 23.035156 18.285156 23.34375 18.414062 23.5625 18.539062 C 23.78125 18.664062 23.960938 18.835938 24.097656 19.0625 C 24.234375 19.285156 24.300781 19.550781 24.300781 19.851562 C 24.300781 20.242188 24.175781 20.59375 23.933594 20.910156 C 23.824219 21.046875 23.6875 21.164062 23.523438 21.253906 C 23.375 21.339844 23.199219 21.402344 23 21.445312 C 22.984375 21.449219 22.964844 21.453125 22.945312 21.457031 L 22.945312 22.183594 L 21.90625 22.183594 L 21.90625 21.460938 C 21.882812 21.457031 21.859375 21.453125 21.835938 21.445312 C 21.175781 21.304688 20.738281 20.894531 20.527344 20.214844 L 21.503906 19.835938 C 21.523438 19.875 21.539062 19.917969 21.554688 19.957031 C 21.710938 20.316406 22.066406 20.554688 22.449219 20.558594 C 22.449219 20.558594 22.507812 20.554688 22.578125 20.550781 C 22.644531 20.542969 22.722656 20.535156 22.769531 20.523438 C 22.882812 20.492188 22.980469 20.441406 23.046875 20.371094 C 23.171875 20.246094 23.234375 20.09375 23.234375 19.917969 C 23.234375 19.734375 23.171875 19.59375 23.046875 19.5 C 22.921875 19.40625 22.640625 19.285156 22.207031 19.140625 C 21.816406 19.015625 21.511719 18.886719 21.292969 18.761719 C 21.074219 18.636719 20.894531 18.460938 20.757812 18.238281 C 20.621094 18.015625 20.550781 17.75 20.550781 17.449219 C 20.550781 17.058594 20.671875 16.707031 20.917969 16.390625 C 21.027344 16.253906 21.164062 16.136719 21.328125 16.046875 C 21.476562 15.960938 21.652344 15.898438 21.851562 15.855469 C 21.867188 15.851562 21.886719 15.851562 21.902344 15.84375 L 21.902344 15.117188 L 22.945312 15.117188 L 22.945312 15.84375 C 22.96875 15.847656 22.992188 15.851562 23.011719 15.855469 C 23.675781 15.996094 24.113281 16.410156 24.324219 17.089844 L 23.34375 17.46875 C 23.324219 17.414062 23.304688 17.367188 23.285156 17.320312 C 23.125 16.96875 22.78125 16.75 22.402344 16.75 C 22.402344 16.75 22.34375 16.75 22.277344 16.753906 C 22.207031 16.761719 22.128906 16.769531 22.082031 16.78125 C 21.964844 16.8125 21.871094 16.863281 21.800781 16.933594 C 21.675781 17.058594 21.613281 17.210938 21.613281 17.386719 C 21.617188 17.566406 21.679688 17.707031 21.804688 17.800781 Z M 21.804688 17.800781 " fill-opacity="1" fill-rule="nonzero"/><path fill="#000000" d="M 27.460938 27 C 27.003906 26.777344 26.527344 26.789062 26.046875 26.859375 C 25.167969 26.988281 24.351562 27.308594 23.613281 27.777344 C 22.726562 28.335938 21.777344 28.410156 20.800781 28.257812 C 20.011719 28.132812 19.230469 27.917969 18.453125 27.710938 C 18.058594 27.605469 17.675781 27.441406 17.285156 27.300781 C 17.261719 27.289062 17.246094 27.261719 17.25 27.234375 C 17.253906 27.207031 17.28125 27.1875 17.308594 27.1875 C 17.496094 27.203125 17.683594 27.207031 17.871094 27.238281 C 18.585938 27.359375 19.296875 27.539062 20.019531 27.609375 C 20.449219 27.652344 20.921875 27.613281 21.332031 27.476562 C 22.027344 27.246094 22.128906 26.40625 21.523438 26.007812 C 21.214844 25.804688 20.835938 25.679688 20.46875 25.613281 C 19.128906 25.378906 17.835938 25.03125 16.625 24.375 C 15.339844 23.675781 13.960938 23.265625 12.492188 23.613281 C 11.617188 23.820312 10.757812 24.132812 9.925781 24.480469 C 8.910156 24.910156 8.015625 25.445312 7.003906 25.929688 L 9.335938 30.101562 C 10.6875 29.480469 12.070312 29.40625 13.480469 29.769531 C 14.410156 30.011719 15.339844 30.257812 16.265625 30.527344 C 18.875 31.285156 21.441406 31.207031 23.933594 30.09375 C 25.128906 29.558594 26.28125 28.933594 27.453125 28.359375 C 27.730469 28.222656 27.96875 28.066406 27.96875 27.726562 C 27.972656 27.367188 27.757812 27.148438 27.460938 27 Z M 27.460938 27 " fill-opacity="1" fill-rule="nonzero"/><g clip-path="url(#45f651ab7d)"><path fill="#000000" d="M 5.53125 27.042969 C 5.414062 26.832031 5.140625 26.757812 4.929688 26.878906 L 1.5625 28.816406 C 1.246094 28.996094 1.132812 29.40625 1.320312 29.722656 C 1.878906 30.691406 2.984375 32.605469 3.34375 33.199219 C 3.480469 33.421875 3.707031 33.597656 3.964844 33.636719 C 4.160156 33.664062 4.359375 33.628906 4.539062 33.527344 L 7.320312 31.929688 C 7.746094 31.683594 7.894531 31.140625 7.648438 30.714844 Z M 6.136719 31.609375 C 5.992188 32.15625 5.421875 32.484375 4.871094 32.335938 C 4.320312 32.1875 3.992188 31.621094 4.140625 31.070312 C 4.289062 30.519531 4.859375 30.191406 5.410156 30.34375 C 5.960938 30.492188 6.285156 31.058594 6.136719 31.609375 Z M 6.136719 31.609375 " fill-opacity="1" fill-rule="nonzero"/></g><g clip-path="url(#f2481f4b80)"><path fill="#000000" d="M 22.429688 3.347656 C 15.417969 3.347656 9.640625 8.710938 8.992188 15.542969 L 6.492188 15.542969 C 6.210938 15.542969 6.046875 15.859375 6.207031 16.089844 L 9.582031 20.953125 L 9.710938 21.140625 C 9.847656 21.339844 10.144531 21.339844 10.28125 21.140625 L 11.355469 19.589844 L 13.785156 16.089844 C 13.945312 15.859375 13.78125 15.542969 13.5 15.542969 L 11.089844 15.542969 C 11.730469 9.863281 16.570312 5.425781 22.429688 5.425781 C 28.71875 5.425781 33.839844 10.539062 33.839844 16.820312 C 33.839844 20.566406 32.023438 23.894531 29.222656 25.972656 C 29.652344 26.453125 29.882812 27.0625 29.878906 27.738281 C 29.875 27.835938 29.867188 27.949219 29.851562 28.070312 C 33.507812 25.65625 35.917969 21.515625 35.917969 16.824219 C 35.921875 9.390625 29.867188 3.347656 22.429688 3.347656 Z M 22.429688 3.347656 " fill-opacity="1" fill-rule="nonzero"/></g></svg>