<svg xmlns="http://www.w3.org/2000/svg" xmlns:xlink="http://www.w3.org/1999/xlink" width="300" zoomAndPan="magnify" viewBox="0 0 224.87999 225" height="300" preserveAspectRatio="xMidYMid meet" version="1.0"><defs><clipPath id="efacb1c3a5"><path d="M 101 22 L 224.761719 22 L 224.761719 224.597656 L 101 224.597656 Z M 101 22 " clip-rule="nonzero"/></clipPath><clipPath id="73515863fe"><path d="M 9 22 L 224.761719 22 L 224.761719 224.597656 L 9 224.597656 Z M 9 22 " clip-rule="nonzero"/></clipPath><clipPath id="b37b25dc0b"><path d="M 7 0.46875 L 204 0.46875 L 204 185 L 7 185 Z M 7 0.46875 " clip-rule="nonzero"/></clipPath></defs><g clip-path="url(#efacb1c3a5)"><path fill="#d37643" d="M 225.066406 177.34375 L 225.0625 203.96875 C 223.449219 203.921875 220.324219 203.097656 220.09375 200.6875 C 219.542969 194.996094 217.242188 191.652344 215.917969 190.164062 C 215.660156 189.871094 215.640625 189.433594 215.875 189.121094 L 216.089844 188.832031 L 215.882812 188.792969 C 215.8125 188.851562 215.746094 188.914062 215.695312 188.988281 L 213.566406 188.578125 L 213.601562 188.355469 L 213.378906 188.3125 L 210.625 205.253906 L 160.882812 175.183594 L 160.449219 145.082031 L 138.695312 161.15625 L 167.296875 205.371094 L 152.117188 207.585938 L 152.214844 207.800781 L 152.449219 207.765625 C 152.796875 208.503906 153.277344 209.214844 153.800781 209.992188 C 153.800781 209.992188 153.796875 209.992188 153.796875 209.996094 C 153.734375 210.027344 153.667969 210.0625 153.601562 210.097656 C 153.605469 210.105469 153.609375 210.109375 153.613281 210.117188 L 153.726562 210.285156 L 153.902344 210.195312 C 153.960938 210.164062 154.023438 210.148438 154.089844 210.148438 C 154.238281 210.148438 154.375 210.230469 154.445312 210.359375 L 157.121094 215.371094 L 132.105469 224.496094 C 131.597656 222.964844 131.304688 219.746094 133.488281 218.703125 C 138.644531 216.234375 141 212.925781 141.941406 211.175781 C 142.082031 210.917969 142.339844 210.753906 142.636719 210.742188 L 142.984375 210.726562 L 142.890625 210.539062 C 142.800781 210.523438 142.714844 210.511719 142.625 210.515625 L 142.011719 209.289062 L 142.246094 209.257812 L 142.140625 209.042969 L 134.355469 210.179688 C 133.105469 207.011719 114.8125 160.40625 117.28125 154.238281 C 117.753906 153.058594 118.804688 151.414062 120.402344 149.351562 L 120.636719 149.050781 L 117.164062 148.515625 L 143.8125 91.457031 L 117.746094 80.34375 L 104.261719 61.558594 L 109.601562 56.769531 L 109.507812 56.554688 L 109.328125 56.714844 L 105.609375 48.421875 L 102.414062 45.121094 C 102.140625 44.839844 101.972656 44.472656 101.933594 44.082031 L 101.710938 41.699219 C 101.675781 41.296875 101.867188 40.910156 102.210938 40.695312 L 107.925781 37.128906 C 108.351562 36.863281 108.910156 36.980469 109.195312 37.394531 L 110.21875 38.890625 L 111.789062 39.039062 C 112.53125 39.109375 113.082031 39.757812 113.027344 40.5 L 112.542969 47.339844 L 115.390625 51.28125 L 115.222656 51.433594 L 115.355469 51.617188 L 115.699219 51.304688 L 128.332031 66.941406 L 147.214844 74.011719 L 157.203125 73.742188 L 157.203125 72.046875 L 155.441406 72.046875 C 154.664062 72.046875 153.519531 71.863281 153.261719 70.714844 C 152.75 68.429688 152.316406 63.730469 152.855469 61.078125 C 153.125 59.738281 153.527344 58.605469 154.097656 57.691406 C 154.136719 57.769531 154.183594 57.84375 154.226562 57.921875 C 154.246094 57.882812 154.269531 57.847656 154.289062 57.8125 L 154.355469 57.707031 L 154.304688 57.597656 C 154.117188 57.203125 154.015625 56.808594 154.003906 56.421875 C 153.988281 55.945312 154.171875 55.503906 154.550781 55.113281 C 155.902344 53.710938 159.414062 53.203125 161.445312 53.203125 C 166.542969 53.203125 169.164062 54.601562 170.207031 57.878906 C 172.660156 65.589844 167.324219 69.210938 165.910156 70.011719 L 165.910156 67.90625 C 165.835938 67.933594 165.765625 67.964844 165.683594 67.984375 C 165.683594 67.984375 165.683594 67.984375 165.683594 67.988281 L 165.683594 73.417969 L 165.457031 73.464844 L 165.457031 73.691406 L 173.015625 72.144531 L 193.503906 39.390625 L 194.4375 40.210938 L 194.550781 40.007812 L 194.375 39.855469 L 198.007812 33.414062 L 196.953125 26.058594 C 196.847656 25.324219 197.347656 24.636719 198.082031 24.511719 L 199.636719 24.25 L 200.550781 22.683594 C 200.804688 22.25 201.351562 22.09375 201.796875 22.328125 L 207.753906 25.476562 C 208.109375 25.664062 208.332031 26.039062 208.324219 26.441406 L 208.273438 28.835938 C 208.261719 29.226562 208.121094 29.605469 207.871094 29.90625 L 205.257812 33.019531 L 200.738281 45.46875 L 200.558594 45.308594 L 200.476562 45.535156 L 203.179688 47.917969 L 180.386719 94.515625 L 196.648438 151.9375 L 180.941406 153.667969 L 180.917969 153.84375 C 180.636719 156 180.394531 158.285156 180.535156 160.339844 C 180.550781 160.59375 180.578125 160.945312 198.160156 168.398438 C 206.132812 171.777344 214.199219 175.121094 215.445312 175.636719 L 214.917969 178.867188 L 215.144531 178.886719 L 215.179688 178.664062 C 215.566406 178.703125 215.949219 178.734375 216.320312 178.75 C 217.1875 178.78125 217.992188 178.660156 218.871094 178.496094 C 218.867188 178.539062 218.867188 178.582031 218.875 178.625 C 218.878906 178.65625 218.882812 178.691406 218.886719 178.722656 C 218.894531 178.722656 218.902344 178.722656 218.910156 178.71875 L 219.082031 178.6875 L 219.09375 178.515625 C 219.109375 178.324219 219.25 178.167969 219.441406 178.140625 Z M 225.066406 177.34375 " fill-opacity="1" fill-rule="nonzero"/></g><path fill="#8f411f" d="M 99.378906 65.261719 L 93.664062 61.691406 C 93.238281 61.425781 92.679688 61.542969 92.394531 61.957031 L 91.371094 63.453125 L 89.800781 63.605469 C 89.058594 63.675781 88.511719 64.324219 88.5625 65.066406 L 89.058594 72.042969 L 81.53125 84.082031 L 81.488281 84.339844 L 81.390625 84.257812 C 81.234375 84.136719 65.683594 71.839844 59.671875 70.039062 C 59.660156 70.035156 59.644531 70.035156 59.625 70.035156 C 59.59375 70.035156 59.554688 70.039062 59.492188 70.042969 L 58.347656 70.019531 C 58.851562 69.910156 59.25 69.835938 59.496094 69.816406 L 51.121094 69.65625 L 51.121094 65.375 L 52.882812 65.375 C 53.65625 65.375 54.804688 65.1875 55.0625 64.042969 C 55.574219 61.753906 56.003906 57.058594 55.46875 54.402344 C 55.386719 54.011719 55.296875 53.644531 55.195312 53.285156 C 55.136719 53.355469 55.074219 53.417969 55.011719 53.484375 C 55 53.4375 54.992188 53.394531 54.976562 53.347656 L 54.945312 53.234375 L 55.019531 53.144531 C 55.578125 52.460938 55.886719 51.59375 55.886719 50.703125 C 55.886719 48.585938 54.179688 46.859375 52.082031 46.859375 C 51.539062 46.859375 51.011719 46.976562 50.511719 47.207031 L 50.421875 47.246094 L 50.332031 47.210938 C 49.25 46.777344 47.992188 46.53125 46.878906 46.53125 C 43.722656 46.53125 41.570312 47.066406 40.101562 48.21875 L 39.800781 48.453125 L 39.742188 48.078125 C 39.449219 46.261719 37.914062 44.945312 36.09375 44.945312 C 34.058594 44.945312 32.398438 46.621094 32.398438 48.675781 L 32.398438 49.121094 L 32.039062 48.859375 C 31.242188 48.273438 30.300781 47.960938 29.324219 47.960938 C 26.769531 47.960938 24.691406 50.058594 24.691406 52.636719 C 24.691406 52.945312 24.722656 53.261719 24.785156 53.566406 L 24.59375 53.648438 L 24.5625 53.609375 L 22.496094 50.769531 L 10.304688 26.792969 L 11.371094 19.382812 C 11.476562 18.648438 10.976562 17.960938 10.242188 17.835938 L 8.683594 17.574219 L 7.769531 16.007812 C 7.519531 15.578125 6.96875 15.417969 6.527344 15.652344 L 0.566406 18.800781 C 0.210938 18.992188 -0.0078125 19.363281 0 19.765625 L 0.0507812 22.160156 C 0.0585938 22.554688 0.203125 22.929688 0.453125 23.230469 L 2.910156 26.160156 C 4.707031 31.96875 10.929688 51.914062 13.519531 57.972656 C 14.476562 60.207031 15.945312 63.179688 17.648438 66.441406 L 17.808594 66.261719 C 17.824219 66.285156 17.835938 66.3125 17.851562 66.339844 L 17.921875 66.472656 L 15.796875 68.902344 L 29.269531 87.234375 L 31.925781 105.140625 L 34.195312 105.179688 L 34.03125 105.503906 C 27.902344 117.339844 28.628906 144.09375 28.636719 144.363281 L 28.640625 144.46875 L 7.679688 163.683594 C 9.003906 164.890625 17.519531 172.476562 28.53125 178.03125 L 28.796875 178.164062 L 28.640625 178.335938 C 28.570312 178.300781 28.5 178.265625 28.429688 178.230469 C 24.394531 182.582031 20.472656 187.480469 13.972656 191.300781 L 14.078125 191.5 L 13.882812 191.613281 L 13.777344 191.410156 L 9.664062 193.589844 L 12.113281 196.957031 L 13.960938 196.324219 L 19.210938 206.707031 L 24.714844 214.265625 C 25.226562 213.441406 26.605469 210.59375 24.667969 206.144531 C 24.59375 205.976562 24.472656 205.8125 24.304688 205.648438 L 24.257812 205.601562 L 24.242188 205.539062 C 24.21875 205.445312 24.195312 205.347656 24.171875 205.246094 C 24.273438 205.324219 24.375 205.402344 24.460938 205.484375 C 23.878906 203.058594 22.535156 196.832031 22.535156 196.832031 L 41.042969 183.082031 C 40.949219 183.058594 40.859375 183.03125 40.765625 183.007812 L 40.996094 182.839844 L 41.097656 182.863281 C 42.28125 183.164062 43.457031 183.417969 44.597656 183.613281 C 47.445312 184.105469 50.453125 184.425781 53.535156 184.566406 L 53.855469 184.582031 L 53.765625 184.800781 C 53.683594 184.796875 53.605469 184.796875 53.523438 184.792969 C 50.886719 191.082031 49.382812 198.117188 44.074219 205.128906 L 44.246094 205.273438 L 44.109375 205.453125 L 43.933594 205.304688 L 40.964844 208.890625 L 44.511719 211.066406 L 45.976562 209.777344 L 54.796875 217.371094 L 62.765625 222.257812 C 62.921875 221.296875 63.101562 218.132812 59.621094 214.765625 C 59.488281 214.640625 59.320312 214.535156 59.097656 214.449219 L 59.039062 214.425781 L 59 214.371094 C 58.945312 214.296875 58.882812 214.214844 58.824219 214.128906 C 58.949219 214.160156 59.070312 214.195312 59.179688 214.238281 C 57.71875 212.21875 54.097656 206.972656 54.097656 206.972656 L 67.714844 184.277344 C 67.621094 184.285156 67.527344 184.296875 67.433594 184.304688 L 67.578125 184.066406 L 67.6875 184.054688 C 77.429688 182.957031 84.71875 180.667969 85.945312 180.269531 L 80.472656 149.007812 L 59.28125 105.617188 L 61.125 105.648438 L 63.578125 91.214844 L 78.585938 101.484375 L 79.054688 98.488281 L 79.257812 98.636719 L 79.21875 98.886719 L 81.558594 100.5625 C 83.414062 101.894531 86.027344 101.078125 86.796875 98.925781 L 96.074219 72.890625 L 99.179688 69.6875 C 99.453125 69.40625 99.621094 69.039062 99.65625 68.648438 L 99.878906 66.265625 C 99.914062 65.863281 99.722656 65.472656 99.378906 65.261719 Z M 42.640625 63.714844 L 42.640625 68.253906 L 38.269531 67.503906 C 38.347656 67.597656 38.417969 67.683594 38.492188 67.769531 L 38.148438 67.710938 L 38.097656 67.648438 C 37.769531 67.246094 37.40625 66.796875 37.027344 66.308594 L 36.621094 65.792969 L 37.257812 65.953125 C 37.636719 66.046875 38.011719 66.09375 38.375 66.09375 C 40.070312 66.09375 41.628906 65.160156 42.441406 63.65625 L 42.640625 63.707031 Z M 42.640625 63.714844 " fill-opacity="1" fill-rule="nonzero"/><g clip-path="url(#73515863fe)"><path fill="#597cff" d="M 166.414062 75.230469 L 177.980469 73.503906 L 176.402344 134.558594 L 141.375 134.558594 L 145.875 76.699219 L 156.199219 76.058594 L 157.164062 76.703125 C 157.175781 76.703125 157.191406 76.699219 157.203125 76.699219 L 157.203125 83.265625 L 162.519531 78.691406 Z M 142.3125 44.523438 L 144.261719 40.855469 L 145.570312 40.855469 C 148.472656 40.855469 150.828125 38.503906 150.828125 35.601562 L 150.828125 27.796875 C 150.828125 24.894531 148.472656 22.542969 145.570312 22.542969 L 131.1875 22.542969 C 128.285156 22.542969 125.933594 25.046875 125.933594 27.949219 L 126 35.617188 C 126 38.519531 128.351562 40.855469 131.253906 40.855469 L 140.367188 40.855469 Z M 219.40625 177.914062 C 219.109375 177.960938 218.890625 178.207031 218.871094 178.496094 C 218.867188 178.539062 218.867188 178.582031 218.875 178.625 C 219.082031 180.210938 219.578125 184.421875 219.089844 185.8125 C 218.738281 186.824219 217.109375 188.003906 215.96875 188.726562 C 215.855469 188.796875 215.765625 188.886719 215.695312 188.988281 C 215.40625 189.375 215.40625 189.925781 215.75 190.3125 C 217.050781 191.777344 219.324219 195.074219 219.867188 200.707031 C 220.125 203.375 223.621094 204.195312 225.207031 204.195312 L 225.289062 204.195312 L 225.289062 177.085938 Z M 153.800781 209.992188 C 153.800781 209.992188 153.796875 209.992188 153.792969 209.996094 C 152.375 210.734375 148.589844 212.640625 147.117188 212.664062 C 146.042969 212.679688 144.378906 211.550781 143.308594 210.726562 C 143.105469 210.570312 142.863281 210.503906 142.625 210.515625 C 142.269531 210.53125 141.929688 210.722656 141.746094 211.066406 C 140.816406 212.792969 138.496094 216.054688 133.390625 218.496094 C 130.972656 219.65625 131.398438 223.21875 131.941406 224.707031 L 131.96875 224.785156 L 157.441406 215.496094 L 154.640625 210.25 C 154.476562 209.953125 154.105469 209.835938 153.800781 209.992188 Z M 59.179688 214.238281 C 57.691406 213.644531 55.058594 214.289062 55.058594 214.289062 L 44.074219 205.128906 L 43.902344 204.984375 L 40.625 208.945312 L 44.539062 211.34375 L 45.980469 210.074219 L 54.679688 217.558594 L 62.917969 222.613281 C 62.917969 222.613281 64.089844 218.773438 59.777344 214.601562 C 59.617188 214.445312 59.410156 214.328125 59.179688 214.238281 Z M 24.460938 205.484375 C 23.304688 204.367188 20.632812 203.960938 20.632812 203.960938 L 13.972656 191.300781 L 13.871094 191.101562 L 9.328125 193.511719 L 12.03125 197.222656 L 13.847656 196.597656 L 19.03125 206.839844 L 24.71875 214.65625 C 24.71875 214.65625 27.265625 211.550781 24.871094 206.050781 C 24.78125 205.84375 24.636719 205.65625 24.460938 205.484375 Z M 59.730469 69.820312 C 59.6875 69.808594 59.605469 69.808594 59.496094 69.816406 C 58.230469 69.921875 52.90625 71.445312 49.644531 71.953125 C 45.542969 72.597656 41.519531 71.277344 39.023438 68.402344 C 38.800781 68.144531 38.542969 67.839844 38.269531 67.503906 C 37.941406 67.101562 37.585938 66.65625 37.203125 66.167969 C 33.691406 61.699219 28.328125 54.238281 28.328125 54.238281 L 26.523438 56.300781 L 17.648438 66.441406 L 15.507812 68.886719 L 29.054688 87.324219 L 31.730469 105.363281 L 33.828125 105.398438 L 34.695312 137.484375 L 58.800781 137.484375 L 59.644531 105.847656 L 61.3125 105.875 L 63.742188 91.597656 L 78.753906 101.867188 L 79.21875 98.882812 L 81.53125 84.082031 C 81.523438 84.078125 65.800781 71.640625 59.730469 69.820312 Z M 59.730469 69.820312 " fill-opacity="1" fill-rule="nonzero"/></g><g clip-path="url(#b37b25dc0b)"><path fill="#ff3131" d="M 180.628906 94.535156 L 196.9375 152.128906 L 181.140625 153.871094 L 179.105469 161.140625 L 163.386719 165.441406 L 160.179688 141.992188 L 136.976562 160.242188 L 119.179688 154.554688 L 120.222656 149.214844 L 116.832031 148.695312 L 143.507812 91.574219 L 117.597656 80.527344 L 103.960938 61.527344 L 109.328125 56.714844 L 115.390625 51.28125 L 115.726562 50.980469 L 128.46875 66.753906 L 147.25 73.785156 L 157.203125 73.519531 L 157.203125 76.648438 L 157.164062 76.703125 L 153.558594 82.246094 L 145.875 119.761719 C 146.628906 119.984375 147.464844 120.21875 148.355469 120.453125 C 159.167969 127.855469 169.527344 121.519531 169.527344 121.519531 L 162.519531 78.691406 L 162.335938 77.554688 L 165.167969 73.519531 L 165.683594 73.414062 L 172.875 71.941406 L 193.453125 39.042969 L 194.375 39.855469 L 200.738281 45.464844 L 203.457031 47.863281 Z M 59.644531 105.847656 L 33.828125 105.398438 C 27.601562 117.425781 28.410156 144.371094 28.410156 144.371094 L 7.347656 163.679688 C 7.347656 163.679688 16.324219 172.125 28.429688 178.230469 C 32.371094 180.21875 36.640625 181.960938 41.042969 183.082031 C 42.207031 183.378906 43.378906 183.632812 44.558594 183.835938 C 47.578125 184.355469 50.585938 184.65625 53.523438 184.789062 C 58.558594 185.023438 63.386719 184.761719 67.714844 184.273438 C 78.511719 183.058594 86.199219 180.417969 86.199219 180.417969 L 80.6875 148.9375 Z M 81.003906 0.621094 L 66.621094 0.621094 C 63.71875 0.621094 61.367188 2.976562 61.367188 5.875 L 61.367188 13.679688 C 61.367188 16.582031 63.71875 18.933594 66.621094 18.933594 L 67.929688 18.933594 L 69.878906 22.601562 L 71.828125 18.933594 L 80.9375 18.933594 C 83.839844 18.933594 86.191406 16.597656 86.191406 13.695312 L 86.257812 6.027344 C 86.257812 3.125 83.90625 0.621094 81.003906 0.621094 Z M 81.003906 0.621094 " fill-opacity="1" fill-rule="nonzero"/></g><path fill="#000000" d="M 134.621094 33.457031 L 135.785156 32.777344 C 136.378906 33.796875 137.351562 34.40625 138.378906 34.40625 C 139.410156 34.40625 140.378906 33.796875 140.976562 32.777344 L 142.136719 33.457031 C 141.296875 34.894531 139.894531 35.753906 138.378906 35.753906 C 136.867188 35.753906 135.460938 34.894531 134.621094 33.457031 Z M 142.722656 28.320312 L 141.375 28.320312 L 141.375 30.269531 L 142.722656 30.269531 Z M 135.382812 28.320312 L 134.039062 28.320312 L 134.039062 30.269531 L 135.382812 30.269531 Z M 180.757812 160.324219 C 180.625 158.390625 180.832031 156.230469 181.140625 153.871094 L 174.929688 154.554688 L 169.527344 121.519531 C 167.234375 122.039062 164.546875 122.425781 161.652344 122.425781 C 157.082031 122.425781 152.179688 121.453125 148.355469 120.449219 C 147.472656 121.265625 146.371094 122.289062 145.113281 123.46875 L 139.242188 152.128906 L 120.222656 149.214844 C 118.699219 151.179688 117.582031 152.882812 117.070312 154.15625 C 114.464844 160.664062 134.210938 210.429688 134.210938 210.429688 L 142.011719 209.289062 L 152.449219 207.765625 L 167.675781 205.542969 L 139 161.210938 L 160.230469 145.523438 L 160.660156 175.3125 L 210.792969 205.621094 L 213.566406 188.578125 L 215.179688 178.664062 L 215.695312 175.496094 C 215.695312 175.496094 180.808594 161.070312 180.757812 160.324219 Z M 163.390625 63.539062 C 163.371094 63.945312 163.332031 64.355469 163.269531 64.753906 C 163.234375 65 163.179688 65.242188 163.128906 65.484375 C 163.710938 65.539062 164.308594 65.609375 164.871094 65.753906 C 165.300781 64.585938 165.570312 63.355469 165.660156 62.109375 C 166.535156 61.355469 167.6875 61.035156 168.460938 61.511719 C 169.890625 62.390625 169.246094 67.023438 165.683594 67.984375 L 165.683594 70.386719 C 165.683594 70.386719 173.273438 66.769531 170.421875 57.808594 C 169.285156 54.242188 166.285156 52.980469 161.441406 52.980469 C 158.664062 52.980469 153.6875 53.847656 153.777344 56.429688 C 153.792969 56.867188 153.90625 57.285156 154.097656 57.691406 C 155.40625 60.453125 160.402344 62.519531 163.390625 63.539062 Z M 52.078125 46.632812 C 51.484375 46.632812 50.921875 46.765625 50.414062 47 C 49.28125 46.546875 47.996094 46.304688 46.878906 46.304688 C 43.851562 46.304688 41.542969 46.800781 39.960938 48.042969 C 39.660156 46.160156 38.046875 44.71875 36.09375 44.71875 C 33.929688 44.71875 32.171875 46.492188 32.171875 48.675781 C 31.371094 48.085938 30.386719 47.738281 29.320312 47.738281 C 26.640625 47.738281 24.464844 49.929688 24.464844 52.636719 C 24.464844 52.96875 24.5 53.292969 24.5625 53.609375 L 26.523438 56.300781 L 28.328125 54.238281 C 28.328125 54.238281 33.691406 61.699219 37.203125 66.167969 C 37.578125 66.265625 37.96875 66.320312 38.375 66.320312 C 40.214844 66.320312 41.816406 65.285156 42.640625 63.761719 L 42.640625 61.3125 C 39.078125 60.351562 38.433594 55.714844 39.859375 54.835938 C 40.675781 54.335938 41.90625 54.71875 42.792969 55.558594 C 42.734375 55.742188 42.691406 55.933594 42.691406 56.136719 C 42.691406 57.183594 43.542969 58.035156 44.589844 58.035156 C 45.402344 58.035156 46.089844 57.523438 46.359375 56.804688 C 46.839844 57.21875 47.441406 57.464844 48.101562 57.464844 C 49.589844 57.464844 50.808594 56.199219 50.917969 54.597656 C 51.285156 54.710938 51.675781 54.773438 52.078125 54.769531 C 53.335938 54.769531 54.453125 54.191406 55.195312 53.285156 C 55.765625 52.582031 56.113281 51.683594 56.113281 50.703125 C 56.113281 48.457031 54.304688 46.632812 52.078125 46.632812 Z M 70.054688 11.535156 C 70.894531 12.972656 72.300781 13.832031 73.8125 13.832031 C 75.324219 13.832031 76.730469 12.972656 77.570312 11.535156 L 78.160156 10.523438 L 69.464844 10.523438 Z M 76.503906 8.046875 L 78.457031 8.046875 L 78.457031 6.699219 L 76.503906 6.699219 Z M 71.121094 6.699219 L 69.167969 6.699219 L 69.167969 8.046875 L 71.121094 8.046875 Z M 71.121094 6.699219 " fill-opacity="1" fill-rule="nonzero"/></svg>