<svg xmlns="http://www.w3.org/2000/svg" xmlns:xlink="http://www.w3.org/1999/xlink" width="300" zoomAndPan="magnify" viewBox="0 0 224.87999 225" height="300" preserveAspectRatio="xMidYMid meet" version="1.0"><defs><clipPath id="b8cba956bb"><path d="M 4.117188 40 L 220.753906 40 L 220.753906 59 L 4.117188 59 Z M 4.117188 40 " clip-rule="nonzero"/></clipPath><clipPath id="6707faa3a4"><path d="M 12 4.179688 L 214 4.179688 L 214 32 L 12 32 Z M 12 4.179688 " clip-rule="nonzero"/></clipPath><clipPath id="b4c18ca642"><path d="M 9 211 L 216 211 L 216 220.8125 L 9 220.8125 Z M 9 211 " clip-rule="nonzero"/></clipPath><clipPath id="8fd7e41fa5"><path d="M 6.605469 145 L 42 145 L 42 184.980469 L 6.605469 184.980469 Z M 6.605469 145 " clip-rule="nonzero"/></clipPath><clipPath id="44cab45383"><path d="M 24 145 L 59.828125 145 L 59.828125 184.980469 L 24 184.980469 Z M 24 145 " clip-rule="nonzero"/></clipPath><clipPath id="2e0b483a33"><path d="M 12 121.261719 L 54 121.261719 L 54 163 L 12 163 Z M 12 121.261719 " clip-rule="nonzero"/></clipPath><clipPath id="9ed8ff437b"><path d="M 138.222656 153.042969 L 213 153.042969 L 213 214.507812 L 138.222656 214.507812 Z M 138.222656 153.042969 " clip-rule="nonzero"/></clipPath></defs><path fill="#167a65" d="M 23.976562 56.984375 C 22.621094 56.984375 21.71875 56.984375 20.816406 57.433594 C 18.558594 58.335938 16.304688 58.789062 14.046875 58.789062 C 13.59375 58.789062 13.59375 58.789062 13.144531 58.789062 L 13.144531 130.097656 L 9.535156 130.097656 L 9.535156 139.125 L 215.789062 139.125 L 215.789062 130.097656 L 211.726562 130.097656 L 211.726562 58.789062 C 209.921875 58.789062 208.117188 58.335938 206.308594 57.433594 C 205.40625 56.984375 204.503906 56.984375 203.152344 56.984375 C 200.894531 56.984375 199.539062 57.433594 198.1875 58.335938 L 198.1875 129.644531 L 26.683594 129.644531 L 26.683594 57.433594 C 25.78125 56.984375 24.878906 56.984375 23.976562 56.984375 Z M 23.976562 56.984375 " fill-opacity="1" fill-rule="nonzero"/><g clip-path="url(#b8cba956bb)"><path fill="#167a65" d="M 4.117188 40.285156 C 4.117188 48.859375 12.691406 54.273438 20.367188 51.117188 C 33.453125 46.152344 36.160156 58.789062 47.445312 58.789062 C 58.277344 58.789062 58.277344 50.210938 69.109375 50.210938 C 79.941406 50.210938 79.941406 58.789062 90.773438 58.789062 C 101.601562 58.789062 101.601562 50.210938 112.433594 50.210938 C 123.265625 50.210938 123.265625 58.789062 134.097656 58.789062 C 144.929688 58.789062 144.929688 50.210938 155.761719 50.210938 C 166.59375 50.210938 166.59375 58.789062 177.425781 58.789062 C 189.160156 58.789062 190.964844 46.152344 204.503906 51.117188 C 212.175781 54.273438 220.753906 48.859375 220.753906 40.285156 Z M 4.117188 40.285156 " fill-opacity="1" fill-rule="nonzero"/></g><g clip-path="url(#6707faa3a4)"><path fill="#167a65" d="M 36.160156 4.179688 C 36.160156 4.179688 23.523438 20.425781 12.242188 31.257812 L 213.078125 31.257812 C 201.796875 20.425781 188.707031 4.179688 188.707031 4.179688 Z M 36.160156 4.179688 " fill-opacity="1" fill-rule="nonzero"/></g><g clip-path="url(#b4c18ca642)"><path fill="#167a65" d="M 9.535156 211.785156 L 215.789062 211.785156 L 215.789062 220.8125 L 9.535156 220.8125 Z M 9.535156 211.785156 " fill-opacity="1" fill-rule="nonzero"/></g><path fill="#167a65" d="M 13.144531 145.894531 L 211.273438 145.894531 L 211.273438 205.015625 L 13.144531 205.015625 Z M 13.144531 145.894531 " fill-opacity="1" fill-rule="nonzero"/><g clip-path="url(#8fd7e41fa5)"><path fill="#db2f14" d="M 20.695312 145.886719 L 41.523438 156.007812 L 27.4375 184.972656 L 21.09375 171.269531 L 6.609375 174.855469 L 20.695312 145.886719 " fill-opacity="1" fill-rule="evenodd"/></g><path fill="#ff430e" d="M 23.746094 147.65625 L 38.265625 154.429688 L 27.625 176.683594 L 23.507812 166.867188 L 12.84375 169.753906 L 23.746094 147.65625 " fill-opacity="1" fill-rule="evenodd"/><g clip-path="url(#44cab45383)"><path fill="#db2f14" d="M 45.640625 145.4375 L 24.847656 155.628906 L 39.042969 184.546875 L 45.335938 170.816406 L 59.832031 174.351562 L 45.640625 145.4375 " fill-opacity="1" fill-rule="evenodd"/></g><path fill="#ff430e" d="M 42.597656 147.214844 L 28.101562 154.042969 L 38.824219 176.257812 L 42.90625 166.425781 L 53.578125 169.273438 L 42.597656 147.214844 " fill-opacity="1" fill-rule="evenodd"/><g clip-path="url(#2e0b483a33)"><path fill="#cdcde9" d="M 33.21875 121.261719 C 44.476562 121.261719 53.613281 130.394531 53.613281 141.644531 C 53.613281 152.890625 44.476562 162.023438 33.21875 162.023438 C 21.964844 162.023438 12.828125 152.890625 12.828125 141.644531 C 12.828125 130.394531 21.964844 121.261719 33.21875 121.261719 " fill-opacity="1" fill-rule="evenodd"/></g><path fill="#aaaace" d="M 33.21875 125.652344 C 41.902344 125.652344 48.949219 132.816406 48.949219 141.644531 C 48.949219 150.46875 41.902344 157.636719 33.21875 157.636719 C 24.539062 157.636719 17.492188 150.46875 17.492188 141.644531 C 17.492188 132.816406 24.539062 125.652344 33.21875 125.652344 " fill-opacity="1" fill-rule="evenodd"/><path fill="#e7e8f0" d="M 20.101562 132.394531 C 20.125 132.328125 20.191406 132.28125 20.269531 132.28125 C 20.347656 132.28125 20.417969 132.328125 20.4375 132.394531 L 21.089844 134.335938 L 23.1875 134.933594 C 23.261719 134.953125 23.3125 135.015625 23.3125 135.089844 C 23.3125 135.160156 23.261719 135.222656 23.1875 135.246094 L 21.089844 135.84375 L 20.4375 137.78125 C 20.417969 137.851562 20.347656 137.898438 20.269531 137.898438 C 20.191406 137.898438 20.125 137.851562 20.101562 137.78125 L 19.453125 135.84375 L 17.351562 135.246094 C 17.277344 135.222656 17.226562 135.160156 17.226562 135.089844 C 17.226562 135.015625 17.277344 134.953125 17.351562 134.933594 L 19.453125 134.335938 L 20.101562 132.394531 " fill-opacity="1" fill-rule="evenodd"/><path fill="#e7e8f0" d="M 45.871094 147.992188 C 45.894531 147.921875 45.960938 147.875 46.039062 147.875 C 46.121094 147.875 46.1875 147.921875 46.210938 147.992188 L 46.871094 149.957031 L 49.003906 150.566406 C 49.078125 150.585938 49.128906 150.652344 49.128906 150.722656 C 49.128906 150.796875 49.078125 150.859375 49.003906 150.882812 L 46.871094 151.488281 L 46.210938 153.457031 C 46.1875 153.527344 46.121094 153.574219 46.039062 153.574219 C 45.960938 153.574219 45.894531 153.527344 45.871094 153.457031 L 45.210938 151.488281 L 43.078125 150.882812 C 43.003906 150.859375 42.953125 150.796875 42.953125 150.722656 C 42.953125 150.652344 43.003906 150.585938 43.078125 150.566406 L 45.210938 149.957031 L 45.871094 147.992188 " fill-opacity="1" fill-rule="evenodd"/><path fill="#e7e8f0" d="M 17.058594 136.382812 C 17.074219 136.335938 17.117188 136.304688 17.171875 136.304688 C 17.222656 136.304688 17.269531 136.335938 17.285156 136.382812 L 17.71875 137.683594 L 19.128906 138.085938 C 19.179688 138.097656 19.210938 138.140625 19.210938 138.1875 C 19.210938 138.238281 19.179688 138.277344 19.128906 138.292969 L 17.71875 138.695312 L 17.285156 139.996094 C 17.269531 140.042969 17.222656 140.074219 17.171875 140.074219 C 17.117188 140.074219 17.074219 140.042969 17.058594 139.996094 L 16.621094 138.695312 L 15.210938 138.292969 C 15.164062 138.277344 15.128906 138.238281 15.128906 138.1875 C 15.128906 138.140625 15.164062 138.097656 15.210938 138.085938 L 16.621094 137.683594 L 17.058594 136.382812 " fill-opacity="1" fill-rule="evenodd"/><path fill="#e7e8f0" d="M 48.914062 144.75 C 48.929688 144.703125 48.980469 144.667969 49.039062 144.667969 C 49.09375 144.667969 49.144531 144.703125 49.160156 144.75 L 49.640625 146.179688 L 51.183594 146.617188 C 51.238281 146.632812 51.277344 146.679688 51.277344 146.734375 C 51.277344 146.785156 51.238281 146.832031 51.183594 146.847656 L 49.640625 147.289062 L 49.160156 148.714844 C 49.144531 148.765625 49.09375 148.800781 49.039062 148.800781 C 48.980469 148.800781 48.929688 148.765625 48.914062 148.714844 L 48.4375 147.289062 L 46.890625 146.847656 C 46.835938 146.832031 46.796875 146.785156 46.796875 146.734375 C 46.796875 146.679688 46.835938 146.632812 46.890625 146.617188 L 48.4375 146.179688 L 48.914062 144.75 " fill-opacity="1" fill-rule="evenodd"/><path fill="#e7e8f0" d="M 27.128906 145.503906 C 26.375 146.292969 26.269531 147.222656 26.570312 147.945312 C 26.875 148.675781 27.617188 149.25 28.714844 149.25 L 37.824219 149.25 C 38.570312 149.25 39.113281 148.960938 39.476562 148.554688 C 40.003906 147.96875 40.152344 147.082031 39.921875 146.308594 C 39.65625 145.425781 38.925781 144.703125 37.824219 144.703125 L 35.101562 144.703125 C 34.921875 144.703125 34.738281 144.707031 34.550781 144.714844 C 35.265625 144.195312 35.984375 143.621094 36.835938 142.898438 C 36.851562 142.886719 36.863281 142.875 36.875 142.863281 C 39.367188 140.4375 39.9375 137.609375 39.167969 135.40625 C 38.382812 133.160156 36.199219 131.492188 33.035156 131.492188 C 30.714844 131.492188 28.414062 132.449219 27.214844 134.789062 C 27.207031 134.800781 27.203125 134.816406 27.195312 134.828125 C 26.507812 136.375 27.160156 137.488281 28.066406 137.964844 C 29 138.457031 30.289062 138.285156 31 137.164062 C 31.46875 136.429688 32.261719 135.945312 33.035156 135.945312 C 33.90625 135.945312 34.464844 136.257812 34.6875 136.78125 C 35.058594 137.652344 34.59375 138.875 33.597656 139.652344 C 33.582031 139.664062 33.570312 139.675781 33.554688 139.691406 C 31.261719 141.769531 29.253906 143.238281 27.128906 145.503906 " fill-opacity="1" fill-rule="nonzero"/><g clip-path="url(#9ed8ff437b)"><path fill="#ffc50d" d="M 176.375 183.632812 L 177.8125 184.488281 C 178.09375 184.65625 177.941406 185.027344 177.8125 185.324219 L 177.234375 186.660156 C 177.097656 186.980469 176.921875 187.261719 177.058594 187.578125 L 177.199219 187.902344 L 178.105469 191.210938 L 178.492188 208.125 L 181.417969 189.230469 C 182.203125 187.710938 182.472656 186.816406 182.53125 185.164062 C 182.558594 184.347656 182.539062 183.347656 182.492188 182.253906 C 182.464844 181.628906 182.769531 181.082031 183.316406 180.777344 C 183.394531 180.730469 183.472656 180.683594 183.554688 180.640625 C 184.023438 180.363281 184.546875 180.339844 185.039062 180.566406 C 185.238281 180.65625 185.453125 180.746094 185.683594 180.839844 C 187.515625 181.566406 190.402344 182.300781 192.261719 182.757812 C 194.121094 183.210938 194.949219 183.390625 195.535156 183.828125 C 196.121094 184.265625 196.464844 184.964844 197.019531 186.886719 C 197.367188 188.085938 197.796875 203.609375 198.257812 205.460938 C 198.484375 206.355469 198.328125 207.210938 197.808594 207.972656 C 197.292969 208.730469 196.554688 209.1875 195.636719 209.304688 C 188.921875 210.179688 182.203125 214.832031 175.488281 214.8125 C 168.863281 214.789062 162.238281 210.109375 155.617188 209.285156 C 154.699219 209.171875 153.953125 208.71875 153.433594 207.957031 C 152.910156 207.191406 152.753906 206.332031 152.976562 205.4375 C 153.4375 203.59375 153.867188 188.078125 154.210938 186.886719 C 154.769531 184.964844 155.109375 184.269531 155.695312 183.828125 C 156.28125 183.394531 157.113281 183.214844 158.96875 182.757812 C 160.828125 182.304688 163.714844 181.566406 165.546875 180.839844 C 165.78125 180.746094 165.996094 180.65625 166.195312 180.566406 C 166.6875 180.339844 167.210938 180.363281 167.679688 180.636719 C 167.757812 180.683594 167.839844 180.726562 167.917969 180.773438 C 168.460938 181.078125 168.765625 181.625 168.738281 182.25 C 168.695312 183.347656 168.671875 184.347656 168.703125 185.164062 C 168.761719 186.820312 169.027344 187.710938 169.816406 189.230469 L 172.738281 208.125 L 173.128906 191.210938 L 174.035156 187.902344 L 174.117188 187.703125 C 174.257812 187.382812 174.09375 187.097656 173.945312 186.785156 L 173.238281 185.328125 C 173.097656 185.03125 172.960938 184.65625 173.238281 184.488281 L 174.777344 183.574219 C 175.332031 183.253906 175.691406 183.234375 176.375 183.632812 Z M 175.617188 153.046875 C 183 153.046875 188.984375 159.03125 188.984375 166.414062 C 188.984375 173.796875 183 179.78125 175.617188 179.78125 C 168.234375 179.78125 162.253906 173.796875 162.253906 166.414062 C 162.253906 159.03125 168.234375 153.046875 175.617188 153.046875 Z M 196.339844 166.066406 L 196.328125 166.0625 C 196.148438 166.007812 196 165.945312 195.886719 165.855469 C 195.773438 165.761719 195.699219 165.640625 195.613281 165.402344 C 195.527344 165.164062 195.433594 164.804688 195.367188 164.484375 C 195.296875 164.164062 195.253906 163.878906 195.234375 163.632812 C 195.21875 163.386719 195.222656 163.175781 195.277344 163.011719 C 195.335938 162.847656 195.492188 162.71875 195.601562 162.683594 C 195.710938 162.652344 195.769531 162.671875 195.816406 162.660156 C 195.863281 162.644531 195.792969 162.621094 195.789062 162.59375 L 195.660156 160.746094 C 195.574219 159.898438 195.753906 158.664062 196.375 158.085938 C 196.523438 157.949219 197.023438 157.859375 197.113281 157.933594 C 197.023438 157.761719 196.980469 157.519531 197.171875 157.261719 C 197.363281 157.003906 197.789062 156.492188 198.21875 156.300781 C 198.886719 156.003906 199.632812 155.78125 200.355469 155.851562 C 201.175781 155.929688 201.976562 156.277344 202.667969 156.726562 C 203.226562 157.085938 203.699219 157.609375 204.003906 158.199219 C 204.328125 158.824219 204.425781 159.507812 204.492188 160.257812 C 204.554688 161.003906 204.5 161.902344 204.394531 162.652344 C 204.476562 162.65625 204.550781 162.671875 204.625 162.699219 C 204.777344 162.757812 204.921875 162.863281 204.988281 163.058594 C 205.054688 163.25 205.046875 163.539062 205.023438 163.820312 C 204.996094 164.105469 204.957031 164.390625 204.886719 164.675781 C 204.816406 164.957031 204.722656 165.246094 204.636719 165.449219 C 204.550781 165.65625 204.476562 165.777344 204.363281 165.867188 C 204.21875 165.984375 204 166.058594 203.820312 166.105469 L 203.761719 166.972656 C 203.730469 167.480469 203.546875 167.910156 203.207031 168.285156 L 203.207031 169.789062 C 203.207031 170.085938 203.078125 170.34375 202.839844 170.527344 L 200.609375 172.238281 L 201.417969 172.71875 C 201.574219 172.8125 201.488281 173.023438 201.417969 173.1875 L 201.09375 173.9375 C 201.011719 174.117188 200.914062 174.277344 200.992188 174.453125 L 201.070312 174.632812 L 201.578125 176.492188 L 201.796875 183.03125 L 203.4375 175.378906 C 203.878906 174.527344 204.03125 174.027344 204.0625 173.097656 C 204.09375 172.246094 204.027344 171.03125 203.949219 169.785156 C 203.949219 169.730469 203.976562 169.679688 204.027344 169.65625 C 204.074219 169.632812 204.132812 169.640625 204.171875 169.675781 C 204.546875 170.007812 204.992188 170.339844 205.832031 170.671875 C 206.859375 171.078125 208.480469 171.492188 209.523438 171.75 C 210.566406 172.003906 211.035156 172.105469 211.363281 172.351562 C 211.691406 172.59375 211.882812 172.988281 212.195312 174.066406 C 212.390625 174.738281 212.632812 180.496094 212.890625 181.535156 C 213.015625 182.039062 212.929688 182.515625 212.640625 182.945312 C 212.347656 183.371094 211.933594 183.625 211.417969 183.691406 C 208.273438 184.101562 205.125 184.332031 201.976562 184.386719 C 201.074219 184.40625 200.292969 183.941406 199.871094 183.144531 C 199.671875 182.765625 199.441406 182.40625 199.171875 182.074219 C 198.804688 181.621094 198.632812 181.109375 198.652344 180.527344 L 198.785156 176.492188 L 199.296875 174.636719 L 199.34375 174.523438 C 199.421875 174.34375 199.332031 174.183594 199.246094 174.011719 L 198.851562 173.191406 C 198.769531 173.027344 198.695312 172.8125 198.851562 172.71875 L 199.714844 172.207031 L 197.527344 170.527344 C 197.289062 170.34375 197.160156 170.085938 197.160156 169.789062 L 197.160156 168.492188 L 196.996094 168.320312 C 196.632812 167.9375 196.4375 167.492188 196.402344 166.964844 Z M 198.851562 172.71875 Z M 154.898438 166.066406 L 154.910156 166.0625 C 155.089844 166.007812 155.238281 165.945312 155.351562 165.855469 C 155.464844 165.761719 155.539062 165.640625 155.621094 165.402344 C 155.710938 165.164062 155.804688 164.804688 155.871094 164.484375 C 155.941406 164.164062 155.984375 163.878906 156 163.632812 C 156.019531 163.386719 156.015625 163.175781 155.957031 163.011719 C 155.902344 162.847656 155.742188 162.71875 155.636719 162.683594 C 155.527344 162.652344 155.46875 162.671875 155.421875 162.660156 C 155.375 162.644531 155.445312 162.621094 155.449219 162.59375 L 155.578125 160.746094 C 155.664062 159.898438 155.484375 158.664062 154.859375 158.085938 C 154.714844 157.949219 154.214844 157.859375 154.125 157.933594 C 154.214844 157.761719 154.257812 157.519531 154.066406 157.261719 C 153.875 157.003906 153.449219 156.492188 153.019531 156.300781 C 152.351562 156.003906 151.605469 155.78125 150.882812 155.851562 C 150.0625 155.929688 149.261719 156.277344 148.570312 156.726562 C 148.011719 157.085938 147.539062 157.609375 147.234375 158.199219 C 146.910156 158.824219 146.8125 159.507812 146.746094 160.257812 C 146.683594 161.003906 146.738281 161.902344 146.84375 162.652344 C 146.761719 162.65625 146.6875 162.671875 146.613281 162.699219 C 146.457031 162.757812 146.316406 162.863281 146.25 163.058594 C 146.183594 163.25 146.191406 163.539062 146.214844 163.820312 C 146.242188 164.105469 146.28125 164.390625 146.351562 164.675781 C 146.421875 164.957031 146.515625 165.246094 146.601562 165.449219 C 146.6875 165.65625 146.761719 165.777344 146.875 165.867188 C 147.019531 165.984375 147.238281 166.058594 147.417969 166.105469 L 147.476562 166.972656 C 147.507812 167.480469 147.691406 167.910156 148.03125 168.285156 L 148.03125 169.789062 C 148.03125 170.085938 148.160156 170.34375 148.398438 170.527344 L 150.628906 172.238281 L 149.820312 172.71875 C 149.664062 172.8125 149.75 173.023438 149.820312 173.1875 L 150.144531 173.9375 C 150.222656 174.117188 150.320312 174.277344 150.246094 174.453125 L 150.164062 174.632812 L 149.660156 176.492188 L 149.441406 183.03125 L 147.800781 175.378906 C 147.359375 174.527344 147.207031 174.027344 147.171875 173.097656 C 147.144531 172.246094 147.210938 171.03125 147.285156 169.785156 C 147.289062 169.730469 147.261719 169.679688 147.210938 169.65625 C 147.164062 169.632812 147.105469 169.640625 147.066406 169.675781 C 146.691406 170.007812 146.246094 170.339844 145.402344 170.671875 C 144.375 171.078125 142.757812 171.492188 141.714844 171.75 C 140.671875 172.003906 140.203125 172.105469 139.875 172.351562 C 139.546875 172.59375 139.355469 172.988281 139.042969 174.066406 C 138.847656 174.738281 138.605469 180.496094 138.347656 181.535156 C 138.222656 182.039062 138.308594 182.515625 138.597656 182.945312 C 138.890625 183.371094 139.304688 183.625 139.820312 183.691406 C 142.964844 184.101562 146.113281 184.332031 149.261719 184.386719 C 150.164062 184.40625 150.945312 183.941406 151.367188 183.144531 C 151.566406 182.765625 151.796875 182.40625 152.066406 182.074219 C 152.433594 181.621094 152.605469 181.109375 152.585938 180.527344 L 152.449219 176.492188 L 151.941406 174.636719 L 151.894531 174.523438 C 151.816406 174.34375 151.90625 174.183594 151.992188 174.011719 L 152.386719 173.191406 C 152.46875 173.027344 152.542969 172.8125 152.386719 172.71875 L 151.523438 172.207031 L 153.710938 170.527344 C 153.949219 170.34375 154.078125 170.085938 154.078125 169.789062 L 154.078125 168.492188 L 154.242188 168.320312 C 154.605469 167.9375 154.800781 167.492188 154.835938 166.964844 Z M 158.296875 171.199219 C 157.71875 171.03125 157.15625 170.851562 156.707031 170.671875 C 155.863281 170.339844 155.417969 170.007812 155.042969 169.675781 C 155.003906 169.640625 154.945312 169.632812 154.898438 169.65625 C 154.847656 169.679688 154.820312 169.730469 154.820312 169.785156 C 154.898438 171.03125 154.964844 172.246094 154.933594 173.101562 C 154.902344 174.027344 154.75 174.527344 154.308594 175.382812 L 153.308594 180.050781 C 153.269531 180.230469 153.335938 180.402344 153.480469 180.515625 C 153.625 180.628906 153.808594 180.648438 153.972656 180.566406 C 155.113281 180.003906 156.433594 179.742188 157.648438 179.445312 C 158.921875 179.132812 160.292969 178.800781 161.621094 178.410156 C 162.003906 178.296875 162.28125 178.023438 162.402344 177.640625 C 162.523438 177.261719 162.453125 176.875 162.203125 176.5625 C 161.226562 175.34375 160.417969 173.988281 159.800781 172.53125 C 159.519531 171.859375 158.996094 171.398438 158.296875 171.199219 Z M 192.941406 171.199219 C 193.519531 171.03125 194.082031 170.851562 194.53125 170.671875 C 195.375 170.339844 195.820312 170.007812 196.195312 169.675781 C 196.234375 169.640625 196.292969 169.632812 196.339844 169.65625 C 196.390625 169.679688 196.417969 169.730469 196.417969 169.785156 C 196.339844 171.03125 196.273438 172.246094 196.304688 173.101562 C 196.335938 174.027344 196.488281 174.527344 196.929688 175.382812 L 197.929688 180.050781 C 197.96875 180.230469 197.902344 180.402344 197.757812 180.515625 C 197.613281 180.628906 197.429688 180.648438 197.265625 180.566406 C 196.125 180.003906 194.804688 179.742188 193.589844 179.445312 C 192.316406 179.132812 190.941406 178.800781 189.617188 178.410156 C 189.234375 178.296875 188.957031 178.023438 188.835938 177.640625 C 188.714844 177.261719 188.785156 176.875 189.035156 176.5625 C 190.011719 175.34375 190.820312 173.988281 191.4375 172.53125 C 191.71875 171.859375 192.242188 171.398438 192.941406 171.199219 Z M 170.414062 163.003906 C 170.414062 160.683594 171.949219 158.914062 174.125 158.261719 L 174.125 156.46875 C 174.125 156.121094 174.410156 155.835938 174.757812 155.835938 L 176.480469 155.835938 C 176.828125 155.835938 177.113281 156.121094 177.113281 156.46875 L 177.121094 158.195312 C 177.535156 158.300781 177.933594 158.457031 178.304688 158.664062 C 179.664062 159.421875 180.464844 160.734375 180.726562 162.25 C 180.757812 162.4375 180.707031 162.617188 180.585938 162.765625 C 180.460938 162.910156 180.292969 162.988281 180.101562 162.988281 L 178.523438 162.988281 C 178.238281 162.988281 177.996094 162.808594 177.914062 162.539062 C 177.296875 160.5 173.503906 160.296875 173.503906 162.796875 C 173.503906 164.160156 175.242188 164.664062 176.28125 165.046875 C 178.6875 165.925781 180.824219 166.847656 180.824219 169.824219 C 180.824219 172.144531 179.289062 173.914062 177.113281 174.566406 L 177.113281 176.355469 C 177.113281 176.707031 176.828125 176.992188 176.480469 176.992188 L 174.757812 176.992188 C 174.410156 176.992188 174.125 176.707031 174.125 176.355469 L 174.117188 174.632812 C 173.703125 174.527344 173.304688 174.371094 172.929688 174.164062 C 171.570312 173.40625 170.773438 172.09375 170.511719 170.578125 C 170.480469 170.390625 170.53125 170.210938 170.652344 170.0625 C 170.777344 169.917969 170.945312 169.835938 171.136719 169.835938 L 172.714844 169.835938 C 173 169.835938 173.242188 170.015625 173.320312 170.289062 C 173.9375 172.328125 177.734375 172.53125 177.734375 170.03125 C 177.734375 168.585938 175.738281 168.070312 174.652344 167.671875 C 172.34375 166.824219 170.414062 165.824219 170.414062 163.003906 Z M 170.414062 163.003906 " fill-opacity="1" fill-rule="evenodd"/></g></svg>