<svg xmlns="http://www.w3.org/2000/svg" xmlns:xlink="http://www.w3.org/1999/xlink" width="300" zoomAndPan="magnify" viewBox="0 0 224.87999 225" height="300" preserveAspectRatio="xMidYMid meet" version="1.0"><defs><clipPath id="b5a226e1b3"><path d="M 4.117188 40 L 220.753906 40 L 220.753906 59 L 4.117188 59 Z M 4.117188 40 " clip-rule="nonzero"/></clipPath><clipPath id="f3291bf9c0"><path d="M 12 4.179688 L 214 4.179688 L 214 32 L 12 32 Z M 12 4.179688 " clip-rule="nonzero"/></clipPath><clipPath id="c6267c8db3"><path d="M 9 211 L 216 211 L 216 220.8125 L 9 220.8125 Z M 9 211 " clip-rule="nonzero"/></clipPath><clipPath id="f6e40e1103"><path d="M 0 153 L 38 153 L 38 195.746094 L 0 195.746094 Z M 0 153 " clip-rule="nonzero"/></clipPath><clipPath id="8c71ffefdc"><path d="M 19 153 L 56.96875 153 L 56.96875 195.746094 L 19 195.746094 Z M 19 153 " clip-rule="nonzero"/></clipPath><clipPath id="550a76cd8c"><path d="M 6 127.53125 L 51 127.53125 L 51 172 L 6 172 Z M 6 127.53125 " clip-rule="nonzero"/></clipPath></defs><path fill="#000000" d="M 23.976562 56.984375 C 22.621094 56.984375 21.71875 56.984375 20.816406 57.433594 C 18.558594 58.335938 16.304688 58.789062 14.046875 58.789062 C 13.59375 58.789062 13.59375 58.789062 13.144531 58.789062 L 13.144531 130.097656 L 9.535156 130.097656 L 9.535156 139.125 L 215.789062 139.125 L 215.789062 130.097656 L 211.726562 130.097656 L 211.726562 58.789062 C 209.921875 58.789062 208.117188 58.335938 206.308594 57.433594 C 205.40625 56.984375 204.503906 56.984375 203.152344 56.984375 C 200.894531 56.984375 199.539062 57.433594 198.1875 58.335938 L 198.1875 129.644531 L 26.683594 129.644531 L 26.683594 57.433594 C 25.78125 56.984375 24.878906 56.984375 23.976562 56.984375 Z M 23.976562 56.984375 " fill-opacity="1" fill-rule="nonzero"/><g clip-path="url(#b5a226e1b3)"><path fill="#000000" d="M 4.117188 40.285156 C 4.117188 48.859375 12.691406 54.273438 20.367188 51.117188 C 33.453125 46.152344 36.160156 58.789062 47.445312 58.789062 C 58.277344 58.789062 58.277344 50.210938 69.109375 50.210938 C 79.941406 50.210938 79.941406 58.789062 90.773438 58.789062 C 101.601562 58.789062 101.601562 50.210938 112.433594 50.210938 C 123.265625 50.210938 123.265625 58.789062 134.097656 58.789062 C 144.929688 58.789062 144.929688 50.210938 155.761719 50.210938 C 166.59375 50.210938 166.59375 58.789062 177.425781 58.789062 C 189.160156 58.789062 190.964844 46.152344 204.503906 51.117188 C 212.175781 54.273438 220.753906 48.859375 220.753906 40.285156 Z M 4.117188 40.285156 " fill-opacity="1" fill-rule="nonzero"/></g><g clip-path="url(#f3291bf9c0)"><path fill="#000000" d="M 36.160156 4.179688 C 36.160156 4.179688 23.523438 20.425781 12.242188 31.257812 L 213.078125 31.257812 C 201.796875 20.425781 188.707031 4.179688 188.707031 4.179688 Z M 36.160156 4.179688 " fill-opacity="1" fill-rule="nonzero"/></g><g clip-path="url(#c6267c8db3)"><path fill="#000000" d="M 9.535156 211.785156 L 215.789062 211.785156 L 215.789062 220.8125 L 9.535156 220.8125 Z M 9.535156 211.785156 " fill-opacity="1" fill-rule="nonzero"/></g><path fill="#000000" d="M 13.144531 145.894531 L 211.273438 145.894531 L 211.273438 205.015625 L 13.144531 205.015625 Z M 13.144531 145.894531 " fill-opacity="1" fill-rule="nonzero"/><g clip-path="url(#f6e40e1103)"><path fill="#db2f14" d="M 15.078125 153.898438 L 37.371094 164.730469 L 22.292969 195.746094 L 15.503906 181.070312 L 0 184.910156 L 15.078125 153.898438 " fill-opacity="1" fill-rule="evenodd"/></g><path fill="#ff430e" d="M 18.339844 155.789062 L 33.882812 163.042969 L 22.496094 186.867188 L 18.085938 176.359375 L 6.675781 179.449219 L 18.339844 155.789062 " fill-opacity="1" fill-rule="evenodd"/><g clip-path="url(#8c71ffefdc)"><path fill="#db2f14" d="M 41.777344 153.414062 L 19.523438 164.328125 L 34.714844 195.285156 L 41.449219 180.585938 L 56.96875 184.371094 L 41.777344 153.414062 " fill-opacity="1" fill-rule="evenodd"/></g><path fill="#ff430e" d="M 38.519531 155.316406 L 23.003906 162.625 L 34.480469 186.410156 L 38.851562 175.886719 L 50.273438 178.933594 L 38.519531 155.316406 " fill-opacity="1" fill-rule="evenodd"/><g clip-path="url(#550a76cd8c)"><path fill="#f9a159" d="M 28.484375 127.53125 C 40.53125 127.53125 50.308594 137.308594 50.308594 149.351562 C 50.308594 161.394531 40.53125 171.171875 28.484375 171.171875 C 16.4375 171.171875 6.65625 161.394531 6.65625 149.351562 C 6.65625 137.308594 16.4375 127.53125 28.484375 127.53125 " fill-opacity="1" fill-rule="evenodd"/></g><path fill="#fa6b25" d="M 28.484375 132.230469 C 37.773438 132.230469 45.316406 139.902344 45.316406 149.351562 C 45.316406 158.804688 37.773438 166.476562 28.484375 166.476562 C 19.191406 166.476562 11.648438 158.804688 11.648438 149.351562 C 11.648438 139.902344 19.191406 132.230469 28.484375 132.230469 " fill-opacity="1" fill-rule="evenodd"/><path fill="#ffca96" d="M 14.441406 139.453125 C 14.464844 139.378906 14.539062 139.328125 14.621094 139.328125 C 14.703125 139.328125 14.777344 139.378906 14.800781 139.453125 L 15.496094 141.527344 L 17.746094 142.167969 C 17.824219 142.191406 17.878906 142.257812 17.878906 142.335938 C 17.878906 142.410156 17.824219 142.480469 17.746094 142.5 L 15.496094 143.144531 L 14.800781 145.21875 C 14.777344 145.292969 14.703125 145.339844 14.621094 145.339844 C 14.539062 145.339844 14.464844 145.292969 14.441406 145.21875 L 13.746094 143.144531 L 11.5 142.5 C 11.417969 142.480469 11.363281 142.410156 11.363281 142.335938 C 11.363281 142.257812 11.417969 142.191406 11.5 142.167969 L 13.746094 141.527344 L 14.441406 139.453125 " fill-opacity="1" fill-rule="evenodd"/><path fill="#ffca96" d="M 42.023438 156.148438 C 42.046875 156.074219 42.121094 156.023438 42.207031 156.023438 C 42.289062 156.023438 42.363281 156.074219 42.390625 156.148438 L 43.09375 158.253906 L 45.375 158.90625 C 45.457031 158.929688 45.511719 158.996094 45.511719 159.074219 C 45.511719 159.152344 45.457031 159.222656 45.375 159.246094 L 43.09375 159.894531 L 42.390625 162 C 42.363281 162.074219 42.289062 162.125 42.207031 162.125 C 42.121094 162.125 42.046875 162.074219 42.023438 162 L 41.316406 159.894531 L 39.035156 159.246094 C 38.957031 159.222656 38.902344 159.152344 38.902344 159.074219 C 38.902344 158.996094 38.957031 158.929688 39.035156 158.90625 L 41.316406 158.253906 L 42.023438 156.148438 " fill-opacity="1" fill-rule="evenodd"/><path fill="#ffca96" d="M 11.183594 143.71875 C 11.199219 143.671875 11.246094 143.636719 11.304688 143.636719 C 11.359375 143.636719 11.40625 143.671875 11.425781 143.71875 L 11.890625 145.113281 L 13.398438 145.542969 C 13.453125 145.558594 13.488281 145.601562 13.488281 145.652344 C 13.488281 145.707031 13.453125 145.75 13.398438 145.765625 L 11.890625 146.195312 L 11.425781 147.589844 C 11.40625 147.636719 11.359375 147.671875 11.304688 147.671875 C 11.246094 147.671875 11.199219 147.636719 11.183594 147.589844 L 10.714844 146.195312 L 9.207031 145.765625 C 9.15625 145.75 9.117188 145.707031 9.117188 145.652344 C 9.117188 145.601562 9.15625 145.558594 9.207031 145.542969 L 10.714844 145.113281 L 11.183594 143.71875 " fill-opacity="1" fill-rule="evenodd"/><path fill="#ffca96" d="M 45.28125 152.679688 C 45.296875 152.628906 45.351562 152.589844 45.414062 152.589844 C 45.476562 152.589844 45.527344 152.628906 45.546875 152.679688 L 46.058594 154.207031 L 47.710938 154.679688 C 47.769531 154.695312 47.808594 154.746094 47.808594 154.800781 C 47.808594 154.859375 47.769531 154.910156 47.710938 154.925781 L 46.058594 155.398438 L 45.546875 156.925781 C 45.527344 156.980469 45.476562 157.015625 45.414062 157.015625 C 45.351562 157.015625 45.296875 156.980469 45.28125 156.925781 L 44.769531 155.398438 L 43.113281 154.925781 C 43.054688 154.910156 43.015625 154.859375 43.015625 154.800781 C 43.015625 154.746094 43.054688 154.695312 43.113281 154.679688 L 44.769531 154.207031 L 45.28125 152.679688 " fill-opacity="1" fill-rule="evenodd"/><path fill="#ffca96" d="M 24.332031 147.320312 C 23.25 148.183594 23.15625 149.746094 23.929688 150.730469 C 24.425781 151.367188 25.277344 151.804688 26.484375 151.585938 C 27.28125 151.503906 28.398438 151.363281 29.320312 151.550781 C 29.710938 151.628906 30.070312 151.757812 30.28125 152.054688 C 30.417969 152.242188 30.476562 152.496094 30.476562 152.816406 C 30.476562 153.359375 30.335938 153.761719 30.070312 154.042969 C 29.636719 154.503906 28.941406 154.640625 28.253906 154.640625 C 27.382812 154.640625 26.5625 154.335938 26.0625 153.679688 C 26.058594 153.675781 26.058594 153.675781 26.058594 153.675781 C 25.46875 152.90625 24.703125 152.613281 23.988281 152.621094 C 22.957031 152.628906 22.003906 153.300781 21.675781 154.226562 C 21.453125 154.851562 21.488281 155.601562 21.996094 156.355469 C 23.304688 158.398438 25.546875 159.355469 27.824219 159.355469 C 30.378906 159.355469 32.25 158.59375 33.496094 157.433594 C 34.785156 156.230469 35.421875 154.589844 35.421875 152.816406 C 35.421875 150.171875 33.605469 147.917969 31.027344 147.285156 L 33.859375 144.640625 C 33.863281 144.636719 33.871094 144.628906 33.878906 144.621094 C 34.703125 143.796875 34.835938 142.734375 34.507812 141.882812 C 34.167969 141.015625 33.34375 140.34375 32.195312 140.34375 L 24.507812 140.34375 C 21.492188 140.34375 21.300781 145.113281 24.507812 145.113281 L 26.722656 145.113281 L 24.332031 147.320312 " fill-opacity="1" fill-rule="nonzero"/></svg>