<svg xmlns="http://www.w3.org/2000/svg" xmlns:xlink="http://www.w3.org/1999/xlink" width="50" zoomAndPan="magnify" viewBox="0 0 37.5 37.499999" height="50" preserveAspectRatio="xMidYMid meet" version="1.0"><defs><clipPath id="6e8ee3627a"><path d="M 1.851562 1.792969 L 23 1.792969 L 23 22 L 1.851562 22 Z M 1.851562 1.792969 " clip-rule="nonzero"/></clipPath><clipPath id="cf9d3686b9"><path d="M 19 5 L 35.15625 5 L 35.15625 19 L 19 19 Z M 19 5 " clip-rule="nonzero"/></clipPath><clipPath id="572e3fb144"><path d="M 2 21 L 16 21 L 16 35.101562 L 2 35.101562 Z M 2 21 " clip-rule="nonzero"/></clipPath></defs><g clip-path="url(#6e8ee3627a)"><path fill="#000000" d="M 21.507812 18.972656 C 20.871094 18.628906 20.316406 18.167969 19.859375 17.605469 C 18.929688 16.464844 18.5 15.027344 18.65625 13.5625 C 18.808594 12.097656 19.523438 10.78125 20.671875 9.855469 C 20.863281 9.699219 21.070312 9.550781 21.285156 9.421875 L 21.308594 9.40625 L 21.324219 9.394531 C 21.332031 9.390625 21.339844 9.386719 21.347656 9.382812 L 21.355469 9.378906 L 21.367188 9.371094 C 21.558594 9.257812 21.757812 9.160156 21.960938 9.074219 L 21.425781 8.613281 L 21.425781 4.519531 L 21.421875 4.324219 L 18.828125 4.324219 L 18.632812 4.328125 L 18.632812 6.214844 L 13.476562 1.792969 L 2.03125 11.609375 L 2.027344 11.613281 C 1.898438 11.726562 1.851562 11.910156 1.914062 12.070312 C 1.972656 12.230469 2.125 12.335938 2.300781 12.335938 L 4.410156 12.335938 L 4.410156 21.195312 L 5.058594 20.589844 C 5.449219 20.230469 5.957031 20.03125 6.488281 20.03125 C 7.042969 20.03125 7.578125 20.253906 7.96875 20.644531 L 9.449219 19.160156 L 9.472656 19.136719 L 9.496094 19.117188 C 9.523438 19.09375 9.546875 19.070312 9.574219 19.046875 L 9.585938 19.035156 C 9.605469 19.019531 9.621094 19.003906 9.640625 18.988281 L 9.644531 18.988281 L 9.644531 18.984375 C 9.847656 18.816406 10.074219 18.65625 10.324219 18.503906 L 10.324219 14.8125 C 10.324219 14.550781 10.535156 14.34375 10.792969 14.34375 L 16.15625 14.34375 C 16.414062 14.34375 16.625 14.550781 16.625 14.8125 L 16.625 18.035156 L 19.546875 19.152344 C 19.886719 19.246094 20.238281 19.292969 20.59375 19.292969 L 22.203125 19.292969 C 21.964844 19.203125 21.730469 19.09375 21.507812 18.972656 Z M 21.507812 18.972656 " fill-opacity="1" fill-rule="nonzero"/></g><path fill="#000000" d="M 34.738281 18.039062 C 34.738281 18.425781 34.59375 18.796875 34.335938 19.082031 L 30.796875 23.246094 C 30.773438 23.273438 30.742188 23.304688 30.714844 23.332031 L 27.828125 26.050781 C 27.808594 26.066406 27.789062 26.082031 27.769531 26.101562 C 27.734375 26.136719 27.695312 26.167969 27.65625 26.203125 C 27.617188 26.238281 27.578125 26.269531 27.539062 26.300781 C 27.324219 26.480469 27.097656 26.644531 26.863281 26.796875 C 26.820312 26.820312 26.777344 26.847656 26.734375 26.875 C 26.515625 27.003906 26.289062 27.121094 26.058594 27.226562 C 25.988281 27.257812 25.917969 27.289062 25.847656 27.316406 C 25.757812 27.355469 25.660156 27.390625 25.566406 27.425781 C 25.492188 27.449219 25.421875 27.476562 25.347656 27.496094 C 25.300781 27.511719 25.253906 27.527344 25.203125 27.542969 C 25.128906 27.5625 25.058594 27.582031 24.984375 27.601562 C 24.664062 27.683594 24.335938 27.738281 24.007812 27.769531 C 23.957031 27.777344 23.90625 27.78125 23.855469 27.785156 C 23.703125 27.796875 23.550781 27.800781 23.398438 27.800781 C 23.332031 27.800781 23.269531 27.800781 23.207031 27.796875 L 18.195312 27.640625 C 18.167969 27.640625 18.144531 27.640625 18.121094 27.640625 C 18.070312 27.640625 18.019531 27.640625 17.96875 27.644531 C 17.9375 27.648438 17.902344 27.648438 17.871094 27.652344 C 17.835938 27.65625 17.804688 27.660156 17.769531 27.667969 C 17.570312 27.695312 17.378906 27.75 17.195312 27.832031 C 17.164062 27.84375 17.132812 27.855469 17.105469 27.871094 C 17.015625 27.914062 16.925781 27.964844 16.84375 28.019531 C 16.800781 28.046875 16.757812 28.074219 16.71875 28.105469 C 16.691406 28.125 16.664062 28.144531 16.636719 28.167969 L 15.714844 28.921875 L 15.664062 28.867188 L 15.53125 28.726562 L 15.402344 28.585938 L 9.152344 21.90625 L 9.050781 21.796875 L 8.921875 21.65625 L 8.789062 21.515625 L 8.761719 21.484375 L 10.269531 19.972656 C 10.285156 19.957031 10.304688 19.941406 10.324219 19.925781 C 10.332031 19.917969 10.339844 19.910156 10.351562 19.902344 C 10.363281 19.890625 10.375 19.878906 10.390625 19.867188 C 10.582031 19.707031 10.808594 19.550781 11.0625 19.40625 C 11.515625 19.144531 12.003906 18.949219 12.515625 18.824219 C 12.972656 18.710938 13.441406 18.652344 13.917969 18.652344 C 14.640625 18.652344 15.351562 18.78125 16.027344 19.042969 L 16.625 19.269531 L 19.183594 20.25 C 19.640625 20.378906 20.117188 20.445312 20.59375 20.445312 L 24.332031 20.445312 C 24.914062 20.445312 25.457031 20.703125 25.820312 21.148438 L 25.824219 21.144531 C 25.859375 21.199219 25.890625 21.253906 25.917969 21.3125 C 25.949219 21.371094 25.972656 21.429688 25.992188 21.492188 C 26.039062 21.628906 26.066406 21.769531 26.066406 21.902344 C 26.066406 22.164062 25.992188 22.421875 25.855469 22.644531 L 25.832031 22.679688 C 25.578125 23.085938 25.144531 23.335938 24.664062 23.34375 C 24.449219 23.347656 24.210938 23.351562 23.953125 23.355469 C 23.898438 23.355469 23.847656 23.355469 23.796875 23.355469 C 23.769531 23.355469 23.742188 23.355469 23.714844 23.355469 C 23.660156 23.355469 23.605469 23.359375 23.550781 23.359375 C 23.523438 23.359375 23.496094 23.359375 23.46875 23.359375 C 23.386719 23.359375 23.300781 23.359375 23.21875 23.359375 C 22.847656 23.363281 22.457031 23.363281 22.0625 23.363281 C 21.289062 23.363281 20.496094 23.359375 19.792969 23.355469 C 19.730469 23.355469 19.667969 23.355469 19.605469 23.355469 C 19.480469 23.355469 19.359375 23.355469 19.242188 23.351562 C 19.183594 23.351562 19.128906 23.351562 19.070312 23.351562 C 18.921875 23.351562 18.777344 23.351562 18.644531 23.347656 C 18.613281 23.347656 18.578125 23.347656 18.546875 23.347656 C 18.453125 23.347656 18.359375 23.347656 18.277344 23.347656 C 18.25 23.347656 18.21875 23.347656 18.195312 23.347656 C 18.179688 23.347656 18.167969 23.34375 18.15625 23.34375 L 18.144531 24.5 C 18.980469 24.503906 20.5625 24.515625 22.070312 24.515625 C 23.046875 24.515625 23.992188 24.511719 24.6875 24.5 C 25.5625 24.480469 26.355469 24.027344 26.816406 23.285156 L 26.839844 23.25 C 27.089844 22.84375 27.222656 22.378906 27.222656 21.902344 C 27.222656 21.570312 27.152344 21.238281 27.011719 20.921875 C 26.988281 20.863281 26.960938 20.804688 26.929688 20.75 C 26.902344 20.691406 26.871094 20.636719 26.835938 20.582031 L 28.324219 19.753906 C 28.40625 19.707031 28.480469 19.648438 28.542969 19.585938 L 30.425781 17.585938 C 30.472656 17.539062 30.519531 17.492188 30.566406 17.445312 C 31.058594 16.949219 31.527344 16.480469 32.273438 16.3125 C 32.449219 16.273438 32.625 16.253906 32.800781 16.253906 C 33.503906 16.253906 33.894531 16.523438 34.324219 16.984375 C 34.59375 17.269531 34.738281 17.644531 34.738281 18.039062 Z M 34.738281 18.039062 " fill-opacity="1" fill-rule="nonzero"/><g clip-path="url(#cf9d3686b9)"><path fill="#000000" d="M 34.847656 5.191406 L 33.066406 5.007812 C 33.054688 5.007812 33.046875 5.007812 33.035156 5.007812 C 32.964844 5.007812 32.894531 5.03125 32.835938 5.078125 L 26.320312 10.347656 C 26.207031 10.28125 26.085938 10.21875 25.964844 10.164062 C 25.953125 10.160156 25.945312 10.15625 25.933594 10.152344 C 25.925781 10.148438 25.914062 10.144531 25.90625 10.140625 C 25.871094 10.125 25.839844 10.113281 25.808594 10.097656 C 25.792969 10.09375 25.78125 10.085938 25.765625 10.082031 C 25.753906 10.078125 25.738281 10.070312 25.722656 10.066406 C 25.695312 10.054688 25.664062 10.042969 25.632812 10.03125 C 25.601562 10.023438 25.570312 10.011719 25.542969 10 C 25.519531 9.996094 25.5 9.988281 25.480469 9.980469 C 25.476562 9.980469 25.472656 9.980469 25.464844 9.976562 C 25.445312 9.972656 25.425781 9.964844 25.40625 9.960938 C 25.316406 9.933594 25.222656 9.910156 25.128906 9.886719 C 25.085938 9.878906 25.039062 9.867188 24.992188 9.859375 C 24.953125 9.851562 24.914062 9.84375 24.875 9.835938 C 24.84375 9.832031 24.8125 9.828125 24.78125 9.824219 C 24.757812 9.820312 24.734375 9.816406 24.710938 9.8125 C 24.6875 9.8125 24.664062 9.808594 24.640625 9.804688 C 24.597656 9.800781 24.558594 9.796875 24.519531 9.792969 C 24.5 9.792969 24.484375 9.789062 24.464844 9.789062 C 24.457031 9.789062 24.445312 9.789062 24.4375 9.789062 C 24.429688 9.785156 24.421875 9.785156 24.410156 9.785156 C 24.394531 9.785156 24.375 9.785156 24.359375 9.78125 C 24.320312 9.78125 24.28125 9.78125 24.242188 9.777344 C 24.207031 9.777344 24.175781 9.777344 24.144531 9.777344 C 24.117188 9.777344 24.089844 9.777344 24.0625 9.777344 C 24.054688 9.777344 24.046875 9.777344 24.039062 9.777344 C 24.015625 9.78125 23.992188 9.78125 23.964844 9.78125 C 23.957031 9.78125 23.953125 9.78125 23.945312 9.78125 C 23.941406 9.78125 23.9375 9.78125 23.933594 9.78125 C 23.90625 9.785156 23.882812 9.785156 23.859375 9.785156 C 23.828125 9.789062 23.796875 9.789062 23.765625 9.792969 C 23.746094 9.796875 23.726562 9.796875 23.703125 9.800781 C 23.683594 9.800781 23.660156 9.804688 23.636719 9.808594 C 23.617188 9.808594 23.59375 9.8125 23.570312 9.816406 C 23.539062 9.820312 23.511719 9.824219 23.480469 9.828125 C 23.449219 9.832031 23.421875 9.835938 23.390625 9.84375 C 23.363281 9.847656 23.335938 9.851562 23.308594 9.855469 C 23.300781 9.859375 23.285156 9.859375 23.273438 9.863281 C 23.230469 9.871094 23.183594 9.882812 23.136719 9.894531 C 23.113281 9.898438 23.089844 9.90625 23.066406 9.910156 C 23.058594 9.914062 23.050781 9.914062 23.042969 9.917969 C 23.019531 9.921875 22.996094 9.929688 22.96875 9.9375 C 22.960938 9.941406 22.949219 9.941406 22.9375 9.945312 C 22.925781 9.949219 22.914062 9.953125 22.902344 9.957031 C 22.902344 9.957031 22.898438 9.957031 22.898438 9.957031 C 22.886719 9.960938 22.875 9.964844 22.863281 9.96875 C 22.855469 9.96875 22.847656 9.972656 22.835938 9.976562 C 22.828125 9.980469 22.820312 9.980469 22.808594 9.984375 C 22.804688 9.984375 22.804688 9.988281 22.800781 9.988281 C 22.800781 9.988281 22.796875 9.988281 22.796875 9.988281 C 22.773438 9.996094 22.746094 10.003906 22.722656 10.015625 C 22.695312 10.023438 22.671875 10.03125 22.644531 10.042969 C 22.40625 10.128906 22.171875 10.238281 21.949219 10.367188 C 21.9375 10.375 21.921875 10.382812 21.910156 10.390625 L 21.890625 10.402344 C 21.71875 10.507812 21.550781 10.625 21.398438 10.75 C 20.492188 11.480469 19.925781 12.523438 19.804688 13.679688 C 19.683594 14.839844 20.023438 15.976562 20.757812 16.878906 C 21.121094 17.324219 21.558594 17.6875 22.058594 17.960938 C 22.082031 17.972656 22.101562 17.984375 22.121094 17.992188 C 22.144531 18.003906 22.164062 18.015625 22.183594 18.023438 C 22.207031 18.035156 22.226562 18.046875 22.246094 18.054688 C 22.265625 18.066406 22.285156 18.074219 22.300781 18.082031 C 22.3125 18.085938 22.320312 18.089844 22.332031 18.09375 C 22.351562 18.105469 22.375 18.113281 22.394531 18.125 C 22.417969 18.132812 22.441406 18.144531 22.464844 18.152344 C 22.488281 18.164062 22.511719 18.175781 22.539062 18.183594 C 22.554688 18.191406 22.570312 18.195312 22.585938 18.203125 C 22.59375 18.207031 22.597656 18.207031 22.605469 18.210938 C 22.605469 18.210938 22.609375 18.210938 22.609375 18.210938 C 22.609375 18.210938 22.613281 18.210938 22.613281 18.214844 C 22.632812 18.222656 22.65625 18.230469 22.679688 18.238281 C 22.703125 18.246094 22.726562 18.253906 22.75 18.261719 C 22.78125 18.273438 22.8125 18.28125 22.84375 18.292969 C 22.847656 18.292969 22.855469 18.296875 22.863281 18.300781 C 22.894531 18.308594 22.921875 18.316406 22.953125 18.324219 C 22.976562 18.332031 22.996094 18.339844 23.019531 18.34375 C 23.042969 18.351562 23.0625 18.355469 23.085938 18.363281 C 23.109375 18.367188 23.128906 18.371094 23.152344 18.378906 C 23.171875 18.382812 23.195312 18.386719 23.21875 18.394531 C 23.234375 18.394531 23.253906 18.398438 23.273438 18.402344 C 23.289062 18.40625 23.308594 18.410156 23.324219 18.414062 C 23.347656 18.417969 23.371094 18.421875 23.394531 18.425781 C 23.410156 18.429688 23.425781 18.433594 23.445312 18.4375 C 23.476562 18.441406 23.507812 18.445312 23.539062 18.449219 C 23.5625 18.453125 23.585938 18.457031 23.609375 18.460938 C 23.636719 18.464844 23.660156 18.464844 23.683594 18.46875 C 23.730469 18.472656 23.773438 18.476562 23.816406 18.480469 C 23.839844 18.484375 23.863281 18.484375 23.886719 18.484375 C 23.90625 18.488281 23.925781 18.488281 23.945312 18.488281 C 23.960938 18.492188 23.980469 18.492188 24 18.492188 C 24.015625 18.492188 24.035156 18.492188 24.050781 18.492188 C 24.054688 18.492188 24.058594 18.492188 24.066406 18.492188 L 24.070312 18.492188 C 24.097656 18.492188 24.125 18.496094 24.152344 18.496094 L 24.15625 18.496094 C 25.136719 18.496094 26.109375 18.164062 26.910156 17.515625 C 27.292969 17.207031 27.617188 16.835938 27.878906 16.417969 L 27.886719 16.402344 C 27.898438 16.382812 27.910156 16.363281 27.921875 16.34375 C 28.558594 15.269531 28.699219 13.984375 28.316406 12.796875 L 29.355469 11.960938 L 29.394531 11.101562 L 30.246094 11.238281 L 31.152344 10.503906 L 31.195312 9.644531 L 32.042969 9.78125 L 32.953125 9.050781 L 32.992188 8.191406 L 33.84375 8.328125 L 34.832031 7.527344 C 34.898438 7.476562 34.9375 7.398438 34.945312 7.316406 L 35.132812 5.542969 C 35.148438 5.367188 35.023438 5.210938 34.847656 5.191406 Z M 23.660156 15.921875 C 23.460938 16.082031 23.21875 16.160156 22.980469 16.160156 C 22.664062 16.160156 22.351562 16.023438 22.140625 15.761719 C 21.761719 15.300781 21.835938 14.621094 22.296875 14.246094 C 22.761719 13.871094 23.441406 13.941406 23.816406 14.402344 C 24.195312 14.867188 24.125 15.546875 23.660156 15.921875 Z M 23.660156 15.921875 " fill-opacity="1" fill-rule="nonzero"/></g><g clip-path="url(#572e3fb144)"><path fill="#000000" d="M 15.734375 30.628906 L 15.609375 30.496094 L 14.816406 29.652344 L 14.6875 29.511719 L 14.554688 29.371094 L 8.335938 22.726562 L 8.207031 22.585938 L 7.941406 22.304688 L 7.175781 21.480469 C 7.167969 21.472656 7.160156 21.46875 7.152344 21.460938 C 7.066406 21.371094 6.964844 21.304688 6.855469 21.257812 C 6.828125 21.246094 6.796875 21.234375 6.765625 21.226562 C 6.75 21.222656 6.738281 21.21875 6.722656 21.214844 C 6.691406 21.207031 6.660156 21.199219 6.628906 21.195312 C 6.582031 21.1875 6.535156 21.183594 6.488281 21.183594 C 6.445312 21.183594 6.402344 21.1875 6.359375 21.191406 C 6.332031 21.195312 6.304688 21.203125 6.273438 21.207031 C 6.234375 21.21875 6.191406 21.230469 6.148438 21.246094 C 6.125 21.257812 6.097656 21.269531 6.070312 21.28125 C 6.042969 21.296875 6.019531 21.308594 5.992188 21.324219 C 5.941406 21.355469 5.894531 21.394531 5.847656 21.433594 L 4.410156 22.769531 L 2.730469 24.332031 C 2.351562 24.6875 2.332031 25.277344 2.683594 25.65625 L 11.242188 34.804688 C 11.429688 35 11.679688 35.101562 11.929688 35.101562 C 12.160156 35.101562 12.386719 35.019531 12.570312 34.851562 L 15.6875 31.953125 C 15.871094 31.78125 15.976562 31.550781 15.984375 31.300781 C 15.992188 31.050781 15.902344 30.8125 15.734375 30.628906 Z M 12.1875 32.171875 C 11.785156 32.171875 11.457031 31.84375 11.457031 31.441406 C 11.457031 31.039062 11.785156 30.710938 12.1875 30.710938 C 12.589844 30.710938 12.917969 31.039062 12.917969 31.441406 C 12.917969 31.84375 12.589844 32.171875 12.1875 32.171875 Z M 12.1875 32.171875 " fill-opacity="1" fill-rule="nonzero"/></g></svg>