<svg xmlns="http://www.w3.org/2000/svg" xmlns:xlink="http://www.w3.org/1999/xlink" width="50" zoomAndPan="magnify" viewBox="0 0 37.5 37.499999" height="50" preserveAspectRatio="xMidYMid meet" version="1.0"><defs><clipPath id="2b74f34f85"><path d="M 1 5.945312 L 35.75 5.945312 L 35.75 33.332031 L 1 33.332031 Z M 1 5.945312 " clip-rule="nonzero"/></clipPath><clipPath id="f704bbd9d6"><path d="M 18.386719 12.464844 L 18.390625 12.734375 C 14.582031 12.796875 11.53125 15.945312 11.59375 19.753906 C 11.621094 21.597656 12.367188 23.324219 13.695312 24.609375 C 15.019531 25.890625 16.769531 26.582031 18.613281 26.554688 C 20.457031 26.523438 22.183594 25.777344 23.464844 24.453125 C 24.75 23.125 25.441406 21.378906 25.410156 19.535156 C 25.351562 15.761719 22.261719 12.734375 18.503906 12.734375 C 18.46875 12.734375 18.429688 12.734375 18.390625 12.734375 Z M 1.785156 29.582031 L 1.621094 32.757812 L 11.941406 32.636719 L 12.105469 29.460938 Z M 1.339844 33.300781 C 1.265625 33.300781 1.195312 33.269531 1.144531 33.21875 C 1.09375 33.164062 1.066406 33.089844 1.070312 33.015625 L 1.261719 29.304688 C 1.269531 29.160156 1.382812 29.050781 1.527344 29.046875 L 3.6875 29.023438 C 3.867188 28.742188 4.152344 28.1875 4.105469 27.777344 C 4.070312 27.453125 3.441406 25.632812 2.890625 24.027344 C 2.328125 22.398438 1.746094 20.714844 1.523438 19.882812 C 0.960938 17.789062 3.875 12.597656 6.652344 7.898438 C 7.078125 7.179688 7.445312 6.554688 7.679688 6.132812 C 7.6875 6.117188 7.695312 6.101562 7.707031 6.089844 L 7.710938 6.085938 L 7.710938 6.082031 L 7.714844 6.082031 L 7.71875 6.074219 C 7.796875 5.992188 7.921875 5.964844 8.027344 6.015625 C 8.941406 6.421875 9.523438 6.988281 9.757812 7.699219 C 10.230469 9.125 9.253906 10.859375 8.3125 12.535156 C 8.050781 13.007812 7.796875 13.457031 7.578125 13.890625 C 7.894531 14.003906 8.175781 14.171875 8.429688 14.390625 C 10.023438 15.792969 9.945312 19.019531 9.898438 21.15625 C 9.894531 21.335938 9.890625 21.507812 9.886719 21.664062 C 9.867188 22.824219 10.027344 23.113281 10.417969 23.816406 C 10.621094 24.179688 10.875 24.632812 11.179688 25.339844 C 11.867188 26.925781 11.296875 28.269531 10.890625 28.9375 L 12.382812 28.921875 C 12.457031 28.921875 12.527344 28.949219 12.578125 29.003906 C 12.632812 29.058594 12.65625 29.128906 12.652344 29.203125 L 12.464844 32.917969 C 12.457031 33.058594 12.339844 33.167969 12.199219 33.171875 Z M 4.308594 29.015625 L 10.238281 28.945312 C 10.511719 28.585938 11.410156 27.222656 10.6875 25.554688 C 10.394531 24.867188 10.148438 24.429688 9.949219 24.074219 C 9.550781 23.355469 9.328125 22.957031 9.351562 21.65625 C 9.351562 21.496094 9.355469 21.324219 9.359375 21.144531 C 9.410156 19.109375 9.480469 16.03125 8.074219 14.796875 C 7.8125 14.566406 7.511719 14.410156 7.164062 14.328125 C 7.148438 14.324219 7.132812 14.320312 7.117188 14.316406 C 6.84375 14.257812 6.542969 14.246094 6.214844 14.273438 L 6.792969 20.421875 C 6.808594 20.570312 6.699219 20.703125 6.550781 20.714844 C 6.542969 20.714844 6.535156 20.714844 6.527344 20.714844 C 6.386719 20.714844 6.273438 20.613281 6.257812 20.472656 L 5.65625 14.066406 L 5.65625 14.058594 C 5.644531 13.914062 5.75 13.789062 5.894531 13.773438 C 6.308594 13.710938 6.691406 13.707031 7.046875 13.761719 C 7.285156 13.273438 7.570312 12.765625 7.847656 12.273438 C 8.730469 10.695312 9.644531 9.066406 9.246094 7.867188 C 9.078125 7.355469 8.679688 6.941406 8.027344 6.609375 C 7.792969 7.023438 7.472656 7.5625 7.113281 8.171875 C 5.148438 11.5 1.488281 17.691406 2.042969 19.742188 C 2.261719 20.558594 2.835938 22.230469 3.394531 23.851562 C 4.140625 26.015625 4.597656 27.359375 4.640625 27.714844 C 4.691406 28.167969 4.492188 28.667969 4.308594 29.015625 Z M 25.0625 32.636719 L 35.382812 32.757812 L 35.222656 29.582031 L 24.902344 29.460938 Z M 35.667969 33.300781 C 35.664062 33.300781 35.664062 33.300781 35.664062 33.300781 L 24.804688 33.171875 C 24.664062 33.167969 24.546875 33.058594 24.542969 32.917969 L 24.351562 29.203125 C 24.347656 29.128906 24.375 29.058594 24.425781 29.003906 C 24.476562 28.949219 24.546875 28.917969 24.621094 28.921875 L 26.113281 28.9375 C 25.707031 28.269531 25.140625 26.925781 25.824219 25.339844 C 26.128906 24.632812 26.382812 24.179688 26.585938 23.816406 C 26.976562 23.113281 27.136719 22.824219 27.117188 21.664062 C 27.117188 21.507812 27.113281 21.335938 27.109375 21.15625 C 27.058594 19.023438 26.984375 15.792969 28.574219 14.390625 C 28.828125 14.171875 29.113281 14.003906 29.425781 13.890625 C 29.207031 13.457031 28.957031 13.007812 28.691406 12.535156 C 27.75 10.859375 26.777344 9.125 27.246094 7.699219 C 27.480469 6.988281 28.0625 6.421875 28.976562 6.015625 C 29.039062 5.984375 29.105469 5.984375 29.167969 6 C 29.171875 6.003906 29.175781 6.003906 29.179688 6.003906 L 29.183594 6.007812 C 29.1875 6.007812 29.191406 6.007812 29.195312 6.011719 C 29.25 6.035156 29.296875 6.078125 29.328125 6.132812 C 29.558594 6.558594 29.929688 7.179688 30.351562 7.898438 C 33.128906 12.597656 36.046875 17.789062 35.480469 19.882812 C 35.257812 20.714844 34.675781 22.398438 34.117188 24.027344 C 33.5625 25.632812 32.9375 27.453125 32.898438 27.777344 C 32.851562 28.1875 33.140625 28.742188 33.316406 29.023438 L 35.480469 29.046875 C 35.621094 29.050781 35.738281 29.160156 35.742188 29.304688 L 35.933594 33.015625 C 35.9375 33.089844 35.910156 33.164062 35.859375 33.21875 C 35.808594 33.269531 35.738281 33.300781 35.667969 33.300781 Z M 26.765625 28.945312 L 32.695312 29.015625 C 32.515625 28.667969 32.3125 28.167969 32.367188 27.714844 C 32.40625 27.359375 32.863281 26.015625 33.609375 23.851562 C 34.167969 22.230469 34.746094 20.558594 34.964844 19.742188 C 35.515625 17.691406 31.855469 11.5 29.890625 8.171875 C 29.53125 7.5625 29.210938 7.023438 28.976562 6.609375 C 28.328125 6.941406 27.925781 7.355469 27.757812 7.867188 C 27.359375 9.066406 28.273438 10.695312 29.160156 12.273438 C 29.4375 12.765625 29.722656 13.273438 29.960938 13.761719 C 30.3125 13.707031 30.695312 13.710938 31.109375 13.773438 C 31.253906 13.789062 31.359375 13.917969 31.347656 14.066406 L 30.746094 20.472656 C 30.734375 20.613281 30.617188 20.714844 30.480469 20.714844 C 30.472656 20.714844 30.460938 20.714844 30.453125 20.714844 C 30.304688 20.703125 30.199219 20.570312 30.210938 20.421875 L 30.789062 14.273438 C 30.460938 14.246094 30.160156 14.257812 29.890625 14.316406 C 29.875 14.320312 29.855469 14.324219 29.839844 14.328125 C 29.492188 14.410156 29.191406 14.566406 28.929688 14.796875 C 27.523438 16.03125 27.597656 19.109375 27.644531 21.144531 C 27.648438 21.324219 27.652344 21.496094 27.65625 21.65625 C 27.675781 22.957031 27.457031 23.355469 27.054688 24.074219 C 26.855469 24.429688 26.613281 24.867188 26.316406 25.554688 C 25.597656 27.222656 26.492188 28.585938 26.765625 28.945312 Z M 18.972656 22.484375 C 19.320312 22.4375 19.601562 22.285156 19.828125 22.023438 C 20.050781 21.761719 20.15625 21.4375 20.152344 21.058594 C 20.144531 20.734375 20.0625 20.476562 19.898438 20.28125 C 19.734375 20.089844 19.414062 19.917969 18.929688 19.769531 Z M 18.347656 16.324219 C 18.003906 16.382812 17.730469 16.527344 17.535156 16.753906 C 17.335938 16.984375 17.242188 17.25 17.246094 17.558594 C 17.253906 17.863281 17.339844 18.117188 17.515625 18.316406 C 17.6875 18.519531 17.980469 18.679688 18.386719 18.792969 Z M 18.472656 24.140625 L 18.457031 23.25 C 18.011719 23.199219 17.648438 23.105469 17.367188 22.96875 C 17.082031 22.828125 16.835938 22.597656 16.628906 22.28125 C 16.421875 21.960938 16.296875 21.574219 16.257812 21.113281 L 17.152344 20.929688 C 17.230469 21.40625 17.355469 21.757812 17.535156 21.980469 C 17.792969 22.292969 18.09375 22.464844 18.445312 22.496094 L 18.402344 19.652344 C 18.035156 19.589844 17.65625 19.453125 17.269531 19.246094 C 16.980469 19.089844 16.761719 18.875 16.601562 18.59375 C 16.445312 18.316406 16.363281 18 16.355469 17.640625 C 16.347656 17.007812 16.5625 16.488281 17.003906 16.089844 C 17.304688 15.816406 17.746094 15.652344 18.335938 15.582031 L 18.332031 15.15625 L 18.855469 15.148438 L 18.863281 15.574219 C 19.382812 15.613281 19.796875 15.761719 20.105469 16.007812 C 20.5 16.328125 20.742188 16.769531 20.832031 17.332031 L 19.910156 17.484375 C 19.851562 17.136719 19.738281 16.867188 19.566406 16.683594 C 19.398438 16.5 19.167969 16.382812 18.875 16.328125 L 18.917969 18.898438 C 19.367188 19.007812 19.667969 19.089844 19.8125 19.148438 C 20.09375 19.269531 20.320312 19.414062 20.5 19.585938 C 20.675781 19.757812 20.816406 19.964844 20.914062 20.203125 C 21.011719 20.445312 21.0625 20.703125 21.066406 20.984375 C 21.078125 21.605469 20.886719 22.121094 20.5 22.542969 C 20.117188 22.960938 19.609375 23.191406 18.984375 23.230469 L 19 24.132812 Z M 18.5 27.089844 C 16.554688 27.089844 14.71875 26.347656 13.320312 24.992188 C 11.894531 23.609375 11.089844 21.75 11.054688 19.761719 C 11.023438 17.773438 11.769531 15.890625 13.152344 14.460938 C 14.539062 13.035156 16.394531 12.230469 18.382812 12.199219 C 20.371094 12.167969 22.253906 12.910156 23.683594 14.296875 C 25.113281 15.679688 25.917969 17.535156 25.949219 19.527344 C 25.980469 21.515625 25.234375 23.398438 23.851562 24.824219 C 22.46875 26.253906 20.609375 27.058594 18.621094 27.089844 C 18.582031 27.089844 18.539062 27.089844 18.5 27.089844 Z M 18.5 27.089844 " clip-rule="evenodd"/></clipPath><linearGradient x1="-0.454475" gradientTransform="matrix(0.227762, 0, 0, 0.227762, -1.244095, -0.102594)" y1="60.542421" x2="172.689273" gradientUnits="userSpaceOnUse" y2="112.397514" id="b40d468ccf"><stop stop-opacity="1" stop-color="rgb(100%, 19.198608%, 19.198608%)" offset="0"/><stop stop-opacity="1" stop-color="rgb(100%, 19.198608%, 19.198608%)" offset="0.015625"/><stop stop-opacity="1" stop-color="rgb(99.645996%, 19.13147%, 19.13147%)" offset="0.0195312"/><stop stop-opacity="1" stop-color="rgb(99.293518%, 19.064331%, 19.064331%)" offset="0.0234375"/><stop stop-opacity="1" stop-color="rgb(98.487854%, 18.908691%, 18.908691%)" offset="0.0273438"/><stop stop-opacity="1" stop-color="rgb(97.68219%, 18.754578%, 18.754578%)" offset="0.03125"/><stop stop-opacity="1" stop-color="rgb(96.876526%, 18.598938%, 18.598938%)" offset="0.0351562"/><stop stop-opacity="1" stop-color="rgb(96.072388%, 18.444824%, 18.444824%)" offset="0.0390625"/><stop stop-opacity="1" stop-color="rgb(95.266724%, 18.29071%, 18.29071%)" offset="0.0429688"/><stop stop-opacity="1" stop-color="rgb(94.462585%, 18.136597%, 18.136597%)" offset="0.046875"/><stop stop-opacity="1" stop-color="rgb(93.656921%, 17.980957%, 17.980957%)" offset="0.0507813"/><stop stop-opacity="1" stop-color="rgb(92.852783%, 17.826843%, 17.826843%)" offset="0.0546875"/><stop stop-opacity="1" stop-color="rgb(92.047119%, 17.672729%, 17.672729%)" offset="0.0585938"/><stop stop-opacity="1" stop-color="rgb(91.242981%, 17.518616%, 17.518616%)" offset="0.0625"/><stop stop-opacity="1" stop-color="rgb(90.437317%, 17.362976%, 17.362976%)" offset="0.0664063"/><stop stop-opacity="1" stop-color="rgb(89.633179%, 17.208862%, 17.208862%)" offset="0.0703125"/><stop stop-opacity="1" stop-color="rgb(88.827515%, 17.054749%, 17.054749%)" offset="0.0742188"/><stop stop-opacity="1" stop-color="rgb(88.023376%, 16.900635%, 16.900635%)" offset="0.078125"/><stop stop-opacity="1" stop-color="rgb(87.217712%, 16.744995%, 16.744995%)" offset="0.0820313"/><stop stop-opacity="1" stop-color="rgb(86.413574%, 16.590881%, 16.590881%)" offset="0.0859375"/><stop stop-opacity="1" stop-color="rgb(85.60791%, 16.435242%, 16.435242%)" offset="0.0898438"/><stop stop-opacity="1" stop-color="rgb(84.803772%, 16.281128%, 16.281128%)" offset="0.09375"/><stop stop-opacity="1" stop-color="rgb(83.998108%, 16.127014%, 16.127014%)" offset="0.0976562"/><stop stop-opacity="1" stop-color="rgb(83.19397%, 15.9729%, 15.9729%)" offset="0.101562"/><stop stop-opacity="1" stop-color="rgb(82.388306%, 15.817261%, 15.817261%)" offset="0.105469"/><stop stop-opacity="1" stop-color="rgb(81.584167%, 15.663147%, 15.663147%)" offset="0.109375"/><stop stop-opacity="1" stop-color="rgb(80.778503%, 15.509033%, 15.509033%)" offset="0.113281"/><stop stop-opacity="1" stop-color="rgb(79.974365%, 15.354919%, 15.354919%)" offset="0.117188"/><stop stop-opacity="1" stop-color="rgb(79.168701%, 15.19928%, 15.19928%)" offset="0.121094"/><stop stop-opacity="1" stop-color="rgb(78.364563%, 15.045166%, 15.045166%)" offset="0.125"/><stop stop-opacity="1" stop-color="rgb(77.558899%, 14.891052%, 14.891052%)" offset="0.128906"/><stop stop-opacity="1" stop-color="rgb(76.754761%, 14.736938%, 14.736938%)" offset="0.132812"/><stop stop-opacity="1" stop-color="rgb(75.949097%, 14.581299%, 14.581299%)" offset="0.136719"/><stop stop-opacity="1" stop-color="rgb(75.144958%, 14.427185%, 14.427185%)" offset="0.140625"/><stop stop-opacity="1" stop-color="rgb(74.339294%, 14.271545%, 14.271545%)" offset="0.144531"/><stop stop-opacity="1" stop-color="rgb(73.535156%, 14.117432%, 14.117432%)" offset="0.148438"/><stop stop-opacity="1" stop-color="rgb(72.729492%, 13.963318%, 13.963318%)" offset="0.152344"/><stop stop-opacity="1" stop-color="rgb(71.923828%, 13.809204%, 13.809204%)" offset="0.15625"/><stop stop-opacity="1" stop-color="rgb(71.118164%, 13.653564%, 13.653564%)" offset="0.160156"/><stop stop-opacity="1" stop-color="rgb(70.314026%, 13.499451%, 13.499451%)" offset="0.164062"/><stop stop-opacity="1" stop-color="rgb(69.508362%, 13.345337%, 13.345337%)" offset="0.167969"/><stop stop-opacity="1" stop-color="rgb(68.704224%, 13.191223%, 13.191223%)" offset="0.171875"/><stop stop-opacity="1" stop-color="rgb(67.89856%, 13.035583%, 13.035583%)" offset="0.175781"/><stop stop-opacity="1" stop-color="rgb(67.094421%, 12.88147%, 12.88147%)" offset="0.179687"/><stop stop-opacity="1" stop-color="rgb(66.288757%, 12.727356%, 12.727356%)" offset="0.183594"/><stop stop-opacity="1" stop-color="rgb(65.484619%, 12.573242%, 12.573242%)" offset="0.1875"/><stop stop-opacity="1" stop-color="rgb(64.678955%, 12.417603%, 12.417603%)" offset="0.191406"/><stop stop-opacity="1" stop-color="rgb(63.874817%, 12.263489%, 12.263489%)" offset="0.195313"/><stop stop-opacity="1" stop-color="rgb(63.069153%, 12.107849%, 12.107849%)" offset="0.199219"/><stop stop-opacity="1" stop-color="rgb(62.265015%, 11.953735%, 11.953735%)" offset="0.203125"/><stop stop-opacity="1" stop-color="rgb(61.459351%, 11.799622%, 11.799622%)" offset="0.207031"/><stop stop-opacity="1" stop-color="rgb(60.655212%, 11.645508%, 11.645508%)" offset="0.210938"/><stop stop-opacity="1" stop-color="rgb(59.849548%, 11.489868%, 11.489868%)" offset="0.214844"/><stop stop-opacity="1" stop-color="rgb(59.04541%, 11.335754%, 11.335754%)" offset="0.21875"/><stop stop-opacity="1" stop-color="rgb(58.239746%, 11.181641%, 11.181641%)" offset="0.222656"/><stop stop-opacity="1" stop-color="rgb(57.435608%, 11.027527%, 11.027527%)" offset="0.226562"/><stop stop-opacity="1" stop-color="rgb(56.629944%, 10.871887%, 10.871887%)" offset="0.230469"/><stop stop-opacity="1" stop-color="rgb(55.825806%, 10.717773%, 10.717773%)" offset="0.234375"/><stop stop-opacity="1" stop-color="rgb(55.020142%, 10.56366%, 10.56366%)" offset="0.238281"/><stop stop-opacity="1" stop-color="rgb(54.216003%, 10.409546%, 10.409546%)" offset="0.242188"/><stop stop-opacity="1" stop-color="rgb(53.410339%, 10.253906%, 10.253906%)" offset="0.246094"/><stop stop-opacity="1" stop-color="rgb(52.606201%, 10.099792%, 10.099792%)" offset="0.25"/><stop stop-opacity="1" stop-color="rgb(51.800537%, 9.944153%, 9.944153%)" offset="0.253906"/><stop stop-opacity="1" stop-color="rgb(50.996399%, 9.790039%, 9.790039%)" offset="0.257812"/><stop stop-opacity="1" stop-color="rgb(50.190735%, 9.635925%, 9.635925%)" offset="0.261719"/><stop stop-opacity="1" stop-color="rgb(49.386597%, 9.481812%, 9.481812%)" offset="0.265625"/><stop stop-opacity="1" stop-color="rgb(48.580933%, 9.326172%, 9.326172%)" offset="0.269531"/><stop stop-opacity="1" stop-color="rgb(47.776794%, 9.172058%, 9.172058%)" offset="0.273438"/><stop stop-opacity="1" stop-color="rgb(46.97113%, 9.017944%, 9.017944%)" offset="0.277344"/><stop stop-opacity="1" stop-color="rgb(46.166992%, 8.863831%, 8.863831%)" offset="0.28125"/><stop stop-opacity="1" stop-color="rgb(45.361328%, 8.708191%, 8.708191%)" offset="0.285156"/><stop stop-opacity="1" stop-color="rgb(44.555664%, 8.554077%, 8.554077%)" offset="0.289063"/><stop stop-opacity="1" stop-color="rgb(43.75%, 8.399963%, 8.399963%)" offset="0.292969"/><stop stop-opacity="1" stop-color="rgb(42.945862%, 8.24585%, 8.24585%)" offset="0.296875"/><stop stop-opacity="1" stop-color="rgb(42.140198%, 8.09021%, 8.09021%)" offset="0.300781"/><stop stop-opacity="1" stop-color="rgb(41.33606%, 7.936096%, 7.936096%)" offset="0.304688"/><stop stop-opacity="1" stop-color="rgb(40.530396%, 7.780457%, 7.780457%)" offset="0.308594"/><stop stop-opacity="1" stop-color="rgb(39.726257%, 7.626343%, 7.626343%)" offset="0.3125"/><stop stop-opacity="1" stop-color="rgb(38.920593%, 7.472229%, 7.472229%)" offset="0.316406"/><stop stop-opacity="1" stop-color="rgb(38.116455%, 7.318115%, 7.318115%)" offset="0.320312"/><stop stop-opacity="1" stop-color="rgb(37.310791%, 7.162476%, 7.162476%)" offset="0.324219"/><stop stop-opacity="1" stop-color="rgb(36.506653%, 7.008362%, 7.008362%)" offset="0.328125"/><stop stop-opacity="1" stop-color="rgb(35.700989%, 6.854248%, 6.854248%)" offset="0.332031"/><stop stop-opacity="1" stop-color="rgb(34.896851%, 6.700134%, 6.700134%)" offset="0.335938"/><stop stop-opacity="1" stop-color="rgb(34.091187%, 6.544495%, 6.544495%)" offset="0.339844"/><stop stop-opacity="1" stop-color="rgb(33.287048%, 6.390381%, 6.390381%)" offset="0.34375"/><stop stop-opacity="1" stop-color="rgb(32.481384%, 6.236267%, 6.236267%)" offset="0.347656"/><stop stop-opacity="1" stop-color="rgb(31.677246%, 6.082153%, 6.082153%)" offset="0.351563"/><stop stop-opacity="1" stop-color="rgb(30.871582%, 5.926514%, 5.926514%)" offset="0.355469"/><stop stop-opacity="1" stop-color="rgb(30.067444%, 5.7724%, 5.7724%)" offset="0.359375"/><stop stop-opacity="1" stop-color="rgb(29.26178%, 5.61676%, 5.61676%)" offset="0.363281"/><stop stop-opacity="1" stop-color="rgb(28.457642%, 5.462646%, 5.462646%)" offset="0.367188"/><stop stop-opacity="1" stop-color="rgb(27.651978%, 5.308533%, 5.308533%)" offset="0.371094"/><stop stop-opacity="1" stop-color="rgb(26.847839%, 5.154419%, 5.154419%)" offset="0.375"/><stop stop-opacity="1" stop-color="rgb(26.042175%, 4.998779%, 4.998779%)" offset="0.378906"/><stop stop-opacity="1" stop-color="rgb(25.238037%, 4.844666%, 4.844666%)" offset="0.382812"/><stop stop-opacity="1" stop-color="rgb(24.432373%, 4.690552%, 4.690552%)" offset="0.386719"/><stop stop-opacity="1" stop-color="rgb(23.628235%, 4.536438%, 4.536438%)" offset="0.390625"/><stop stop-opacity="1" stop-color="rgb(22.822571%, 4.380798%, 4.380798%)" offset="0.394531"/><stop stop-opacity="1" stop-color="rgb(22.018433%, 4.226685%, 4.226685%)" offset="0.398438"/><stop stop-opacity="1" stop-color="rgb(21.212769%, 4.072571%, 4.072571%)" offset="0.402344"/><stop stop-opacity="1" stop-color="rgb(20.40863%, 3.918457%, 3.918457%)" offset="0.40625"/><stop stop-opacity="1" stop-color="rgb(19.602966%, 3.762817%, 3.762817%)" offset="0.410156"/><stop stop-opacity="1" stop-color="rgb(18.798828%, 3.608704%, 3.608704%)" offset="0.414063"/><stop stop-opacity="1" stop-color="rgb(17.993164%, 3.453064%, 3.453064%)" offset="0.417969"/><stop stop-opacity="1" stop-color="rgb(17.1875%, 3.29895%, 3.29895%)" offset="0.421875"/><stop stop-opacity="1" stop-color="rgb(16.381836%, 3.144836%, 3.144836%)" offset="0.425781"/><stop stop-opacity="1" stop-color="rgb(15.577698%, 2.990723%, 2.990723%)" offset="0.429688"/><stop stop-opacity="1" stop-color="rgb(14.772034%, 2.835083%, 2.835083%)" offset="0.433594"/><stop stop-opacity="1" stop-color="rgb(13.967896%, 2.680969%, 2.680969%)" offset="0.4375"/><stop stop-opacity="1" stop-color="rgb(13.162231%, 2.526855%, 2.526855%)" offset="0.441406"/><stop stop-opacity="1" stop-color="rgb(12.358093%, 2.372742%, 2.372742%)" offset="0.445313"/><stop stop-opacity="1" stop-color="rgb(11.552429%, 2.217102%, 2.217102%)" offset="0.449219"/><stop stop-opacity="1" stop-color="rgb(10.748291%, 2.062988%, 2.062988%)" offset="0.453125"/><stop stop-opacity="1" stop-color="rgb(9.942627%, 1.908875%, 1.908875%)" offset="0.457031"/><stop stop-opacity="1" stop-color="rgb(9.138489%, 1.754761%, 1.754761%)" offset="0.460938"/><stop stop-opacity="1" stop-color="rgb(8.332825%, 1.599121%, 1.599121%)" offset="0.464844"/><stop stop-opacity="1" stop-color="rgb(7.528687%, 1.445007%, 1.445007%)" offset="0.46875"/><stop stop-opacity="1" stop-color="rgb(6.723022%, 1.289368%, 1.289368%)" offset="0.472656"/><stop stop-opacity="1" stop-color="rgb(5.918884%, 1.135254%, 1.135254%)" offset="0.476562"/><stop stop-opacity="1" stop-color="rgb(5.11322%, 0.98114%, 0.98114%)" offset="0.480469"/><stop stop-opacity="1" stop-color="rgb(4.309082%, 0.827026%, 0.827026%)" offset="0.484375"/><stop stop-opacity="1" stop-color="rgb(3.503418%, 0.671387%, 0.671387%)" offset="0.488281"/><stop stop-opacity="1" stop-color="rgb(2.69928%, 0.517273%, 0.517273%)" offset="0.492188"/><stop stop-opacity="1" stop-color="rgb(1.893616%, 0.363159%, 0.363159%)" offset="0.496094"/><stop stop-opacity="1" stop-color="rgb(1.089478%, 0.209045%, 0.209045%)" offset="0.5"/><stop stop-opacity="1" stop-color="rgb(0.805664%, 0.154114%, 0.154114%)" offset="0.503906"/><stop stop-opacity="1" stop-color="rgb(0.523376%, 0.0991821%, 0.0991821%)" offset="0.507812"/><stop stop-opacity="1" stop-color="rgb(1.333618%, 0.254822%, 0.254822%)" offset="0.511719"/><stop stop-opacity="1" stop-color="rgb(2.145386%, 0.411987%, 0.411987%)" offset="0.515625"/><stop stop-opacity="1" stop-color="rgb(2.957153%, 0.567627%, 0.567627%)" offset="0.519531"/><stop stop-opacity="1" stop-color="rgb(3.768921%, 0.723267%, 0.723267%)" offset="0.523438"/><stop stop-opacity="1" stop-color="rgb(4.580688%, 0.878906%, 0.878906%)" offset="0.527344"/><stop stop-opacity="1" stop-color="rgb(5.392456%, 1.034546%, 1.034546%)" offset="0.53125"/><stop stop-opacity="1" stop-color="rgb(6.202698%, 1.190186%, 1.190186%)" offset="0.535156"/><stop stop-opacity="1" stop-color="rgb(7.014465%, 1.345825%, 1.345825%)" offset="0.539063"/><stop stop-opacity="1" stop-color="rgb(7.826233%, 1.501465%, 1.501465%)" offset="0.542969"/><stop stop-opacity="1" stop-color="rgb(8.638%, 1.657104%, 1.657104%)" offset="0.546875"/><stop stop-opacity="1" stop-color="rgb(9.448242%, 1.812744%, 1.812744%)" offset="0.550781"/><stop stop-opacity="1" stop-color="rgb(10.26001%, 1.96991%, 1.96991%)" offset="0.554688"/><stop stop-opacity="1" stop-color="rgb(11.071777%, 2.125549%, 2.125549%)" offset="0.558594"/><stop stop-opacity="1" stop-color="rgb(11.883545%, 2.281189%, 2.281189%)" offset="0.5625"/><stop stop-opacity="1" stop-color="rgb(12.693787%, 2.436829%, 2.436829%)" offset="0.566406"/><stop stop-opacity="1" stop-color="rgb(13.505554%, 2.592468%, 2.592468%)" offset="0.570312"/><stop stop-opacity="1" stop-color="rgb(14.317322%, 2.748108%, 2.748108%)" offset="0.574219"/><stop stop-opacity="1" stop-color="rgb(15.129089%, 2.903748%, 2.903748%)" offset="0.578125"/><stop stop-opacity="1" stop-color="rgb(15.939331%, 3.059387%, 3.059387%)" offset="0.582031"/><stop stop-opacity="1" stop-color="rgb(16.751099%, 3.215027%, 3.215027%)" offset="0.585938"/><stop stop-opacity="1" stop-color="rgb(17.562866%, 3.370667%, 3.370667%)" offset="0.589844"/><stop stop-opacity="1" stop-color="rgb(18.374634%, 3.527832%, 3.527832%)" offset="0.59375"/><stop stop-opacity="1" stop-color="rgb(19.184875%, 3.683472%, 3.683472%)" offset="0.597656"/><stop stop-opacity="1" stop-color="rgb(19.996643%, 3.839111%, 3.839111%)" offset="0.601562"/><stop stop-opacity="1" stop-color="rgb(20.808411%, 3.994751%, 3.994751%)" offset="0.605469"/><stop stop-opacity="1" stop-color="rgb(21.620178%, 4.150391%, 4.150391%)" offset="0.609375"/><stop stop-opacity="1" stop-color="rgb(22.43042%, 4.30603%, 4.30603%)" offset="0.613281"/><stop stop-opacity="1" stop-color="rgb(23.242188%, 4.46167%, 4.46167%)" offset="0.617188"/><stop stop-opacity="1" stop-color="rgb(24.053955%, 4.61731%, 4.61731%)" offset="0.621094"/><stop stop-opacity="1" stop-color="rgb(24.865723%, 4.772949%, 4.772949%)" offset="0.625"/><stop stop-opacity="1" stop-color="rgb(25.67749%, 4.928589%, 4.928589%)" offset="0.628906"/><stop stop-opacity="1" stop-color="rgb(26.489258%, 5.085754%, 5.085754%)" offset="0.632813"/><stop stop-opacity="1" stop-color="rgb(27.2995%, 5.241394%, 5.241394%)" offset="0.636719"/><stop stop-opacity="1" stop-color="rgb(28.111267%, 5.397034%, 5.397034%)" offset="0.640625"/><stop stop-opacity="1" stop-color="rgb(28.923035%, 5.552673%, 5.552673%)" offset="0.644531"/><stop stop-opacity="1" stop-color="rgb(29.734802%, 5.708313%, 5.708313%)" offset="0.648438"/><stop stop-opacity="1" stop-color="rgb(30.545044%, 5.863953%, 5.863953%)" offset="0.652344"/><stop stop-opacity="1" stop-color="rgb(31.356812%, 6.019592%, 6.019592%)" offset="0.65625"/><stop stop-opacity="1" stop-color="rgb(32.168579%, 6.175232%, 6.175232%)" offset="0.660156"/><stop stop-opacity="1" stop-color="rgb(32.980347%, 6.330872%, 6.330872%)" offset="0.664062"/><stop stop-opacity="1" stop-color="rgb(33.790588%, 6.486511%, 6.486511%)" offset="0.667969"/><stop stop-opacity="1" stop-color="rgb(34.602356%, 6.643677%, 6.643677%)" offset="0.671875"/><stop stop-opacity="1" stop-color="rgb(35.414124%, 6.799316%, 6.799316%)" offset="0.675781"/><stop stop-opacity="1" stop-color="rgb(36.225891%, 6.954956%, 6.954956%)" offset="0.679688"/><stop stop-opacity="1" stop-color="rgb(37.036133%, 7.110596%, 7.110596%)" offset="0.683594"/><stop stop-opacity="1" stop-color="rgb(37.8479%, 7.266235%, 7.266235%)" offset="0.6875"/><stop stop-opacity="1" stop-color="rgb(38.659668%, 7.421875%, 7.421875%)" offset="0.691406"/><stop stop-opacity="1" stop-color="rgb(39.471436%, 7.577515%, 7.577515%)" offset="0.695312"/><stop stop-opacity="1" stop-color="rgb(40.281677%, 7.733154%, 7.733154%)" offset="0.699219"/><stop stop-opacity="1" stop-color="rgb(41.093445%, 7.888794%, 7.888794%)" offset="0.703125"/><stop stop-opacity="1" stop-color="rgb(41.905212%, 8.044434%, 8.044434%)" offset="0.707031"/><stop stop-opacity="1" stop-color="rgb(42.71698%, 8.201599%, 8.201599%)" offset="0.710938"/><stop stop-opacity="1" stop-color="rgb(43.527222%, 8.357239%, 8.357239%)" offset="0.714844"/><stop stop-opacity="1" stop-color="rgb(44.338989%, 8.512878%, 8.512878%)" offset="0.71875"/><stop stop-opacity="1" stop-color="rgb(45.150757%, 8.668518%, 8.668518%)" offset="0.722656"/><stop stop-opacity="1" stop-color="rgb(45.962524%, 8.824158%, 8.824158%)" offset="0.726563"/><stop stop-opacity="1" stop-color="rgb(46.772766%, 8.979797%, 8.979797%)" offset="0.730469"/><stop stop-opacity="1" stop-color="rgb(47.584534%, 9.135437%, 9.135437%)" offset="0.734375"/><stop stop-opacity="1" stop-color="rgb(48.396301%, 9.291077%, 9.291077%)" offset="0.738281"/><stop stop-opacity="1" stop-color="rgb(49.208069%, 9.446716%, 9.446716%)" offset="0.742188"/><stop stop-opacity="1" stop-color="rgb(50.019836%, 9.602356%, 9.602356%)" offset="0.746094"/><stop stop-opacity="1" stop-color="rgb(50.831604%, 9.759521%, 9.759521%)" offset="0.75"/><stop stop-opacity="1" stop-color="rgb(51.641846%, 9.915161%, 9.915161%)" offset="0.753906"/><stop stop-opacity="1" stop-color="rgb(52.453613%, 10.070801%, 10.070801%)" offset="0.757812"/><stop stop-opacity="1" stop-color="rgb(53.265381%, 10.22644%, 10.22644%)" offset="0.761719"/><stop stop-opacity="1" stop-color="rgb(54.077148%, 10.38208%, 10.38208%)" offset="0.765625"/><stop stop-opacity="1" stop-color="rgb(54.88739%, 10.53772%, 10.53772%)" offset="0.769531"/><stop stop-opacity="1" stop-color="rgb(55.699158%, 10.693359%, 10.693359%)" offset="0.773437"/><stop stop-opacity="1" stop-color="rgb(56.510925%, 10.848999%, 10.848999%)" offset="0.777344"/><stop stop-opacity="1" stop-color="rgb(57.322693%, 11.004639%, 11.004639%)" offset="0.78125"/><stop stop-opacity="1" stop-color="rgb(58.132935%, 11.160278%, 11.160278%)" offset="0.785156"/><stop stop-opacity="1" stop-color="rgb(58.944702%, 11.317444%, 11.317444%)" offset="0.789062"/><stop stop-opacity="1" stop-color="rgb(59.75647%, 11.473083%, 11.473083%)" offset="0.792969"/><stop stop-opacity="1" stop-color="rgb(60.568237%, 11.628723%, 11.628723%)" offset="0.796875"/><stop stop-opacity="1" stop-color="rgb(61.378479%, 11.784363%, 11.784363%)" offset="0.800781"/><stop stop-opacity="1" stop-color="rgb(62.190247%, 11.940002%, 11.940002%)" offset="0.804688"/><stop stop-opacity="1" stop-color="rgb(63.002014%, 12.095642%, 12.095642%)" offset="0.808594"/><stop stop-opacity="1" stop-color="rgb(63.813782%, 12.251282%, 12.251282%)" offset="0.8125"/><stop stop-opacity="1" stop-color="rgb(64.624023%, 12.406921%, 12.406921%)" offset="0.816406"/><stop stop-opacity="1" stop-color="rgb(65.435791%, 12.562561%, 12.562561%)" offset="0.820312"/><stop stop-opacity="1" stop-color="rgb(66.247559%, 12.718201%, 12.718201%)" offset="0.824219"/><stop stop-opacity="1" stop-color="rgb(67.059326%, 12.875366%, 12.875366%)" offset="0.828125"/><stop stop-opacity="1" stop-color="rgb(67.869568%, 13.031006%, 13.031006%)" offset="0.832031"/><stop stop-opacity="1" stop-color="rgb(68.681335%, 13.186646%, 13.186646%)" offset="0.835938"/><stop stop-opacity="1" stop-color="rgb(69.493103%, 13.342285%, 13.342285%)" offset="0.839844"/><stop stop-opacity="1" stop-color="rgb(70.304871%, 13.497925%, 13.497925%)" offset="0.84375"/><stop stop-opacity="1" stop-color="rgb(71.115112%, 13.653564%, 13.653564%)" offset="0.847656"/><stop stop-opacity="1" stop-color="rgb(71.92688%, 13.809204%, 13.809204%)" offset="0.851562"/><stop stop-opacity="1" stop-color="rgb(72.738647%, 13.964844%, 13.964844%)" offset="0.855469"/><stop stop-opacity="1" stop-color="rgb(73.550415%, 14.120483%, 14.120483%)" offset="0.859375"/><stop stop-opacity="1" stop-color="rgb(74.362183%, 14.276123%, 14.276123%)" offset="0.863281"/><stop stop-opacity="1" stop-color="rgb(75.17395%, 14.433289%, 14.433289%)" offset="0.867187"/><stop stop-opacity="1" stop-color="rgb(75.984192%, 14.588928%, 14.588928%)" offset="0.871094"/><stop stop-opacity="1" stop-color="rgb(76.795959%, 14.744568%, 14.744568%)" offset="0.875"/><stop stop-opacity="1" stop-color="rgb(77.607727%, 14.900208%, 14.900208%)" offset="0.878906"/><stop stop-opacity="1" stop-color="rgb(78.419495%, 15.055847%, 15.055847%)" offset="0.882812"/><stop stop-opacity="1" stop-color="rgb(79.229736%, 15.211487%, 15.211487%)" offset="0.886719"/><stop stop-opacity="1" stop-color="rgb(80.041504%, 15.367126%, 15.367126%)" offset="0.890625"/><stop stop-opacity="1" stop-color="rgb(80.853271%, 15.522766%, 15.522766%)" offset="0.894531"/><stop stop-opacity="1" stop-color="rgb(81.665039%, 15.678406%, 15.678406%)" offset="0.898438"/><stop stop-opacity="1" stop-color="rgb(82.475281%, 15.834045%, 15.834045%)" offset="0.902344"/><stop stop-opacity="1" stop-color="rgb(83.287048%, 15.991211%, 15.991211%)" offset="0.90625"/><stop stop-opacity="1" stop-color="rgb(84.098816%, 16.146851%, 16.146851%)" offset="0.910156"/><stop stop-opacity="1" stop-color="rgb(84.910583%, 16.30249%, 16.30249%)" offset="0.914062"/><stop stop-opacity="1" stop-color="rgb(85.720825%, 16.45813%, 16.45813%)" offset="0.917969"/><stop stop-opacity="1" stop-color="rgb(86.532593%, 16.61377%, 16.61377%)" offset="0.921875"/><stop stop-opacity="1" stop-color="rgb(87.34436%, 16.769409%, 16.769409%)" offset="0.925781"/><stop stop-opacity="1" stop-color="rgb(88.156128%, 16.925049%, 16.925049%)" offset="0.929688"/><stop stop-opacity="1" stop-color="rgb(88.96637%, 17.080688%, 17.080688%)" offset="0.933594"/><stop stop-opacity="1" stop-color="rgb(89.778137%, 17.236328%, 17.236328%)" offset="0.9375"/><stop stop-opacity="1" stop-color="rgb(90.589905%, 17.391968%, 17.391968%)" offset="0.941406"/><stop stop-opacity="1" stop-color="rgb(91.401672%, 17.549133%, 17.549133%)" offset="0.945312"/><stop stop-opacity="1" stop-color="rgb(92.211914%, 17.704773%, 17.704773%)" offset="0.949219"/><stop stop-opacity="1" stop-color="rgb(93.023682%, 17.860413%, 17.860413%)" offset="0.953125"/><stop stop-opacity="1" stop-color="rgb(93.835449%, 18.016052%, 18.016052%)" offset="0.957031"/><stop stop-opacity="1" stop-color="rgb(94.647217%, 18.171692%, 18.171692%)" offset="0.960937"/><stop stop-opacity="1" stop-color="rgb(95.458984%, 18.327332%, 18.327332%)" offset="0.964844"/><stop stop-opacity="1" stop-color="rgb(96.270752%, 18.482971%, 18.482971%)" offset="0.96875"/><stop stop-opacity="1" stop-color="rgb(97.080994%, 18.638611%, 18.638611%)" offset="0.972656"/><stop stop-opacity="1" stop-color="rgb(97.892761%, 18.79425%, 18.79425%)" offset="0.976562"/><stop stop-opacity="1" stop-color="rgb(98.704529%, 18.94989%, 18.94989%)" offset="0.980469"/><stop stop-opacity="1" stop-color="rgb(99.516296%, 19.107056%, 19.107056%)" offset="0.984375"/><stop stop-opacity="1" stop-color="rgb(99.757385%, 19.152832%, 19.152832%)" offset="0.988281"/><stop stop-opacity="1" stop-color="rgb(99.998474%, 19.198608%, 19.198608%)" offset="0.992188"/><stop stop-opacity="1" stop-color="rgb(99.998474%, 19.198608%, 19.198608%)" offset="1"/></linearGradient></defs><g clip-path="url(#2b74f34f85)"><g clip-path="url(#f704bbd9d6)"><path fill="url(#b40d468ccf)" d="M 0.964844 5.964844 L 0.964844 33.300781 L 35.75 33.300781 L 35.75 5.964844 Z M 0.964844 5.964844 " fill-rule="nonzero"/></g></g></svg>